<?xml version="1.0" encoding="UTF-8" standalone="no"?>
<!DOCTYPE svg PUBLIC "-//W3C//DTD SVG 1.1//EN" "http://www.w3.org/Graphics/SVG/1.1/DTD/svg11.dtd">
<svg width="100%" height="100%" viewBox="0 0 79 59" version="1.1" xmlns="http://www.w3.org/2000/svg" xmlns:xlink="http://www.w3.org/1999/xlink" xml:space="preserve" xmlns:serif="http://www.serif.com/" style="fill-rule:evenodd;clip-rule:evenodd;stroke-linejoin:round;stroke-miterlimit:2;">
    <g id="bead-bigger" serif:id="bead bigger" transform="matrix(1,0,0,1,-659.461,-86.2829)">
        <path id="beard" d="M676.112,86.283C676.112,86.283 669.922,100.551 668.45,110.184C667.632,115.532 666.781,120.327 667.26,123.851C667.635,126.616 666.775,130.526 668.146,130.461C669.939,130.376 674.143,124.812 675.281,124.984C675.959,125.086 676.416,124.822 676.892,126.266C677.216,127.252 674.359,132.417 675.664,133.849C677.655,136.033 684.183,132.285 691.457,130.88C698.03,129.61 722.096,117.195 728.489,109.04C732.564,103.842 736.738,100.301 736.738,100.301L738.128,101.181C738.128,101.181 725.89,121.393 717.714,129.38C713.321,133.673 704.582,139.749 691.327,143.505C680.721,146.511 672.939,145.134 666.215,139.331C663.4,136.901 659.979,134.906 659.587,131.8C659.2,128.734 659.802,124.581 660.072,121.606C660.527,116.586 661.211,112.866 663.157,108.407C670.962,90.532 676.112,86.283 676.112,86.283Z" style="fill:rgb(44,25,17);fill-opacity:0.83;"/>
        <clipPath id="_clip1">
            <path id="beard1" serif:id="beard" d="M676.112,86.283C676.112,86.283 669.922,100.551 668.45,110.184C667.632,115.532 666.781,120.327 667.26,123.851C667.635,126.616 666.775,130.526 668.146,130.461C669.939,130.376 674.143,124.812 675.281,124.984C675.959,125.086 676.416,124.822 676.892,126.266C677.216,127.252 674.359,132.417 675.664,133.849C677.655,136.033 684.183,132.285 691.457,130.88C698.03,129.61 722.096,117.195 728.489,109.04C732.564,103.842 736.738,100.301 736.738,100.301L738.128,101.181C738.128,101.181 725.89,121.393 717.714,129.38C713.321,133.673 704.582,139.749 691.327,143.505C680.721,146.511 672.939,145.134 666.215,139.331C663.4,136.901 659.979,134.906 659.587,131.8C659.2,128.734 659.802,124.581 660.072,121.606C660.527,116.586 661.211,112.866 663.157,108.407C670.962,90.532 676.112,86.283 676.112,86.283Z"/>
        </clipPath>
        <g clip-path="url(#_clip1)">
            <g transform="matrix(0.80269,-0.835715,0.740211,0.71096,642.119,123.938)">
                <path d="M43.959,-0.184C59.392,-0.184 66.374,12.297 66.374,25.155C66.374,38.013 67.809,57.355 45.172,54.883C29.81,53.206 5.453,43.741 6.416,25.25C7.045,13.176 28.525,-0.184 43.959,-0.184Z" style="fill:rgb(44,25,17);fill-opacity:0.64;"/>
            </g>
        </g>
        <path id="moustache" d="M666.769,120.358C669.11,118.474 672.189,116.501 674.472,116.723C679.425,117.203 682.14,117.665 686.206,122.096C688.767,124.887 687.527,127.688 687.444,132.206C687.429,133.006 691.255,131.737 691.073,131.042C690.186,127.656 693.577,120.718 685.856,115.52C682.166,113.036 679.837,113.031 678.844,112.937C674.896,112.562 670.874,112.379 667.486,114.284C666.341,114.928 666.085,120.909 666.769,120.358Z" style="fill:rgb(44,25,17);fill-opacity:0.83;"/>
    </g>
</svg>
