<?xml version="1.0" encoding="UTF-8" standalone="no"?>
<!DOCTYPE svg PUBLIC "-//W3C//DTD SVG 1.1//EN" "http://www.w3.org/Graphics/SVG/1.1/DTD/svg11.dtd">
<svg width="100%" height="100%" viewBox="0 0 362 222" version="1.1" xmlns="http://www.w3.org/2000/svg" xmlns:xlink="http://www.w3.org/1999/xlink" xml:space="preserve" xmlns:serif="http://www.serif.com/" style="fill-rule:evenodd;clip-rule:evenodd;stroke-linecap:round;stroke-linejoin:round;stroke-miterlimit:1.5;">
    <g id="pants-right-leg" serif:id="pants right leg" transform="matrix(1,0,0,1,-156.164,-21.7929)">
        <path d="M467.957,122.968C451.688,91.899 432.123,64.081 407.77,38.964C396.186,27.016 380.204,17.892 363.47,25.458C349.936,31.577 347.403,41.575 344.203,55.24C341.534,66.637 343.192,78.004 343.948,89.512C344.599,99.406 344.956,109.718 345.121,119.644C345.309,130.923 345.368,130.706 346.179,142.004C346.441,145.644 346.087,149.328 346.563,152.946C346.652,153.625 346.565,157.968 347.101,158.396C347.101,158.396 346.577,183.325 347.875,184.929C348.744,186.003 348.917,191.604 349.145,192.231C359.548,196.707 379.479,195.072 381.947,191.729C382.438,191.433 382.091,186.559 383.379,184.993C384.177,184.021 389.673,148.743 390.729,141.074C391.208,137.594 391.14,133.968 392.306,130.655C391.488,133.714 390.498,136.768 390.212,139.922C389.952,142.784 392.528,146.739 393.535,148.954C397.444,157.554 403.113,165.203 407.131,173.704C418.717,173.905 427.644,173.405 427.644,173.405" style="fill:rgb(202,180,137);"/>
        <clipPath id="_clip1">
            <path d="M467.957,122.968C451.688,91.899 432.123,64.081 407.77,38.964C396.186,27.016 380.204,17.892 363.47,25.458C349.936,31.577 347.403,41.575 344.203,55.24C341.534,66.637 343.192,78.004 343.948,89.512C344.599,99.406 344.956,109.718 345.121,119.644C345.309,130.923 345.368,130.706 346.179,142.004C346.441,145.644 346.087,149.328 346.563,152.946C346.652,153.625 346.565,157.968 347.101,158.396C347.101,158.396 346.577,183.325 347.875,184.929C348.744,186.003 348.917,191.604 349.145,192.231C359.548,196.707 379.479,195.072 381.947,191.729C382.438,191.433 382.091,186.559 383.379,184.993C384.177,184.021 389.673,148.743 390.729,141.074C391.208,137.594 391.14,133.968 392.306,130.655C391.488,133.714 390.498,136.768 390.212,139.922C389.952,142.784 392.528,146.739 393.535,148.954C397.444,157.554 403.113,165.203 407.131,173.704C418.717,173.905 427.644,173.405 427.644,173.405"/>
        </clipPath>
        <g clip-path="url(#_clip1)">
            <g opacity="0.25">
                <g transform="matrix(1,0,0,1,156.164,21.7929)">
                    <path d="M236.753,93.898C234.78,94.983 245.679,143.373 253.179,151.469C226.791,154.746 235.007,122.911 235.007,122.911L235.007,112.189L236.753,93.898Z" style="fill:rgb(3,3,3);stroke:black;stroke-width:1px;"/>
                </g>
                <g transform="matrix(1,0,0,1,156.164,21.7929)">
                    <path d="M236.042,100.941C233.787,101.317 241.544,78.175 231.211,61.525" style="fill:none;stroke:black;stroke-width:1px;"/>
                </g>
                <path d="M387.155,62.981L392.495,101.205" style="fill:none;stroke:black;stroke-width:1px;stroke-miterlimit:2;"/>
                <g transform="matrix(1,0,0,1,2.31754,-3.18662)">
                    <path d="M399.522,169.504C399.522,169.504 408.891,197.115 410.015,140.621" style="fill:none;stroke:black;stroke-width:1px;stroke-miterlimit:2;"/>
                </g>
                <g transform="matrix(1,0,0,1,-1.44846,-0.289692)">
                    <path d="M374.681,58.483C385.989,67.44 389.857,80.991 393.97,96.664" style="fill:none;stroke:black;stroke-width:1px;stroke-miterlimit:2;"/>
                </g>
                <g transform="matrix(1,0,0,1,156.164,21.7929)">
                    <path d="M191.29,162.559C191.29,162.559 211.949,166.767 232.799,160.933" style="fill:none;stroke:black;stroke-width:1px;"/>
                </g>
            </g>
        </g>
        <path d="M467.957,122.968C451.688,91.899 432.123,64.081 407.77,38.964C396.186,27.016 380.204,17.892 363.47,25.458C349.936,31.577 347.403,41.575 344.203,55.24C341.534,66.637 343.192,78.004 343.948,89.512C344.599,99.406 344.956,109.718 345.121,119.644C345.309,130.923 345.368,130.706 346.179,142.004C346.441,145.644 346.087,149.328 346.563,152.946C346.652,153.625 346.565,157.968 347.101,158.396C347.101,158.396 346.577,183.325 347.875,184.929C348.744,186.003 348.917,191.604 349.145,192.231C359.548,196.707 379.479,195.072 381.947,191.729C382.438,191.433 382.091,186.559 383.379,184.993C384.177,184.021 389.673,148.743 390.729,141.074C391.208,137.594 391.14,133.968 392.306,130.655C391.488,133.714 390.498,136.768 390.212,139.922C389.952,142.784 392.528,146.739 393.535,148.954C397.444,157.554 403.113,165.203 407.131,173.704C418.717,173.905 427.644,173.405 427.644,173.405" style="fill:none;stroke:black;stroke-width:1px;stroke-miterlimit:2;"/>
    </g>
    <g id="pants-left-leg" serif:id="pants left leg" transform="matrix(1,0,0,1,-156.164,-21.7929)">
        <path d="M425.776,172.845C388.429,175.572 352.713,166.367 315.558,170.915C306.261,172.053 304.011,176.315 296.735,180.052C290.099,183.461 282.832,185.62 275.567,187.316C249.958,193.294 223.406,191.758 197.619,196.242C193.365,196.982 189.655,200.025 185.355,200.407C177.237,201.129 168.834,199.428 160.923,201.391C155.523,207.245 155.613,227.4 159.296,232.024C161.064,232.578 183.805,232.192 185.195,232.271C205.617,233.436 225.649,234.28 246.405,233.834C267.528,233.38 288.765,233.741 309.855,232.525C317.745,232.07 317.501,231.059 325.304,230.83C336.964,230.487 349.143,230.843 360.63,232.205C366.516,232.903 372.164,235.065 378.046,235.795C385.498,236.719 393.062,236.479 400.517,237.372C417.93,239.459 436.896,239.579 454.378,237.468C463.07,236.418 470.63,233.741 479.346,233.049C488.507,232.321 496.571,228.901 505.611,228.066C509.364,227.72 513.129,227.677 516.898,227.632C516.898,227.632 493.938,188.352 496.137,155.305C493.586,150.413 494.735,148.897 497.24,142.58C484.207,145.63 474.765,134.986 467.117,121.473" style="fill:rgb(202,180,137);"/>
        <clipPath id="_clip2">
            <path d="M425.776,172.845C388.429,175.572 352.713,166.367 315.558,170.915C306.261,172.053 304.011,176.315 296.735,180.052C290.099,183.461 282.832,185.62 275.567,187.316C249.958,193.294 223.406,191.758 197.619,196.242C193.365,196.982 189.655,200.025 185.355,200.407C177.237,201.129 168.834,199.428 160.923,201.391C155.523,207.245 155.613,227.4 159.296,232.024C161.064,232.578 183.805,232.192 185.195,232.271C205.617,233.436 225.649,234.28 246.405,233.834C267.528,233.38 288.765,233.741 309.855,232.525C317.745,232.07 317.501,231.059 325.304,230.83C336.964,230.487 349.143,230.843 360.63,232.205C366.516,232.903 372.164,235.065 378.046,235.795C385.498,236.719 393.062,236.479 400.517,237.372C417.93,239.459 436.896,239.579 454.378,237.468C463.07,236.418 470.63,233.741 479.346,233.049C488.507,232.321 496.571,228.901 505.611,228.066C509.364,227.72 513.129,227.677 516.898,227.632C516.898,227.632 493.938,188.352 496.137,155.305C493.586,150.413 494.735,148.897 497.24,142.58C484.207,145.63 474.765,134.986 467.117,121.473"/>
        </clipPath>
        <g clip-path="url(#_clip2)">
            <g opacity="0.25">
                <g transform="matrix(1,0,0,1,156.164,21.7929)">
                    <path d="M336.831,147.672C336.831,147.672 318.451,146.275 314.224,152.382" style="fill:none;stroke:black;stroke-width:1px;"/>
                </g>
                <g transform="matrix(1,0,0,1,155.537,22.7323)">
                    <path d="M314.664,152.142L337.963,149.512" style="fill:none;stroke:black;stroke-width:1px;"/>
                </g>
                <g transform="matrix(1.05554,0,0,0.936425,9.98529,11.7592)">
                    <path d="M168.148,238.93C168.148,238.93 159.255,214.383 169.443,193.654" style="fill:none;stroke:black;stroke-width:1px;stroke-miterlimit:2;"/>
                </g>
                <path d="M322.368,236.881C324.692,228.094 323.131,225.253 322.95,214.926" style="fill:none;stroke:black;stroke-width:1px;stroke-miterlimit:2;"/>
                <path d="M308.17,238.768C308.17,238.768 322.148,230.43 320.544,207.708" style="fill:none;stroke:black;stroke-width:1px;stroke-miterlimit:2;"/>
                <path d="M512.939,229.098C498.989,208.611 494.942,177.356 491.706,163.366C490.683,158.941 491.522,156.318 491.2,155.52C487.551,146.489 493.496,137.329 496.341,128.988" style="fill:none;stroke:black;stroke-width:1px;stroke-miterlimit:2;"/>
                <path d="M188.144,227.286C188.144,227.286 210.307,240.335 244.035,242.443" style="fill:none;stroke:black;stroke-width:1px;stroke-miterlimit:2;"/>
                <g transform="matrix(1,0,0,1,-3.21216,3.92598)">
                    <path d="M390.17,249.664C389.599,245.952 382.746,230.819 383.603,217.97C384.459,205.122 438.994,219.684 438.138,217.685C437.281,215.686 444.99,245.952 436.996,254.232" style="fill:none;stroke:black;stroke-width:1px;stroke-miterlimit:2;"/>
                </g>
                <g transform="matrix(0.652174,0,0,0.538961,148.626,79.7898)">
                    <path d="M427.298,173.065C427.298,173.065 439.71,161.913 443.847,145.363" style="fill:none;stroke:black;stroke-width:1.67px;stroke-miterlimit:2;"/>
                </g>
            </g>
        </g>
        <path d="M425.776,172.845C388.429,175.572 352.713,166.367 315.558,170.915C306.261,172.053 304.011,176.315 296.735,180.052C290.099,183.461 282.832,185.62 275.567,187.316C249.958,193.294 223.406,191.758 197.619,196.242C193.365,196.982 189.655,200.025 185.355,200.407C177.237,201.129 168.834,199.428 160.923,201.391C155.523,207.245 155.613,227.4 159.296,232.024C161.064,232.578 183.805,232.192 185.195,232.271C205.617,233.436 225.649,234.28 246.405,233.834C267.528,233.38 288.765,233.741 309.855,232.525C317.745,232.07 317.501,231.059 325.304,230.83C336.964,230.487 349.143,230.843 360.63,232.205C366.516,232.903 372.164,235.065 378.046,235.795C385.498,236.719 393.062,236.479 400.517,237.372C417.93,239.459 436.896,239.579 454.378,237.468C463.07,236.418 470.63,233.741 479.346,233.049C488.507,232.321 496.571,228.901 505.611,228.066C509.364,227.72 513.129,227.677 516.898,227.632C516.898,227.632 493.938,188.352 496.137,155.305C493.586,150.413 494.735,148.897 497.24,142.58C484.207,145.63 474.765,134.986 467.117,121.473" style="fill:none;stroke:black;stroke-width:1px;stroke-miterlimit:2;"/>
    </g>
    <g transform="matrix(1.17863,0,0,1.08896,-246.411,-36.8991)">
        <path d="M493.72,169.061C495.423,155.555 485.377,158.405 492.576,168.146C500.634,179.049 492.477,187.608 492.805,170.205C492.862,167.208 491.012,183.953 491.662,187.816" style="fill:none;stroke:black;stroke-width:1.76px;"/>
    </g>
</svg>
