<?xml version="1.0" encoding="UTF-8" standalone="no"?>
<!DOCTYPE svg PUBLIC "-//W3C//DTD SVG 1.1//EN" "http://www.w3.org/Graphics/SVG/1.1/DTD/svg11.dtd">
<svg width="100%" height="100%" viewBox="0 0 394 63" version="1.1" xmlns="http://www.w3.org/2000/svg" xmlns:xlink="http://www.w3.org/1999/xlink" xml:space="preserve" xmlns:serif="http://www.serif.com/" style="fill-rule:evenodd;clip-rule:evenodd;stroke-linecap:round;stroke-linejoin:round;stroke-miterlimit:1.5;">
    <g id="left-leg" serif:id="left leg" transform="matrix(1,0,0,1,-40.8625,-162.481)">
        <path d="M402.841,222.447C402.841,222.447 368.032,226.255 342.913,217.92C317.794,209.584 291.818,214.189 271.578,217.929C251.338,221.669 155.965,217.544 146.841,216.6C132.401,215.105 111.192,222.783 80.249,224.597C68.98,225.258 58.504,218.749 53.505,213.892C48.505,209.035 43.906,191.569 41.983,187.522C40.06,183.474 42.261,175.629 53.52,178.455C69.773,182.535 103.56,194.292 135.274,194.178C159.746,194.091 183.167,191.918 222.838,183.76C256.819,176.773 255.051,178.198 270.386,175.215C284.457,172.478 288.522,168.666 303.079,165.848C318.46,162.871 329.695,161.516 356.096,165.256C377.754,168.324 399.809,162.767 420.405,168.814C424.915,170.138 429.354,171.854 433.705,174.102" style="fill:rgb(246,185,133);stroke:black;stroke-width:1px;"/>
    </g>
</svg>
