<?xml version="1.0" encoding="UTF-8" standalone="no"?>
<!DOCTYPE svg PUBLIC "-//W3C//DTD SVG 1.1//EN" "http://www.w3.org/Graphics/SVG/1.1/DTD/svg11.dtd">
<svg width="100%" height="100%" viewBox="0 0 345 180" version="1.1" xmlns="http://www.w3.org/2000/svg" xmlns:xlink="http://www.w3.org/1999/xlink" xml:space="preserve" xmlns:serif="http://www.serif.com/" style="fill-rule:evenodd;clip-rule:evenodd;stroke-linejoin:round;stroke-miterlimit:2;">
    <g id="Jack-of-all-trades" serif:id="Jack of all trades" transform="matrix(1.00483,0,0,1.00483,-400.602,-2.61256)">
        <g id="Jack-of-Hearts" serif:id="Jack of Hearts" transform="matrix(1,0,0,1,4.97596,-1.99038)">
            <g transform="matrix(0.83281,-0.253027,0.239171,0.787205,104.507,112.582)">
                <rect x="341.611" y="19.633" width="101.907" height="161.656" style="fill:white;"/>
            </g>
            <g transform="matrix(137.81,-41.7654,41.7654,137.81,424.95,154.356)">
                <path d="M0.636,-0.812L0.636,0.112L0.02,0.112L0.02,-0.812L0.636,-0.812ZM0.042,0.089L0.613,0.089L0.613,-0.79L0.042,-0.79L0.042,0.089ZM0.503,-0.692L0.503,-0.008L0.152,-0.008L0.152,-0.692L0.503,-0.692ZM0.173,-0.671L0.173,-0.029L0.482,-0.029L0.482,-0.671L0.173,-0.671ZM0.428,-0.608L0.305,-0.608L0.284,-0.658L0.449,-0.658L0.428,-0.608ZM0.332,-0.558L0.319,-0.569L0.347,-0.566L0.332,-0.558ZM0.348,-0.481C0.341,-0.481 0.333,-0.479 0.323,-0.478C0.314,-0.476 0.305,-0.473 0.296,-0.469C0.286,-0.466 0.277,-0.462 0.269,-0.456C0.26,-0.451 0.253,-0.444 0.247,-0.436C0.236,-0.423 0.228,-0.408 0.222,-0.392C0.217,-0.375 0.212,-0.36 0.209,-0.345C0.206,-0.327 0.204,-0.31 0.203,-0.292L0.194,-0.292C0.195,-0.309 0.197,-0.326 0.2,-0.344C0.203,-0.359 0.208,-0.375 0.214,-0.392C0.22,-0.409 0.229,-0.425 0.241,-0.44C0.248,-0.449 0.256,-0.456 0.265,-0.462C0.274,-0.468 0.283,-0.473 0.292,-0.476C0.302,-0.48 0.311,-0.483 0.32,-0.485C0.329,-0.486 0.337,-0.488 0.343,-0.488L0.347,-0.502L0.318,-0.504L0.308,-0.528L0.315,-0.532L0.307,-0.536L0.308,-0.543L0.296,-0.546L0.296,-0.55L0.308,-0.57L0.303,-0.576L0.305,-0.601L0.428,-0.601L0.459,-0.481L0.387,-0.481L0.364,-0.594L0.312,-0.594L0.31,-0.577L0.315,-0.57L0.304,-0.549L0.315,-0.547L0.313,-0.537L0.323,-0.533L0.315,-0.527L0.324,-0.509L0.356,-0.507L0.348,-0.481ZM0.223,-0.093L0.346,-0.093L0.367,-0.043L0.202,-0.043L0.223,-0.093ZM0.319,-0.144L0.332,-0.132L0.304,-0.135L0.319,-0.144ZM0.302,-0.22C0.309,-0.221 0.318,-0.222 0.327,-0.224C0.336,-0.226 0.345,-0.229 0.354,-0.232C0.364,-0.236 0.373,-0.24 0.382,-0.246C0.39,-0.251 0.398,-0.258 0.404,-0.266C0.414,-0.279 0.422,-0.293 0.428,-0.31C0.434,-0.326 0.438,-0.342 0.441,-0.357C0.445,-0.374 0.447,-0.391 0.448,-0.41L0.457,-0.41C0.456,-0.392 0.454,-0.375 0.451,-0.357C0.447,-0.342 0.443,-0.326 0.436,-0.309C0.43,-0.291 0.421,-0.275 0.41,-0.261C0.403,-0.252 0.395,-0.245 0.386,-0.239C0.377,-0.233 0.368,-0.229 0.358,-0.225C0.349,-0.221 0.339,-0.218 0.331,-0.217C0.322,-0.215 0.314,-0.214 0.308,-0.213L0.304,-0.199L0.333,-0.197L0.343,-0.173L0.335,-0.169L0.344,-0.166L0.343,-0.158L0.354,-0.155L0.354,-0.151L0.343,-0.132L0.348,-0.125L0.346,-0.101L0.223,-0.101L0.191,-0.221L0.264,-0.221L0.287,-0.108L0.339,-0.108L0.34,-0.125L0.335,-0.131L0.347,-0.152L0.336,-0.154L0.337,-0.165L0.328,-0.168L0.335,-0.174L0.327,-0.192L0.295,-0.194L0.302,-0.22Z" style="fill-rule:nonzero;"/>
            </g>
            <g transform="matrix(137.81,-41.7654,41.7654,137.81,424.95,154.356)">
                <path d="M0.545,0.02C0.545,0.016 0.545,0.012 0.546,0.007C0.547,0.003 0.549,-0.001 0.551,-0.004C0.553,-0.007 0.556,-0.01 0.559,-0.012C0.562,-0.014 0.566,-0.015 0.571,-0.015C0.575,-0.015 0.578,-0.014 0.58,-0.013L0.58,-0.002C0.578,-0.004 0.575,-0.005 0.571,-0.005C0.561,-0.005 0.556,0.003 0.556,0.02L0.556,0.082L0.545,0.082L0.545,0.02ZM0.109,-0.715C0.109,-0.711 0.109,-0.706 0.108,-0.702C0.107,-0.698 0.105,-0.695 0.103,-0.691C0.101,-0.688 0.099,-0.685 0.095,-0.683C0.092,-0.682 0.088,-0.681 0.083,-0.681C0.08,-0.681 0.076,-0.681 0.074,-0.682L0.074,-0.693C0.076,-0.691 0.079,-0.69 0.083,-0.69C0.094,-0.69 0.099,-0.699 0.099,-0.715L0.099,-0.777L0.109,-0.777L0.109,-0.715ZM0.098,-0.645C0.099,-0.647 0.101,-0.65 0.103,-0.652C0.105,-0.654 0.108,-0.655 0.112,-0.655C0.116,-0.655 0.119,-0.654 0.122,-0.65C0.125,-0.647 0.126,-0.642 0.126,-0.635C0.126,-0.629 0.125,-0.624 0.123,-0.619C0.121,-0.614 0.118,-0.61 0.115,-0.606L0.098,-0.586L0.08,-0.606C0.077,-0.61 0.075,-0.614 0.072,-0.619C0.07,-0.624 0.069,-0.629 0.069,-0.635C0.069,-0.642 0.07,-0.647 0.073,-0.65C0.077,-0.654 0.08,-0.655 0.083,-0.655C0.087,-0.655 0.09,-0.654 0.093,-0.652C0.095,-0.65 0.097,-0.647 0.098,-0.645ZM0.557,-0.05C0.555,-0.048 0.554,-0.045 0.551,-0.043C0.549,-0.041 0.546,-0.04 0.542,-0.04C0.539,-0.04 0.535,-0.042 0.532,-0.045C0.53,-0.048 0.528,-0.053 0.528,-0.061C0.528,-0.066 0.529,-0.072 0.531,-0.076C0.534,-0.081 0.536,-0.085 0.539,-0.089L0.557,-0.109C0.559,-0.106 0.561,-0.103 0.565,-0.1C0.568,-0.096 0.571,-0.093 0.574,-0.089C0.577,-0.085 0.58,-0.081 0.582,-0.076C0.584,-0.072 0.585,-0.066 0.585,-0.061C0.585,-0.053 0.584,-0.048 0.581,-0.045C0.578,-0.042 0.574,-0.04 0.571,-0.04C0.567,-0.04 0.564,-0.041 0.562,-0.043C0.56,-0.045 0.558,-0.048 0.557,-0.05ZM0.229,-0.646C0.232,-0.65 0.235,-0.655 0.239,-0.658C0.243,-0.662 0.248,-0.664 0.254,-0.664C0.26,-0.664 0.266,-0.661 0.271,-0.656C0.276,-0.65 0.279,-0.641 0.279,-0.628C0.279,-0.619 0.277,-0.61 0.273,-0.602C0.269,-0.594 0.265,-0.587 0.26,-0.58C0.254,-0.573 0.249,-0.567 0.243,-0.562C0.238,-0.556 0.233,-0.551 0.229,-0.545C0.226,-0.551 0.221,-0.556 0.216,-0.562C0.21,-0.567 0.205,-0.573 0.2,-0.58C0.194,-0.587 0.19,-0.594 0.186,-0.602C0.183,-0.61 0.181,-0.619 0.181,-0.628C0.181,-0.641 0.183,-0.65 0.188,-0.656C0.194,-0.661 0.199,-0.664 0.206,-0.664C0.212,-0.664 0.217,-0.662 0.221,-0.658C0.225,-0.655 0.228,-0.65 0.229,-0.646ZM0.421,-0.055C0.419,-0.051 0.416,-0.046 0.412,-0.043C0.408,-0.039 0.403,-0.037 0.397,-0.037C0.39,-0.037 0.385,-0.04 0.38,-0.046C0.375,-0.051 0.372,-0.06 0.372,-0.072C0.372,-0.082 0.374,-0.091 0.378,-0.099C0.381,-0.107 0.386,-0.114 0.391,-0.121C0.396,-0.127 0.402,-0.133 0.407,-0.139C0.413,-0.145 0.417,-0.15 0.421,-0.155C0.424,-0.15 0.429,-0.145 0.435,-0.139C0.44,-0.133 0.446,-0.127 0.451,-0.121C0.456,-0.114 0.461,-0.107 0.465,-0.099C0.468,-0.091 0.47,-0.082 0.47,-0.072C0.47,-0.06 0.468,-0.051 0.462,-0.046C0.457,-0.04 0.451,-0.037 0.445,-0.037C0.439,-0.037 0.434,-0.039 0.43,-0.043C0.426,-0.046 0.423,-0.051 0.421,-0.055Z" style="fill:rgb(230,26,26);fill-rule:nonzero;"/>
            </g>
        </g>
        <g id="Jack-of-Diamonds" serif:id="Jack of Diamonds">
            <g transform="matrix(0.868383,-0.0592004,0.0559587,0.820831,182.552,14.8081)">
                <rect x="341.611" y="19.633" width="101.907" height="161.656" style="fill:white;"/>
            </g>
            <g transform="matrix(143.661,-9.87851,9.87851,143.661,485.486,127.552)">
                <path d="M0.636,-0.812L0.636,0.112L0.02,0.112L0.02,-0.812L0.636,-0.812ZM0.042,0.089L0.613,0.089L0.613,-0.79L0.042,-0.79L0.042,0.089ZM0.503,-0.692L0.503,-0.008L0.152,-0.008L0.152,-0.692L0.503,-0.692ZM0.173,-0.671L0.173,-0.029L0.482,-0.029L0.482,-0.671L0.173,-0.671ZM0.194,-0.304C0.195,-0.321 0.197,-0.339 0.2,-0.356C0.203,-0.371 0.208,-0.388 0.214,-0.405C0.22,-0.422 0.229,-0.438 0.241,-0.453C0.248,-0.462 0.256,-0.469 0.264,-0.475C0.272,-0.481 0.28,-0.486 0.289,-0.489C0.297,-0.493 0.304,-0.495 0.311,-0.497C0.317,-0.499 0.322,-0.5 0.325,-0.5C0.319,-0.509 0.314,-0.519 0.31,-0.531C0.306,-0.543 0.304,-0.555 0.304,-0.567L0.304,-0.601L0.428,-0.601L0.458,-0.484L0.419,-0.484L0.414,-0.52C0.407,-0.511 0.399,-0.503 0.388,-0.495C0.378,-0.488 0.366,-0.484 0.351,-0.484C0.344,-0.484 0.337,-0.487 0.332,-0.494C0.328,-0.493 0.323,-0.492 0.316,-0.49C0.309,-0.489 0.302,-0.487 0.294,-0.483C0.286,-0.48 0.278,-0.476 0.269,-0.47C0.261,-0.464 0.253,-0.457 0.247,-0.448C0.236,-0.435 0.228,-0.42 0.222,-0.404C0.217,-0.388 0.212,-0.372 0.209,-0.357C0.206,-0.34 0.204,-0.322 0.203,-0.304L0.194,-0.304ZM0.31,-0.565C0.31,-0.557 0.311,-0.549 0.313,-0.54C0.316,-0.531 0.319,-0.523 0.323,-0.515C0.327,-0.508 0.331,-0.502 0.336,-0.498C0.341,-0.493 0.346,-0.491 0.352,-0.491C0.36,-0.491 0.366,-0.492 0.372,-0.494C0.378,-0.496 0.384,-0.499 0.389,-0.502C0.394,-0.506 0.398,-0.51 0.402,-0.515C0.406,-0.519 0.41,-0.524 0.412,-0.528L0.401,-0.596L0.31,-0.596L0.31,-0.565ZM0.284,-0.658L0.448,-0.658L0.428,-0.608L0.304,-0.608L0.284,-0.658ZM0.545,0.02C0.545,0.016 0.545,0.012 0.546,0.007C0.547,0.003 0.549,-0.001 0.551,-0.004C0.553,-0.007 0.556,-0.01 0.559,-0.012C0.562,-0.014 0.566,-0.015 0.571,-0.015C0.575,-0.015 0.578,-0.014 0.58,-0.013L0.58,-0.002C0.578,-0.004 0.575,-0.005 0.571,-0.005C0.561,-0.005 0.556,0.003 0.556,0.02L0.556,0.082L0.545,0.082L0.545,0.02ZM0.109,-0.715C0.109,-0.711 0.109,-0.706 0.108,-0.702C0.107,-0.698 0.105,-0.695 0.103,-0.691C0.101,-0.688 0.099,-0.685 0.095,-0.683C0.092,-0.682 0.088,-0.681 0.083,-0.681C0.08,-0.681 0.076,-0.681 0.074,-0.682L0.074,-0.693C0.076,-0.691 0.079,-0.69 0.083,-0.69C0.094,-0.69 0.099,-0.699 0.099,-0.715L0.099,-0.777L0.109,-0.777L0.109,-0.715ZM0.381,-0.575C0.385,-0.575 0.389,-0.575 0.391,-0.573C0.394,-0.572 0.396,-0.57 0.396,-0.568C0.396,-0.566 0.394,-0.565 0.391,-0.563C0.389,-0.562 0.385,-0.562 0.381,-0.562C0.377,-0.562 0.373,-0.562 0.37,-0.563C0.368,-0.565 0.366,-0.566 0.366,-0.568C0.366,-0.57 0.368,-0.572 0.37,-0.573C0.373,-0.575 0.377,-0.575 0.381,-0.575ZM0.329,-0.575C0.333,-0.575 0.337,-0.575 0.34,-0.573C0.343,-0.572 0.344,-0.57 0.344,-0.568C0.344,-0.566 0.343,-0.565 0.34,-0.563C0.337,-0.562 0.333,-0.562 0.329,-0.562C0.325,-0.562 0.322,-0.562 0.319,-0.563C0.316,-0.565 0.315,-0.566 0.315,-0.568C0.315,-0.57 0.316,-0.572 0.319,-0.573C0.322,-0.575 0.325,-0.575 0.329,-0.575ZM0.351,-0.564L0.355,-0.564L0.355,-0.534L0.346,-0.534L0.351,-0.564ZM0.338,-0.521L0.371,-0.521L0.371,-0.514L0.338,-0.514L0.338,-0.521ZM0.458,-0.396C0.457,-0.379 0.455,-0.362 0.452,-0.345C0.449,-0.33 0.444,-0.314 0.438,-0.296C0.431,-0.279 0.423,-0.263 0.411,-0.248C0.404,-0.239 0.397,-0.232 0.388,-0.226C0.38,-0.22 0.371,-0.215 0.363,-0.212C0.355,-0.208 0.348,-0.206 0.341,-0.204C0.335,-0.202 0.33,-0.201 0.327,-0.201C0.333,-0.192 0.338,-0.182 0.342,-0.17C0.346,-0.158 0.348,-0.146 0.348,-0.134L0.348,-0.1L0.224,-0.1L0.193,-0.217L0.233,-0.217L0.238,-0.181C0.245,-0.19 0.253,-0.198 0.263,-0.205C0.274,-0.213 0.286,-0.216 0.301,-0.216C0.308,-0.216 0.315,-0.213 0.321,-0.208C0.324,-0.208 0.329,-0.209 0.336,-0.21C0.342,-0.212 0.35,-0.215 0.358,-0.218C0.366,-0.221 0.374,-0.226 0.383,-0.231C0.391,-0.237 0.398,-0.244 0.405,-0.252C0.415,-0.265 0.423,-0.28 0.429,-0.297C0.435,-0.313 0.439,-0.329 0.442,-0.344C0.446,-0.361 0.448,-0.379 0.449,-0.396L0.458,-0.396ZM0.342,-0.136C0.342,-0.144 0.341,-0.152 0.338,-0.161C0.336,-0.17 0.333,-0.178 0.329,-0.185C0.325,-0.193 0.321,-0.199 0.316,-0.203C0.311,-0.208 0.306,-0.21 0.3,-0.21C0.292,-0.21 0.286,-0.209 0.28,-0.207C0.274,-0.205 0.268,-0.202 0.263,-0.198C0.258,-0.195 0.253,-0.191 0.25,-0.187C0.246,-0.182 0.242,-0.177 0.24,-0.172L0.25,-0.105L0.342,-0.105L0.342,-0.136ZM0.368,-0.043L0.204,-0.043L0.224,-0.093L0.348,-0.093L0.368,-0.043ZM0.271,-0.126C0.267,-0.126 0.264,-0.127 0.261,-0.128C0.258,-0.129 0.256,-0.131 0.256,-0.133C0.256,-0.135 0.258,-0.136 0.261,-0.137C0.264,-0.139 0.267,-0.139 0.271,-0.139C0.275,-0.139 0.279,-0.139 0.281,-0.137C0.284,-0.136 0.286,-0.135 0.286,-0.133C0.286,-0.131 0.284,-0.129 0.281,-0.128C0.279,-0.127 0.275,-0.126 0.271,-0.126ZM0.323,-0.126C0.319,-0.126 0.315,-0.127 0.312,-0.128C0.309,-0.129 0.308,-0.131 0.308,-0.133C0.308,-0.135 0.309,-0.136 0.312,-0.137C0.315,-0.139 0.319,-0.139 0.323,-0.139C0.327,-0.139 0.33,-0.139 0.333,-0.137C0.336,-0.136 0.337,-0.135 0.337,-0.133C0.337,-0.131 0.336,-0.129 0.333,-0.128C0.33,-0.127 0.327,-0.126 0.323,-0.126ZM0.301,-0.137L0.296,-0.137L0.296,-0.167L0.307,-0.167L0.301,-0.137ZM0.313,-0.18L0.281,-0.18L0.281,-0.187L0.313,-0.187L0.313,-0.18ZM0.189,-0.604L0.231,-0.665L0.273,-0.604L0.231,-0.544L0.189,-0.604ZM0.07,-0.62L0.098,-0.661L0.125,-0.62L0.098,-0.581L0.07,-0.62ZM0.584,-0.075L0.557,-0.035L0.529,-0.075L0.557,-0.114L0.584,-0.075ZM0.379,-0.097L0.421,-0.158L0.463,-0.097L0.421,-0.037L0.379,-0.097Z" style="fill-rule:nonzero;"/>
            </g>
            <g transform="matrix(143.661,-9.87851,9.87851,143.661,485.486,127.552)">
                <path d="M0.545,0.02C0.545,0.016 0.545,0.012 0.546,0.007C0.547,0.003 0.549,-0.001 0.551,-0.004C0.553,-0.007 0.556,-0.01 0.559,-0.012C0.562,-0.014 0.566,-0.015 0.571,-0.015C0.575,-0.015 0.578,-0.014 0.58,-0.013L0.58,-0.002C0.578,-0.004 0.575,-0.005 0.571,-0.005C0.561,-0.005 0.556,0.003 0.556,0.02L0.556,0.082L0.545,0.082L0.545,0.02ZM0.109,-0.715C0.109,-0.711 0.109,-0.706 0.108,-0.702C0.107,-0.698 0.105,-0.695 0.103,-0.691C0.101,-0.688 0.099,-0.685 0.095,-0.683C0.092,-0.682 0.088,-0.681 0.083,-0.681C0.08,-0.681 0.076,-0.681 0.074,-0.682L0.074,-0.693C0.076,-0.691 0.079,-0.69 0.083,-0.69C0.094,-0.69 0.099,-0.699 0.099,-0.715L0.099,-0.777L0.109,-0.777L0.109,-0.715ZM0.189,-0.604L0.231,-0.665L0.273,-0.604L0.231,-0.544L0.189,-0.604ZM0.07,-0.62L0.098,-0.661L0.125,-0.62L0.098,-0.581L0.07,-0.62ZM0.584,-0.075L0.557,-0.035L0.529,-0.075L0.557,-0.114L0.584,-0.075ZM0.379,-0.097L0.421,-0.158L0.463,-0.097L0.421,-0.037L0.379,-0.097Z" style="fill:rgb(230,26,26);fill-rule:nonzero;"/>
            </g>
        </g>
        <g id="Jack-of-Clubs" serif:id="Jack of Clubs">
            <g transform="matrix(0.847748,0.197277,-0.186474,0.801325,288.561,-80.5244)">
                <rect x="341.611" y="19.633" width="101.907" height="161.656" style="fill:white;"/>
            </g>
            <g transform="matrix(140.28,32.5183,-32.5183,140.28,545.367,115.874)">
                <path d="M0.636,-0.812L0.636,0.112L0.02,0.112L0.02,-0.812L0.636,-0.812ZM0.042,0.089L0.613,0.089L0.613,-0.79L0.042,-0.79L0.042,0.089ZM0.503,-0.692L0.503,-0.008L0.152,-0.008L0.152,-0.692L0.503,-0.692ZM0.173,-0.671L0.173,-0.029L0.482,-0.029L0.482,-0.671L0.173,-0.671ZM0.194,-0.304C0.195,-0.321 0.197,-0.339 0.2,-0.356C0.203,-0.371 0.208,-0.388 0.214,-0.405C0.22,-0.422 0.229,-0.438 0.241,-0.453C0.248,-0.462 0.256,-0.469 0.264,-0.475C0.272,-0.481 0.28,-0.486 0.289,-0.489C0.297,-0.493 0.304,-0.495 0.311,-0.497C0.317,-0.499 0.322,-0.5 0.325,-0.5C0.319,-0.509 0.314,-0.519 0.31,-0.531C0.306,-0.543 0.304,-0.555 0.304,-0.567L0.304,-0.601L0.428,-0.601L0.458,-0.484L0.419,-0.484L0.414,-0.52C0.407,-0.511 0.399,-0.503 0.388,-0.495C0.378,-0.488 0.366,-0.484 0.351,-0.484C0.344,-0.484 0.337,-0.487 0.332,-0.494C0.328,-0.493 0.323,-0.492 0.316,-0.49C0.309,-0.489 0.302,-0.487 0.294,-0.483C0.286,-0.48 0.278,-0.476 0.269,-0.47C0.261,-0.464 0.253,-0.457 0.247,-0.448C0.236,-0.435 0.228,-0.42 0.222,-0.404C0.217,-0.388 0.212,-0.372 0.209,-0.357C0.206,-0.34 0.204,-0.322 0.203,-0.304L0.194,-0.304ZM0.31,-0.565C0.31,-0.557 0.311,-0.549 0.313,-0.54C0.316,-0.531 0.319,-0.523 0.323,-0.515C0.327,-0.508 0.331,-0.502 0.336,-0.498C0.341,-0.493 0.346,-0.491 0.352,-0.491C0.36,-0.491 0.366,-0.492 0.372,-0.494C0.378,-0.496 0.384,-0.499 0.389,-0.502C0.394,-0.506 0.398,-0.51 0.402,-0.515C0.406,-0.519 0.41,-0.524 0.412,-0.528L0.401,-0.596L0.31,-0.596L0.31,-0.565ZM0.284,-0.658L0.448,-0.658L0.428,-0.608L0.304,-0.608L0.284,-0.658ZM0.545,0.02C0.545,0.016 0.545,0.012 0.546,0.007C0.547,0.003 0.549,-0.001 0.551,-0.004C0.553,-0.007 0.556,-0.01 0.559,-0.012C0.562,-0.014 0.566,-0.015 0.571,-0.015C0.575,-0.015 0.578,-0.014 0.58,-0.013L0.58,-0.002C0.578,-0.004 0.575,-0.005 0.571,-0.005C0.561,-0.005 0.556,0.003 0.556,0.02L0.556,0.082L0.545,0.082L0.545,0.02ZM0.109,-0.715C0.109,-0.711 0.109,-0.706 0.108,-0.702C0.107,-0.698 0.105,-0.695 0.103,-0.691C0.101,-0.688 0.099,-0.685 0.095,-0.683C0.092,-0.682 0.088,-0.681 0.083,-0.681C0.08,-0.681 0.076,-0.681 0.074,-0.682L0.074,-0.693C0.076,-0.691 0.079,-0.69 0.083,-0.69C0.094,-0.69 0.099,-0.699 0.099,-0.715L0.099,-0.777L0.109,-0.777L0.109,-0.715ZM0.381,-0.575C0.385,-0.575 0.389,-0.575 0.391,-0.573C0.394,-0.572 0.396,-0.57 0.396,-0.568C0.396,-0.566 0.394,-0.565 0.391,-0.563C0.389,-0.562 0.385,-0.562 0.381,-0.562C0.377,-0.562 0.373,-0.562 0.37,-0.563C0.368,-0.565 0.366,-0.566 0.366,-0.568C0.366,-0.57 0.368,-0.572 0.37,-0.573C0.373,-0.575 0.377,-0.575 0.381,-0.575ZM0.329,-0.575C0.333,-0.575 0.337,-0.575 0.34,-0.573C0.343,-0.572 0.344,-0.57 0.344,-0.568C0.344,-0.566 0.343,-0.565 0.34,-0.563C0.337,-0.562 0.333,-0.562 0.329,-0.562C0.325,-0.562 0.322,-0.562 0.319,-0.563C0.316,-0.565 0.315,-0.566 0.315,-0.568C0.315,-0.57 0.316,-0.572 0.319,-0.573C0.322,-0.575 0.325,-0.575 0.329,-0.575ZM0.351,-0.564L0.355,-0.564L0.355,-0.534L0.346,-0.534L0.351,-0.564ZM0.338,-0.521L0.371,-0.521L0.371,-0.514L0.338,-0.514L0.338,-0.521ZM0.458,-0.396C0.457,-0.379 0.455,-0.362 0.452,-0.345C0.449,-0.33 0.444,-0.314 0.438,-0.296C0.431,-0.279 0.423,-0.263 0.411,-0.248C0.404,-0.239 0.397,-0.232 0.388,-0.226C0.38,-0.22 0.371,-0.215 0.363,-0.212C0.355,-0.208 0.348,-0.206 0.341,-0.204C0.335,-0.202 0.33,-0.201 0.327,-0.201C0.333,-0.192 0.338,-0.182 0.342,-0.17C0.346,-0.158 0.348,-0.146 0.348,-0.134L0.348,-0.1L0.224,-0.1L0.193,-0.217L0.233,-0.217L0.238,-0.181C0.245,-0.19 0.253,-0.198 0.263,-0.205C0.274,-0.213 0.286,-0.216 0.301,-0.216C0.308,-0.216 0.315,-0.213 0.321,-0.208C0.324,-0.208 0.329,-0.209 0.336,-0.21C0.342,-0.212 0.35,-0.215 0.358,-0.218C0.366,-0.221 0.374,-0.226 0.383,-0.231C0.391,-0.237 0.398,-0.244 0.405,-0.252C0.415,-0.265 0.423,-0.28 0.429,-0.297C0.435,-0.313 0.439,-0.329 0.442,-0.344C0.446,-0.361 0.448,-0.379 0.449,-0.396L0.458,-0.396ZM0.342,-0.136C0.342,-0.144 0.341,-0.152 0.338,-0.161C0.336,-0.17 0.333,-0.178 0.329,-0.185C0.325,-0.193 0.321,-0.199 0.316,-0.203C0.311,-0.208 0.306,-0.21 0.3,-0.21C0.292,-0.21 0.286,-0.209 0.28,-0.207C0.274,-0.205 0.268,-0.202 0.263,-0.198C0.258,-0.195 0.253,-0.191 0.25,-0.187C0.246,-0.182 0.242,-0.177 0.24,-0.172L0.25,-0.105L0.342,-0.105L0.342,-0.136ZM0.368,-0.043L0.204,-0.043L0.224,-0.093L0.348,-0.093L0.368,-0.043ZM0.271,-0.126C0.267,-0.126 0.264,-0.127 0.261,-0.128C0.258,-0.129 0.256,-0.131 0.256,-0.133C0.256,-0.135 0.258,-0.136 0.261,-0.137C0.264,-0.139 0.267,-0.139 0.271,-0.139C0.275,-0.139 0.279,-0.139 0.281,-0.137C0.284,-0.136 0.286,-0.135 0.286,-0.133C0.286,-0.131 0.284,-0.129 0.281,-0.128C0.279,-0.127 0.275,-0.126 0.271,-0.126ZM0.323,-0.126C0.319,-0.126 0.315,-0.127 0.312,-0.128C0.309,-0.129 0.308,-0.131 0.308,-0.133C0.308,-0.135 0.309,-0.136 0.312,-0.137C0.315,-0.139 0.319,-0.139 0.323,-0.139C0.327,-0.139 0.33,-0.139 0.333,-0.137C0.336,-0.136 0.337,-0.135 0.337,-0.133C0.337,-0.131 0.336,-0.129 0.333,-0.128C0.33,-0.127 0.327,-0.126 0.323,-0.126ZM0.301,-0.137L0.296,-0.137L0.296,-0.167L0.307,-0.167L0.301,-0.137ZM0.313,-0.18L0.281,-0.18L0.281,-0.187L0.313,-0.187L0.313,-0.18ZM0.209,-0.545L0.209,-0.552C0.212,-0.555 0.215,-0.559 0.218,-0.563C0.22,-0.568 0.221,-0.574 0.221,-0.582C0.219,-0.58 0.217,-0.579 0.215,-0.578C0.213,-0.578 0.21,-0.577 0.207,-0.577C0.2,-0.577 0.194,-0.579 0.189,-0.584C0.184,-0.589 0.181,-0.595 0.181,-0.603C0.181,-0.61 0.184,-0.616 0.188,-0.621C0.193,-0.626 0.199,-0.628 0.207,-0.628C0.206,-0.63 0.206,-0.631 0.206,-0.633C0.205,-0.634 0.205,-0.635 0.205,-0.637C0.205,-0.644 0.207,-0.65 0.212,-0.655C0.217,-0.66 0.223,-0.663 0.231,-0.663C0.238,-0.663 0.245,-0.66 0.249,-0.655C0.254,-0.65 0.256,-0.644 0.256,-0.637C0.256,-0.635 0.256,-0.634 0.256,-0.633C0.256,-0.631 0.255,-0.63 0.254,-0.628C0.262,-0.628 0.268,-0.626 0.273,-0.621C0.278,-0.616 0.28,-0.61 0.28,-0.603C0.28,-0.595 0.278,-0.589 0.273,-0.584C0.268,-0.579 0.262,-0.577 0.254,-0.577C0.251,-0.577 0.248,-0.578 0.246,-0.578C0.244,-0.579 0.242,-0.58 0.24,-0.582C0.24,-0.574 0.241,-0.568 0.244,-0.563C0.246,-0.558 0.249,-0.554 0.252,-0.552L0.252,-0.545L0.209,-0.545ZM0.083,-0.581L0.083,-0.585C0.085,-0.587 0.087,-0.59 0.089,-0.593C0.09,-0.596 0.091,-0.6 0.091,-0.605C0.089,-0.604 0.085,-0.603 0.082,-0.603C0.077,-0.603 0.073,-0.604 0.069,-0.607C0.066,-0.61 0.064,-0.614 0.064,-0.62C0.064,-0.625 0.066,-0.629 0.069,-0.632C0.072,-0.635 0.076,-0.637 0.081,-0.637C0.08,-0.639 0.08,-0.641 0.08,-0.643C0.08,-0.648 0.082,-0.652 0.085,-0.656C0.088,-0.659 0.092,-0.661 0.098,-0.661C0.103,-0.661 0.107,-0.659 0.11,-0.656C0.114,-0.652 0.115,-0.648 0.115,-0.643C0.115,-0.641 0.115,-0.639 0.114,-0.637C0.119,-0.637 0.124,-0.635 0.127,-0.632C0.13,-0.629 0.132,-0.625 0.132,-0.62C0.132,-0.614 0.13,-0.61 0.127,-0.607C0.123,-0.604 0.119,-0.603 0.114,-0.603C0.11,-0.603 0.107,-0.604 0.104,-0.605C0.104,-0.6 0.105,-0.596 0.107,-0.593C0.108,-0.589 0.111,-0.587 0.113,-0.585L0.113,-0.581L0.083,-0.581ZM0.571,-0.114L0.571,-0.11C0.569,-0.108 0.567,-0.106 0.565,-0.102C0.564,-0.099 0.563,-0.095 0.563,-0.09C0.566,-0.092 0.569,-0.093 0.573,-0.093C0.578,-0.093 0.582,-0.091 0.585,-0.088C0.589,-0.085 0.59,-0.081 0.59,-0.075C0.59,-0.071 0.589,-0.067 0.585,-0.063C0.582,-0.06 0.578,-0.058 0.573,-0.058C0.574,-0.056 0.574,-0.054 0.574,-0.052C0.574,-0.047 0.573,-0.043 0.569,-0.04C0.566,-0.036 0.562,-0.035 0.557,-0.035C0.551,-0.035 0.547,-0.036 0.544,-0.04C0.541,-0.043 0.539,-0.047 0.539,-0.052C0.539,-0.054 0.539,-0.056 0.54,-0.058C0.535,-0.058 0.531,-0.06 0.527,-0.063C0.524,-0.067 0.522,-0.071 0.522,-0.075C0.522,-0.081 0.524,-0.085 0.528,-0.088C0.531,-0.091 0.536,-0.093 0.541,-0.093C0.544,-0.093 0.548,-0.092 0.55,-0.09C0.55,-0.095 0.549,-0.099 0.548,-0.103C0.546,-0.106 0.544,-0.109 0.542,-0.11L0.542,-0.114L0.571,-0.114ZM0.443,-0.155L0.443,-0.149C0.44,-0.146 0.437,-0.142 0.434,-0.137C0.432,-0.132 0.431,-0.126 0.431,-0.119C0.433,-0.121 0.435,-0.122 0.437,-0.123C0.439,-0.124 0.442,-0.124 0.445,-0.124C0.452,-0.124 0.458,-0.122 0.463,-0.117C0.468,-0.113 0.471,-0.106 0.471,-0.098C0.471,-0.091 0.468,-0.085 0.464,-0.08C0.459,-0.076 0.453,-0.073 0.445,-0.073C0.446,-0.071 0.446,-0.07 0.446,-0.069C0.447,-0.067 0.447,-0.066 0.447,-0.064C0.447,-0.057 0.444,-0.051 0.44,-0.046C0.435,-0.041 0.429,-0.039 0.421,-0.039C0.413,-0.039 0.407,-0.041 0.403,-0.046C0.398,-0.051 0.396,-0.057 0.396,-0.064C0.396,-0.066 0.396,-0.067 0.396,-0.069C0.396,-0.07 0.397,-0.071 0.397,-0.073C0.39,-0.073 0.383,-0.076 0.379,-0.08C0.374,-0.085 0.372,-0.091 0.372,-0.098C0.372,-0.106 0.374,-0.113 0.379,-0.117C0.384,-0.122 0.39,-0.124 0.397,-0.124C0.401,-0.124 0.403,-0.124 0.406,-0.123C0.408,-0.122 0.41,-0.121 0.412,-0.119C0.412,-0.126 0.411,-0.132 0.408,-0.138C0.406,-0.143 0.403,-0.147 0.4,-0.149L0.4,-0.155L0.443,-0.155Z" style="fill-rule:nonzero;"/>
            </g>
        </g>
        <g id="Jack-of-Spades" serif:id="Jack of Spades" transform="matrix(1,0,0,1,-2.85176,0)">
            <g transform="matrix(0.787561,0.370598,-0.350304,0.744434,402.438,-117.616)">
                <rect x="341.611" y="19.633" width="101.907" height="161.656" style="fill:white;"/>
            </g>
            <g transform="matrix(130.246,61.4166,-61.4166,130.246,612.154,128.126)">
                <path d="M0.636,-0.812L0.636,0.112L0.02,0.112L0.02,-0.812L0.636,-0.812ZM0.042,0.089L0.613,0.089L0.613,-0.79L0.042,-0.79L0.042,0.089ZM0.503,-0.692L0.503,-0.008L0.152,-0.008L0.152,-0.692L0.503,-0.692ZM0.173,-0.671L0.173,-0.029L0.482,-0.029L0.482,-0.671L0.173,-0.671ZM0.368,-0.594L0.355,-0.49C0.34,-0.49 0.327,-0.489 0.316,-0.487C0.304,-0.485 0.294,-0.481 0.285,-0.477C0.276,-0.473 0.268,-0.469 0.262,-0.464C0.256,-0.459 0.251,-0.454 0.247,-0.448C0.236,-0.435 0.228,-0.42 0.222,-0.404C0.217,-0.388 0.212,-0.372 0.209,-0.357C0.206,-0.34 0.204,-0.322 0.203,-0.304L0.194,-0.304C0.195,-0.321 0.197,-0.339 0.2,-0.356C0.203,-0.371 0.208,-0.388 0.214,-0.405C0.22,-0.422 0.229,-0.438 0.241,-0.453C0.247,-0.461 0.253,-0.467 0.26,-0.472C0.268,-0.478 0.275,-0.482 0.283,-0.486L0.304,-0.601L0.428,-0.601L0.43,-0.576L0.425,-0.57L0.437,-0.55L0.437,-0.546L0.424,-0.543L0.426,-0.536L0.417,-0.532L0.424,-0.528L0.415,-0.504L0.385,-0.502L0.39,-0.488L0.453,-0.468L0.453,-0.459L0.383,-0.482L0.376,-0.507L0.409,-0.509L0.417,-0.527L0.41,-0.533L0.419,-0.537L0.417,-0.547L0.429,-0.549L0.417,-0.57L0.422,-0.577L0.42,-0.594L0.368,-0.594ZM0.252,-0.545L0.209,-0.545L0.209,-0.552C0.213,-0.555 0.216,-0.559 0.218,-0.563C0.22,-0.568 0.221,-0.572 0.221,-0.576C0.217,-0.572 0.212,-0.571 0.206,-0.571C0.199,-0.571 0.194,-0.573 0.189,-0.578C0.184,-0.583 0.181,-0.589 0.181,-0.598C0.181,-0.606 0.183,-0.613 0.187,-0.619C0.191,-0.625 0.195,-0.631 0.2,-0.636C0.205,-0.642 0.211,-0.647 0.217,-0.652C0.222,-0.656 0.227,-0.661 0.23,-0.665C0.234,-0.661 0.239,-0.656 0.244,-0.652C0.25,-0.647 0.256,-0.642 0.261,-0.637C0.266,-0.632 0.27,-0.626 0.274,-0.619C0.278,-0.613 0.28,-0.606 0.28,-0.598C0.28,-0.589 0.277,-0.583 0.272,-0.578C0.267,-0.573 0.262,-0.571 0.255,-0.571C0.249,-0.571 0.244,-0.572 0.24,-0.576C0.24,-0.572 0.241,-0.568 0.243,-0.563C0.245,-0.559 0.248,-0.555 0.252,-0.552L0.252,-0.545ZM0.4,-0.155L0.443,-0.155L0.443,-0.149C0.439,-0.146 0.436,-0.142 0.434,-0.137C0.432,-0.133 0.431,-0.129 0.431,-0.125C0.435,-0.128 0.44,-0.13 0.446,-0.13C0.452,-0.13 0.458,-0.128 0.463,-0.123C0.468,-0.118 0.471,-0.112 0.471,-0.103C0.471,-0.095 0.469,-0.088 0.465,-0.082C0.461,-0.075 0.457,-0.07 0.452,-0.064C0.446,-0.059 0.441,-0.054 0.435,-0.049C0.43,-0.045 0.425,-0.04 0.421,-0.036C0.417,-0.04 0.413,-0.045 0.407,-0.049C0.402,-0.054 0.396,-0.059 0.391,-0.064C0.386,-0.069 0.381,-0.075 0.378,-0.082C0.374,-0.088 0.372,-0.095 0.372,-0.103C0.372,-0.112 0.375,-0.118 0.38,-0.123C0.385,-0.128 0.39,-0.13 0.396,-0.13C0.403,-0.13 0.408,-0.128 0.412,-0.125C0.412,-0.129 0.411,-0.133 0.409,-0.137C0.407,-0.142 0.404,-0.146 0.4,-0.149L0.4,-0.155ZM0.284,-0.658L0.448,-0.658L0.428,-0.608L0.304,-0.608L0.284,-0.658ZM0.112,-0.581L0.083,-0.581L0.083,-0.585C0.086,-0.588 0.088,-0.59 0.089,-0.593C0.09,-0.596 0.091,-0.599 0.091,-0.601C0.089,-0.599 0.086,-0.598 0.081,-0.598C0.077,-0.598 0.073,-0.599 0.07,-0.603C0.066,-0.606 0.064,-0.611 0.064,-0.617C0.064,-0.622 0.066,-0.626 0.068,-0.63C0.071,-0.635 0.074,-0.639 0.077,-0.642C0.081,-0.646 0.084,-0.649 0.088,-0.652C0.092,-0.655 0.095,-0.658 0.098,-0.661C0.1,-0.658 0.103,-0.655 0.107,-0.652C0.111,-0.649 0.115,-0.646 0.118,-0.642C0.122,-0.639 0.125,-0.635 0.127,-0.631C0.13,-0.627 0.131,-0.622 0.131,-0.617C0.131,-0.611 0.129,-0.606 0.126,-0.603C0.122,-0.599 0.118,-0.598 0.114,-0.598C0.11,-0.598 0.106,-0.599 0.104,-0.601C0.104,-0.599 0.105,-0.596 0.106,-0.593C0.107,-0.59 0.109,-0.588 0.112,-0.585L0.112,-0.581ZM0.542,-0.114L0.571,-0.114L0.571,-0.11C0.568,-0.108 0.566,-0.105 0.565,-0.102C0.564,-0.099 0.564,-0.097 0.563,-0.094C0.566,-0.096 0.569,-0.097 0.573,-0.097C0.577,-0.097 0.581,-0.096 0.585,-0.093C0.588,-0.089 0.59,-0.085 0.59,-0.079C0.59,-0.074 0.589,-0.069 0.586,-0.065C0.584,-0.06 0.581,-0.056 0.577,-0.053C0.574,-0.049 0.57,-0.046 0.566,-0.043C0.562,-0.04 0.559,-0.037 0.557,-0.034C0.554,-0.037 0.551,-0.04 0.548,-0.043C0.544,-0.046 0.54,-0.049 0.536,-0.053C0.533,-0.056 0.53,-0.06 0.527,-0.064C0.525,-0.069 0.523,-0.073 0.523,-0.079C0.523,-0.085 0.525,-0.089 0.529,-0.093C0.532,-0.096 0.536,-0.097 0.54,-0.097C0.545,-0.097 0.549,-0.096 0.551,-0.094C0.55,-0.097 0.55,-0.099 0.548,-0.102C0.547,-0.105 0.545,-0.108 0.542,-0.11L0.542,-0.114ZM0.545,0.02C0.545,0.016 0.545,0.012 0.546,0.007C0.547,0.003 0.549,-0.001 0.551,-0.004C0.553,-0.007 0.556,-0.01 0.559,-0.012C0.562,-0.014 0.566,-0.015 0.571,-0.015C0.575,-0.015 0.578,-0.014 0.58,-0.013L0.58,-0.002C0.578,-0.004 0.575,-0.005 0.571,-0.005C0.561,-0.005 0.556,0.003 0.556,0.02L0.556,0.082L0.545,0.082L0.545,0.02ZM0.109,-0.715C0.109,-0.711 0.109,-0.706 0.108,-0.702C0.107,-0.698 0.105,-0.695 0.103,-0.691C0.101,-0.688 0.099,-0.685 0.095,-0.683C0.092,-0.682 0.088,-0.681 0.083,-0.681C0.08,-0.681 0.076,-0.681 0.074,-0.682L0.074,-0.693C0.076,-0.691 0.079,-0.69 0.083,-0.69C0.094,-0.69 0.099,-0.699 0.099,-0.715L0.099,-0.777L0.109,-0.777L0.109,-0.715ZM0.386,-0.566L0.414,-0.569L0.401,-0.558L0.386,-0.566ZM0.284,-0.107L0.296,-0.21C0.311,-0.21 0.325,-0.212 0.336,-0.214C0.348,-0.217 0.358,-0.22 0.367,-0.224C0.376,-0.228 0.383,-0.232 0.39,-0.237C0.396,-0.242 0.401,-0.247 0.405,-0.252C0.415,-0.265 0.423,-0.28 0.429,-0.297C0.435,-0.313 0.439,-0.329 0.442,-0.344C0.446,-0.361 0.448,-0.379 0.449,-0.396L0.458,-0.396C0.457,-0.379 0.455,-0.362 0.452,-0.345C0.449,-0.33 0.444,-0.314 0.438,-0.296C0.431,-0.279 0.423,-0.263 0.411,-0.248C0.405,-0.241 0.399,-0.234 0.391,-0.229C0.384,-0.223 0.377,-0.219 0.369,-0.215L0.348,-0.1L0.224,-0.1L0.222,-0.125L0.227,-0.131L0.215,-0.151L0.215,-0.155L0.228,-0.158L0.227,-0.165L0.235,-0.169L0.228,-0.173L0.238,-0.196L0.267,-0.199L0.263,-0.213L0.199,-0.233L0.199,-0.242L0.269,-0.219L0.275,-0.194L0.243,-0.191L0.235,-0.174L0.242,-0.168L0.233,-0.164L0.234,-0.154L0.224,-0.152L0.235,-0.131L0.229,-0.125L0.231,-0.107L0.284,-0.107ZM0.368,-0.043L0.204,-0.043L0.224,-0.093L0.348,-0.093L0.368,-0.043ZM0.266,-0.135L0.238,-0.132L0.251,-0.143L0.266,-0.135Z" style="fill-rule:nonzero;"/>
            </g>
        </g>
    </g>
</svg>
