<?xml version="1.0" encoding="UTF-8" standalone="no"?>
<!DOCTYPE svg PUBLIC "-//W3C//DTD SVG 1.1//EN" "http://www.w3.org/Graphics/SVG/1.1/DTD/svg11.dtd">
<svg width="100%" height="100%" viewBox="0 0 88 28" version="1.1" xmlns="http://www.w3.org/2000/svg" xmlns:xlink="http://www.w3.org/1999/xlink" xml:space="preserve" xmlns:serif="http://www.serif.com/" style="fill-rule:evenodd;clip-rule:evenodd;stroke-linecap:round;stroke-linejoin:round;stroke-miterlimit:1.5;">
    <g id="right-hand" serif:id="right hand" transform="matrix(1,0,0,1,-532.502,-192.932)">
        <path d="M558.92,193.432C561.628,195.442 566.812,198.547 573.334,199.022C585.499,199.91 590.695,196.995 598.805,201.303C606.915,205.612 614.685,207.643 617.346,210.938C620.007,214.233 621.274,220.949 612.53,220.316C603.786,219.682 597.577,218.668 589.467,218.542C581.356,218.415 568.898,217.397 555.973,216.764C543.047,216.13 541.146,215.243 537.217,212.582C533.289,209.921 534.799,211.312 534.196,205.338C533.923,202.626 533.17,201.884 533.002,201.703" style="fill:rgb(246,185,133);stroke:black;stroke-width:1px;"/>
    </g>
</svg>
