<?xml version="1.0" encoding="UTF-8" standalone="no"?>
<!DOCTYPE svg PUBLIC "-//W3C//DTD SVG 1.1//EN" "http://www.w3.org/Graphics/SVG/1.1/DTD/svg11.dtd">
<svg width="100%" height="100%" viewBox="0 0 95 110" version="1.1" xmlns="http://www.w3.org/2000/svg" xmlns:xlink="http://www.w3.org/1999/xlink" xml:space="preserve" xmlns:serif="http://www.serif.com/" style="fill-rule:evenodd;clip-rule:evenodd;stroke-linecap:round;stroke-linejoin:round;stroke-miterlimit:1.5;">
    <g id="underwear-2" serif:id="underwear 2" transform="matrix(1,0,0,1,-413.425,-124.427)">
        <path d="M500.683,149.774C499.656,174.362 507.633,227.762 507.633,227.762C507.633,227.762 481.289,230.484 446.285,233.906C449.276,221.603 451.828,188.28 421.683,178.721C422.561,178.819 418.737,178.08 414.188,178.116C414.164,177.596 413.883,177.221 413.93,176.854C429.476,172.679 443.13,158.052 453.596,145.819C462.005,135.991 469.136,128.196 467.642,124.927C482.644,147.57 493.223,143.741 500.421,142.08C500.42,142.099 500.425,142.129 500.425,142.171C500.427,144.722 500.483,148.828 500.683,149.774Z" style="fill:rgb(232,129,211);"/>
        <clipPath id="_clip1">
            <path d="M500.683,149.774C499.656,174.362 507.633,227.762 507.633,227.762C507.633,227.762 481.289,230.484 446.285,233.906C449.276,221.603 451.828,188.28 421.683,178.721C422.561,178.819 418.737,178.08 414.188,178.116C414.164,177.596 413.883,177.221 413.93,176.854C429.476,172.679 443.13,158.052 453.596,145.819C462.005,135.991 469.136,128.196 467.642,124.927C482.644,147.57 493.223,143.741 500.421,142.08C500.42,142.099 500.425,142.129 500.425,142.171C500.427,144.722 500.483,148.828 500.683,149.774Z"/>
        </clipPath>
        <g clip-path="url(#_clip1)">
            <g opacity="0.5">
                <path d="M413.248,178.215C413.248,178.215 451.374,181.752 468.441,196.172" style="fill:none;stroke:black;stroke-width:1px;"/>
            </g>
            <g transform="matrix(1,0,0,1,-2.0983,0.227866)">
                <path d="M495.839,140.588C492.108,160.984 495.989,193.686 500.734,230.681L515.816,230.284L507.349,135.561L495.839,140.588Z" style="fill:rgb(192,90,172);stroke:black;stroke-width:1px;"/>
            </g>
        </g>
        <path d="M500.683,149.774C499.656,174.362 507.633,227.762 507.633,227.762C507.633,227.762 481.289,230.484 446.285,233.906C449.276,221.603 451.828,188.28 421.683,178.721C422.561,178.819 418.737,178.08 414.188,178.116C414.164,177.596 413.883,177.221 413.93,176.854C429.476,172.679 443.13,158.052 453.596,145.819C462.005,135.991 469.136,128.196 467.642,124.927C482.644,147.57 493.223,143.741 500.421,142.08C500.42,142.099 500.425,142.129 500.425,142.171C500.427,144.722 500.483,148.828 500.683,149.774Z" style="fill:none;stroke:black;stroke-width:1px;"/>
    </g>
</svg>
