<svg width="751px" height="214px" version="1.1" xmlns="http://www.w3.org/2000/svg" xmlns:xlink="http://www.w3.org/1999/xlink" xml:space="preserve" xmlns:serif="http://www.serif.com/" style="fill-rule:evenodd;clip-rule:evenodd;stroke-linecap:round;stroke-linejoin:round;stroke-miterlimit:1.5;">
    <g id="body" transform="matrix(1,0,0,1,-62.7333,-29.9437)">
        <path id="legs" d="M482.831,130.109C450.699,128.387 364.729,39.599 338.634,44.618C326.452,46.961 305.442,84.273 292.856,111.744C279.31,141.31 264.791,188.666 266.527,184.655C266.728,184.19 312.013,184.703 311.174,185.458L320.096,164.878L345.58,114.357L408.019,179.013L428.308,177.996C415.2,178.112 359.082,182.463 346.53,184.422C335.745,186.105 324.58,185.777 313.6,185.514C311.227,185.458 308.862,185.404 306.511,185.374C287.72,185.138 279.707,184.325 260.919,184.751C235.091,185.335 163.04,196.247 173.742,194.749C165.227,195.941 131.425,198.989 114.243,198.5C109.83,198.375 104.048,200.207 102.975,199.135C97.726,193.885 88.675,173.93 88.309,160.607C88.17,155.548 86.613,145.898 88.756,138.31C90.73,131.323 85.997,119.768 77.525,125.849C69.677,131.482 67.531,156.452 66.165,163.075C63.966,173.733 65.083,184.378 63.566,195.063C62.424,203.103 64.639,207.697 64.046,215.874C62.907,231.573 66.88,231.998 73.177,232.456C78.637,232.853 79.183,230.228 107.476,232.448C129.167,234.151 138.577,236.866 160.372,237.269C174.363,237.527 188.442,238.056 202.436,237.968C221.448,237.847 382.762,239.001 401.762,239.668C415.974,239.273 430.109,237.513 444.323,237.015C457.164,236.565 473.441,235.943 486.294,235.473" style="fill:#f6b985;stroke:#000;stroke-width:1px;"/>
        <path id="torso" d="M482.869,235.598C484.198,235.549 485.526,235.501 486.855,235.453C501.455,234.927 516.055,234.449 530.644,234.129C543.914,233.839 557.196,234.177 570.463,233.844C578.624,233.64 587.46,232.365 595.629,231.715C596.949,231.61 634.402,232.542 645.427,221.73C669.476,198.147 682.167,143.675 682.167,143.675C682.167,143.675 678.719,138.063 684.855,133.06C693.495,126.017 698.382,115.454 702.993,112.668C712.179,107.116 643.324,96.6 643.324,96.6C643.324,96.6 628.659,90.302 618.636,76.93C607.215,61.694 520.754,124.771 520.754,124.771L508.133,127.018C506.398,127.31 504.741,127.553 503.134,127.765C495.916,128.715 489.808,128.979 481.981,130.243" style="fill:#f6b985;stroke:#000;stroke-width:1px;"/>
        <path id="head" d="M726.562,98.624C731.959,95.602 732.407,95.803 735.218,89.727C735.934,88.178 736.409,86.51 736.748,84.841C737.873,79.29 737.633,73.621 737.583,67.989C737.536,62.719 737.689,57.356 735.504,52.441C730.127,40.345 715.507,29.413 701.878,30.521C694.092,31.154 686.14,35.979 680.176,40.797C676.976,43.382 674.14,46.34 671.137,49.139C669.113,51.026 666.835,52.613 664.821,54.5C661.535,57.579 658.73,61.076 655.789,64.471C653.023,67.663 649.707,70.689 647.563,74.356C645.95,77.115 645.123,80.248 644.487,83.354C643.555,87.903 642.948,92.67 643.587,97.295C644.842,106.383 647.722,114.083 656.967,115.53C664.977,116.784 679.06,120.206 688.1,117.577C691.842,116.489 697.979,116.327 701.376,114.353" style="fill:#f6b985;stroke:#000;stroke-width:1px;"/>
        <g id="right-arm" serif:id="right arm" transform="matrix(1,0,0,1,-0.413261,0.413261)">
            <path d="M636.721,229.949C640.011,229.972 640.486,227.541 643.093,226.435C654.611,221.547 668.62,209.935 682.963,209.99C688.032,210.009 711.139,223.742 725.398,227.312C739.09,230.74 754.396,231.443 768.512,231.41C778.057,231.387 787.648,231.803 797.143,230.822C799.02,230.628 800.537,229.114 802.019,227.946C804.642,225.879 806.976,223.467 809.397,221.166C810.142,220.459 813.592,217.311 812.874,215.661C809.492,207.894 805.198,200.527 800.659,193.374C787.763,173.051 776.596,155.089 760.622,138.146C760.326,137.832 733.316,114.077 733.316,114.077L713.22,122.852L716.346,126.072C716.346,126.072 721.929,134.811 722.535,135.515C729.313,143.394 730.177,149.88 734.856,158.434C741.644,170.844 751.183,182.383 758.987,195.284C763.002,201.92 765.171,201.685 770.023,207.583C768.351,206.009 757.374,196.33 757.72,192.478C748.412,195.569 726.604,176.127 706.945,165.61C691.162,157.167 680.91,142.973 682.03,135.884" style="fill:#f6b985;stroke:#000;stroke-width:1px;"/>
        </g>
        <path id="left-arm" serif:id="left arm" d="M593.288,103.419C589.993,107.818 563.324,129.723 557.199,133.707L552.632,127.811C554.417,130.298 558.325,134.913 559.708,137.662C561.278,140.781 571.52,150.375 580.021,161.366C592.202,177.114 606.936,200.233 606.936,200.233C611.574,205.379 616.035,210.004 621.795,213.903C626.16,216.858 631.29,218.871 635.2,222.458C638.233,225.241 660.143,234.182 660.127,238.586C660.115,242.094 644.061,240.219 641.012,241.164C635.875,242.757 626.531,242.269 621.192,242.426C616.084,242.576 610.551,243.195 605.665,241.401C602.02,240.063 599.328,237.27 596.837,234.398C592.038,228.866 588.442,223.114 585.978,216.155C585.978,216.155 582.932,211.263 581.103,209.456C578.105,206.492 574.346,204.122 570.985,201.583C566.033,197.843 545.05,184.116 530.174,168.554C515.399,153.097 506.715,135.797 506.402,134.341C505.584,130.54 509.241,125.382 510.766,121.928C511.498,120.272 524.508,106.003 544.824,90.391C562.198,77.04 581.737,67.394 585.294,66.847C587.029,66.581 588.693,66.388 590.29,66.266C603.959,65.223 612.706,69.375 618.636,76.93" style="fill:#f6b985;stroke:#000;stroke-width:1px;"/>
    </g>
</svg>
