<svg width="105" height="69" viewBox="0 0 105 69" version="1.1" xmlns="http://www.w3.org/2000/svg" xmlns:xlink="http://www.w3.org/1999/xlink" xml:space="preserve" xmlns:serif="http://www.serif.com/" style="fill-rule:evenodd;clip-rule:evenodd;stroke-linejoin:round;stroke-miterlimit:2;">
    <g id="north-cap" serif:id="north cap" transform="matrix(1.04526,0.216314,-0.216314,1.04526,-651.625,-183.863)">
        <g id="hat" transform="matrix(1,0,0,1,74.4752,-146.006)">
            <path d="M606.437,181.98C610.951,180.038 617.449,179.476 623.651,178.327C632.487,176.691 640.957,177.748 646.592,181.675C649.462,183.676 651.714,186.591 653.446,189.983C655.174,193.369 656.34,197.303 657.697,200.357C659.334,204.04 661.432,209.459 662.24,214.609C662.967,219.242 662.615,223.699 660.996,227.24C657.37,235.173 647.444,233.862 642.124,232.737C633.759,228.999 634.612,228.771 630.709,227.396C626.826,226.028 622.588,225.339 618.706,224.487C616.491,224 616.265,220.143 606.312,218.197C607.154,207.015 595.067,202.739 593.258,200.435C588.476,198.539 591.192,200.003 588.688,202.764C587.608,203.956 578.887,202.059 577.165,203.982C570.564,204.419 557.327,201.195 561.404,199.498C565.077,197.969 567.7,193.684 572.115,193.684C580.344,193.684 586.748,188.234 594.754,190.492C595.386,190.67 595.957,189.764 596.563,189.976C598.827,187.026 602.546,183.653 606.437,181.98Z" style="fill:rgb(121,88,48);stroke:black;stroke-width:0.94px;"/>
        </g>
        <g transform="matrix(1,0,0,1,74.4752,-146.006)">
            <path d="M567.344,195.172C570.267,192.249 592.51,199.752 593.266,200.508" style="fill:none;stroke:black;stroke-width:1px;stroke-linecap:round;stroke-miterlimit:1.5;"/>
        </g>
        <g transform="matrix(1,0,0,1,74.4752,-146.006)">
            <path d="M594.408,190.722C603.527,191.701 611.158,202.39 613.85,205.083C615.001,206.234 613.574,211.326 614.749,215.758C615.989,220.431 619.492,225.319 622.342,225.319" style="fill:none;stroke:black;stroke-width:1px;stroke-linecap:round;stroke-miterlimit:1.5;"/>
        </g>
        <g transform="matrix(1,0,0,1,74.4752,-146.006)">
            <path d="M655.725,235.878C645.78,235.878 649.7,225.954 656.489,225.954L658.015,225.954C659.088,228.1 659.091,228.87 660.305,231.298C660.788,232.263 663.675,233.588 662.595,233.588C659.511,233.588 653.435,237.611 653.435,231.298" style="fill:rgb(255,185,236);stroke:black;stroke-width:1px;stroke-linecap:round;stroke-miterlimit:1.5;"/>
        </g>
    </g>
</svg>
