<svg width="81" height="85" viewBox="0 0 81 85" version="1.1" xmlns="http://www.w3.org/2000/svg" xmlns:xlink="http://www.w3.org/1999/xlink" xml:space="preserve" xmlns:serif="http://www.serif.com/" style="fill-rule:evenodd;clip-rule:evenodd;stroke-linecap:round;stroke-linejoin:round;stroke-miterlimit:1.5;">
    <g transform="matrix(1.01784,0.207167,-0.21364,1.04964,-668.214,-172.424)">
        <g id="beanie">
            <path d="M671.195,49.128C671.343,48.891 705.058,43.256 712.936,58.685C720.815,74.114 722.894,96.546 725.52,99.938C728.147,103.331 736.277,92.876 738.323,84.072C739.102,80.721 736.768,83.286 738.214,77.944C739.919,71.641 756.257,58.586 737.426,38.44C734.573,35.388 730.982,31.424 725.587,29.104C719.603,26.531 711.789,25.763 708.639,25.847C699.788,26.085 691.398,30.199 691.135,30.336C684.596,33.752 680.591,37.494 679.415,37.728C669.376,39.722 666.593,52.815 668.777,50.72C669.401,50.121 670.702,49.92 671.195,49.128Z" style="fill:rgb(164,164,164);"/>
            <clipPath id="_clip1">
                <path d="M671.195,49.128C671.343,48.891 705.058,43.256 712.936,58.685C720.815,74.114 722.894,96.546 725.52,99.938C728.147,103.331 736.277,92.876 738.323,84.072C739.102,80.721 736.768,83.286 738.214,77.944C739.919,71.641 756.257,58.586 737.426,38.44C734.573,35.388 730.982,31.424 725.587,29.104C719.603,26.531 711.789,25.763 708.639,25.847C699.788,26.085 691.398,30.199 691.135,30.336C684.596,33.752 680.591,37.494 679.415,37.728C669.376,39.722 666.593,52.815 668.777,50.72C669.401,50.121 670.702,49.92 671.195,49.128Z"/>
            </clipPath>
            <g clip-path="url(#_clip1)">
                <g transform="matrix(0.892357,-0.0183371,0.0198107,0.709729,75.8537,32.0498)">
                    <path d="M715.426,64.024C717.091,63.435 718.492,62.297 720.134,61.664C720.217,61.632 720.449,62.167 720.47,62.218C720.722,62.832 720.791,63.5 721.025,64.121C721.408,65.141 721.993,66.065 722.331,67.106C722.432,67.418 722.874,68.715 722.874,68.715C722.874,68.715 721.999,69.078 721.573,69.324C720.489,69.95 718.942,70.466 717.721,70.73" style="fill:rgb(255,147,0);stroke:rgb(210,121,0);stroke-width:0.59px;"/>
                </g>
                <path d="M678.771,37.831C678.771,37.831 705.064,29.668 721.86,44.514C728.09,50.021 731.686,59.604 734.038,64.916C737.211,72.08 737.602,80.375 737.602,80.375" style="fill:none;stroke:rgb(125,125,125);stroke-width:0.95px;"/>
            </g>
            <path d="M671.195,49.128C671.343,48.891 705.058,43.256 712.936,58.685C720.815,74.114 722.894,96.546 725.52,99.938C728.147,103.331 736.277,92.876 738.323,84.072C739.102,80.721 736.768,83.286 738.214,77.944C739.919,71.641 756.257,58.586 737.426,38.44C734.573,35.388 730.982,31.424 725.587,29.104C719.603,26.531 711.789,25.763 708.639,25.847C699.788,26.085 691.398,30.199 691.135,30.336C684.596,33.752 680.591,37.494 679.415,37.728C669.376,39.722 666.593,52.815 668.777,50.72C669.401,50.121 670.702,49.92 671.195,49.128Z" style="fill:none;stroke:rgb(125,125,125);stroke-width:1.9px;"/>
        </g>
    </g>
</svg>
