<?xml version="1.0" encoding="UTF-8" standalone="no"?>
<!DOCTYPE svg PUBLIC "-//W3C//DTD SVG 1.1//EN" "http://www.w3.org/Graphics/SVG/1.1/DTD/svg11.dtd">
<svg width="100%" height="100%" viewBox="0 0 59 59" version="1.1" xmlns="http://www.w3.org/2000/svg" xmlns:xlink="http://www.w3.org/1999/xlink" xml:space="preserve" xmlns:serif="http://www.serif.com/" style="fill-rule:evenodd;clip-rule:evenodd;stroke-linecap:round;stroke-linejoin:round;stroke-miterlimit:1.5;">
    <g transform="matrix(1,0,0,1,-679.276,-51.962)">
        <path d="M680.281,65.141C697.767,62.987 723.548,87.702 725.034,108.973C726.75,114.691 735.418,97.812 736.562,96.211C737.705,94.61 738.839,84.566 720.78,65.883C707.872,52.528 697.333,51.376 693.071,53.064C688.19,54.997 677.312,64.965 680.281,65.141Z" style="fill:rgb(107,90,165);"/>
        <clipPath id="_clip1">
            <path d="M680.281,65.141C697.767,62.987 723.548,87.702 725.034,108.973C726.75,114.691 735.418,97.812 736.562,96.211C737.705,94.61 738.839,84.566 720.78,65.883C707.872,52.528 697.333,51.376 693.071,53.064C688.19,54.997 677.312,64.965 680.281,65.141Z"/>
        </clipPath>
        <g clip-path="url(#_clip1)">
            <path d="M678.062,63.006C709.812,59.877 730.449,94.973 727.373,113.507" style="fill:none;stroke:rgb(184,71,71);stroke-width:1px;"/>
        </g>
        <path d="M680.281,65.141C697.767,62.987 723.548,87.702 725.034,108.973C726.75,114.691 735.418,97.812 736.562,96.211C737.705,94.61 738.839,84.566 720.78,65.883C707.872,52.528 697.333,51.376 693.071,53.064C688.19,54.997 677.312,64.965 680.281,65.141Z" style="fill:none;stroke:black;stroke-width:1px;"/>
    </g>
</svg>
