<?xml version="1.0" encoding="UTF-8" standalone="no"?>
<!DOCTYPE svg PUBLIC "-//W3C//DTD SVG 1.1//EN" "http://www.w3.org/Graphics/SVG/1.1/DTD/svg11.dtd">
<svg width="100%" height="100%" viewBox="0 0 79 59" version="1.1" xmlns="http://www.w3.org/2000/svg" xmlns:xlink="http://www.w3.org/1999/xlink" xml:space="preserve" xmlns:serif="http://www.serif.com/" style="fill-rule:evenodd;clip-rule:evenodd;stroke-linejoin:round;stroke-miterlimit:2;">
    <path id="beard" d="M37.175,43.014C47.933,39.126 70.063,28.8 76.625,21.994C74.701,24.569 71.786,28.289 66.728,32.629C61.96,36.72 54.568,42.753 46.051,46.816C30.323,54.32 12.067,57.609 6.912,48.116C3.77,42.33 4.263,28.946 8.523,16.722C10.159,12.024 11.967,7.357 14.908,3.566C12.965,8.508 9.97,17.481 8.989,23.901C8.766,25.36 8.541,26.777 8.341,28.138C8.514,30.108 12.702,27.021 19.144,27.858C20.133,27.986 23.724,28.692 27.414,31.176C34.701,36.082 32.86,42.131 37.175,43.014ZM25.784,47.447C21.609,48.087 18.449,48.647 16.651,47.73C15.75,47.27 14.971,45.331 13.569,44.37C11.911,43.233 9.97,43.052 9.541,42.292C8.869,41.102 9.009,39.821 8.939,37.062C9.949,32.346 14.464,31.565 16.827,31.251C19.22,30.933 26.333,34.137 27.957,37.396C29.538,40.568 27.94,46.499 25.784,47.447ZM9.023,34.986C8.992,35.574 8.964,36.117 8.934,36.582C8.938,36.071 8.969,35.538 9.023,34.986Z" style="fill:rgb(44,25,17);fill-opacity:0.29;"/>
</svg>
