<?xml version="1.0" encoding="UTF-8" standalone="no"?>
<!DOCTYPE svg PUBLIC "-//W3C//DTD SVG 1.1//EN" "http://www.w3.org/Graphics/SVG/1.1/DTD/svg11.dtd">
<svg width="100%" height="100%" viewBox="0 0 88 62" version="1.1" xmlns="http://www.w3.org/2000/svg" xmlns:xlink="http://www.w3.org/1999/xlink" xml:space="preserve" xmlns:serif="http://www.serif.com/" style="fill-rule:evenodd;clip-rule:evenodd;stroke-linecap:round;stroke-linejoin:round;stroke-miterlimit:1.5;">
    <g id="shield-bottom-back" serif:id="shield bottom back" transform="matrix(1,0,0,1,-658.896,-49.8573)">
        <path d="M675.908,55.218C679.815,54.531 687.755,58.218 689.618,61.121C691.941,64.741 688.9,73.546 675.342,67.699C674.029,67.132 672.364,65.544 671.052,64.358C664.062,58.038 672.814,55.762 675.908,55.218Z" style="fill:rgb(110,80,60);stroke:black;stroke-width:1px;"/>
    </g>
    <g id="shield-bottom-front" serif:id="shield bottom front" transform="matrix(1,0,0,1,-658.896,-49.8573)">
        <path d="M675.606,67.782C675.606,67.782 673.59,67.097 669.406,66.865C665.222,66.633 658.365,67.214 659.527,61.054C661.054,52.961 672.777,52.337 676.612,53.964C678.061,54.579 679.598,54.892 681.366,56.195" style="fill:rgb(110,80,60);stroke:black;stroke-width:1px;"/>
    </g>
    <g transform="matrix(1,0,0,1,-658.849,-49.8573)">
        <path d="M661.445,60.13C662.634,54.688 672.722,53.888 676.841,55.48C687.943,59.769 689.307,72.6 697.709,84.746C702.152,91.168 712.489,94.389 719.453,94.349" style="fill:none;stroke:rgb(84,61,46);stroke-width:2px;"/>
    </g>
    <g id="shield-bottom-front1" serif:id="shield bottom front" transform="matrix(1,0,0,1,-658.896,-49.8573)">
        <path d="M667.222,62.692C666.353,61.933 658.605,66.513 660.289,60.475C661.991,54.371 669.528,55.096 674.65,55.943" style="fill:rgb(110,80,60);"/>
    </g>
    <g id="top-cap" serif:id="top cap" transform="matrix(1,0,0,1,-658.896,-49.8573)">
        <path d="M686.271,57.549C691.972,52.827 702.84,50.709 709.478,50.382C720.046,49.86 735.106,57.808 740.741,64.421C744.364,68.671 747.501,85.553 744.705,93.652C743.505,97.125 738.411,104.824 735.555,107.311C734.218,108.475 732.731,109.486 731.158,110.304C730.649,110.569 728.675,111.335 728.342,110.867C727.52,109.71 725.445,103.554 722.533,97.397C719.947,91.929 717.232,84.885 712.911,78.858C704.845,67.609 702.556,64.768 686.271,57.549Z" style="fill:rgb(153,107,75);"/>
        <clipPath id="_clip1">
            <path d="M686.271,57.549C691.972,52.827 702.84,50.709 709.478,50.382C720.046,49.86 735.106,57.808 740.741,64.421C744.364,68.671 747.501,85.553 744.705,93.652C743.505,97.125 738.411,104.824 735.555,107.311C734.218,108.475 732.731,109.486 731.158,110.304C730.649,110.569 728.675,111.335 728.342,110.867C727.52,109.71 725.445,103.554 722.533,97.397C719.947,91.929 717.232,84.885 712.911,78.858C704.845,67.609 702.556,64.768 686.271,57.549Z"/>
        </clipPath>
        <g clip-path="url(#_clip1)">
            <path d="M737.591,59.237C737.591,59.237 749.068,89.019 720.448,99.625C724.914,110.848 721.541,114.108 729.172,114.171C739.913,114.261 751.832,101.833 750.376,86.84C748.27,65.164 737.591,59.237 737.591,59.237Z" style="fill:rgb(10,10,10);fill-opacity:0.16;"/>
            <g transform="matrix(1,0,0,1,658.896,49.8573)">
                <path d="M77.7,8.786C80.854,14.605 72.532,37.651 63.637,47.54C51.377,61.171 70.984,65.856 70.984,65.856C81.274,64.364 88.999,56.555 93.593,37.971C91.916,19.33 83.419,11.259 77.7,8.786Z" style="fill-opacity:0.06;"/>
            </g>
        </g>
        <path d="M686.271,57.549C691.972,52.827 702.84,50.709 709.478,50.382C720.046,49.86 735.106,57.808 740.741,64.421C744.364,68.671 747.501,85.553 744.705,93.652C743.505,97.125 738.411,104.824 735.555,107.311C734.218,108.475 732.731,109.486 731.158,110.304C730.649,110.569 728.675,111.335 728.342,110.867C727.52,109.71 725.445,103.554 722.533,97.397C719.947,91.929 717.232,84.885 712.911,78.858C704.845,67.609 702.556,64.768 686.271,57.549Z" style="fill:none;stroke:black;stroke-width:1px;"/>
    </g>
    <g id="face-shadow" serif:id="face shadow" transform="matrix(1,0,0,1,-658.896,-49.8573)">
        <path d="M714.966,81.6C707.907,72.291 701.382,62.498 690.795,58.935C687.628,57.87 684.521,57.265 681.55,56.091C679.164,55.148 677.123,53.59 674.849,53.358C667.433,52.601 662.075,55.208 659.962,60.122C659.347,61.55 659.361,64.61 661.437,65.505C663.476,66.384 666.527,66.536 670.042,67.036C672.346,67.363 675.335,67.2 677.577,68.764C677.087,69.431 675.943,71.057 675.324,71.797C680.562,74.301 685.61,78.378 692.865,88.779C701.6,101.3 724.207,99.044 721.475,94.495C720.087,92.186 720.395,88.76 714.966,81.6Z" style="fill:rgb(10,10,10);fill-opacity:0.25;"/>
    </g>
    <g id="shield-top" serif:id="shield top" transform="matrix(1,0,0,1,-658.896,-49.8573)">
        <path d="M692.442,59.543C686.488,57.206 681.171,56.049 681.171,56.049C684.08,58.194 687.851,63.003 692.999,74.884C702.065,95.805 717.002,95.668 721.37,94.871C717.567,85.998 714.526,80.143 709.426,73.855C705.361,68.845 699.457,62.297 692.442,59.543Z" style="fill:rgb(144,102,72);stroke:black;stroke-width:1px;"/>
    </g>
</svg>
