<?xml version="1.0" encoding="UTF-8" standalone="no"?>
<!DOCTYPE svg PUBLIC "-//W3C//DTD SVG 1.1//EN" "http://www.w3.org/Graphics/SVG/1.1/DTD/svg11.dtd">
<svg width="100%" height="100%" viewBox="0 0 88 62" version="1.1" xmlns="http://www.w3.org/2000/svg" xmlns:xlink="http://www.w3.org/1999/xlink" xml:space="preserve" xmlns:serif="http://www.serif.com/" style="fill-rule:evenodd;clip-rule:evenodd;stroke-linecap:round;stroke-linejoin:round;stroke-miterlimit:1.5;">
    <g id="shield-bottom-back" serif:id="shield bottom back" transform="matrix(1,0,0,1,-658.896,-49.8573)">
        <path d="M675.908,55.218C679.815,54.531 687.755,58.218 689.618,61.121C691.941,64.741 688.9,73.546 675.342,67.699C674.029,67.132 672.364,65.544 671.052,64.358C664.062,58.038 672.814,55.762 675.908,55.218Z" style="fill:rgb(255,195,58);stroke:black;stroke-width:1px;"/>
    </g>
    <g id="shield-bottom-front" serif:id="shield bottom front" transform="matrix(1,0,0,1,-658.896,-49.8573)">
        <path d="M675.606,67.782C675.606,67.782 673.59,67.097 669.406,66.865C665.222,66.633 658.365,67.214 659.527,61.054C661.054,52.961 672.777,52.337 676.612,53.964C678.061,54.579 679.598,54.892 681.366,56.195" style="fill:rgb(255,195,58);stroke:black;stroke-width:1px;"/>
    </g>
    <g transform="matrix(1,0,0,1,-658.849,-49.8573)">
        <path d="M661.445,60.13C662.634,54.688 672.722,53.888 676.841,55.48C687.943,59.769 689.307,72.6 697.709,84.746C702.152,91.168 712.489,94.389 719.453,94.349" style="fill:none;stroke:rgb(187,149,57);stroke-width:2px;"/>
    </g>
    <g id="shield-bottom-front1" serif:id="shield bottom front" transform="matrix(1,0,0,1,-658.896,-49.8573)">
        <path d="M667.222,62.692C666.353,61.933 658.605,66.513 660.289,60.475C661.991,54.371 669.528,55.096 674.65,55.943" style="fill:rgb(255,195,58);"/>
    </g>
    <g id="top-cap" serif:id="top cap" transform="matrix(1,0,0,1,-658.896,-49.8573)">
        <path d="M686.271,57.549C691.972,52.827 702.84,50.709 709.478,50.382C720.046,49.86 735.106,57.808 740.741,64.421C744.364,68.671 747.501,85.553 744.705,93.652C743.505,97.125 738.411,104.824 735.555,107.311C734.218,108.475 732.731,109.486 731.158,110.304C730.649,110.569 728.675,111.335 728.342,110.867C727.52,109.71 725.445,103.554 722.533,97.397C719.947,91.929 717.232,84.885 712.911,78.858C704.845,67.609 702.556,64.768 686.271,57.549Z" style="fill:rgb(255,195,58);"/>
        <clipPath id="_clip1">
            <path d="M686.271,57.549C691.972,52.827 702.84,50.709 709.478,50.382C720.046,49.86 735.106,57.808 740.741,64.421C744.364,68.671 747.501,85.553 744.705,93.652C743.505,97.125 738.411,104.824 735.555,107.311C734.218,108.475 732.731,109.486 731.158,110.304C730.649,110.569 728.675,111.335 728.342,110.867C727.52,109.71 725.445,103.554 722.533,97.397C719.947,91.929 717.232,84.885 712.911,78.858C704.845,67.609 702.556,64.768 686.271,57.549Z"/>
        </clipPath>
        <g clip-path="url(#_clip1)">
            <path id="back-shadow" serif:id="back shadow" d="M737.591,59.237C737.591,59.237 749.068,89.019 720.448,99.625C724.914,110.848 721.541,114.108 729.172,114.171C739.913,114.261 751.832,101.833 750.376,86.84C748.27,65.164 737.591,59.237 737.591,59.237Z" style="fill:rgb(9,9,9);fill-opacity:0.16;"/>
            <g id="smiley" transform="matrix(0.61079,0.27752,-0.589321,0.242986,684.91,34.247)">
                <g id="mouth">
                    <path d="M42.555,23.115C42.471,23.835 42.438,24.669 42.582,25.406C42.952,27.302 44.232,29.607 45.447,30.444C48.054,32.24 51.336,33.252 54.502,33.308C59.891,33.404 63.033,30.949 65.236,26.657C65.748,25.659 65.84,24.548 65.927,23.43" style="fill:none;stroke:rgb(30,30,30);stroke-width:2.71px;"/>
                    <path d="M40.376,24.813C40.609,24.813 41.81,22.212 44.986,23.134" style="fill:none;stroke:rgb(30,30,30);stroke-width:2.71px;"/>
                    <path d="M67.894,24.714C67.894,24.714 66.346,22.05 63.547,23.334" style="fill:none;stroke:rgb(30,30,30);stroke-width:2.71px;"/>
                </g>
                <g id="eyes">
                    <path d="M48.452,14.988C48.997,14.856 49.843,14.999 50.453,15.574C51.325,16.396 51.877,17.914 51.802,19.371C51.676,21.833 50.339,23.701 49.126,24.092C47.96,24.467 46.542,22.72 46.429,21.704C46.396,21.407 46.427,21.058 46.526,20.907C46.96,20.248 48.008,20.003 48.958,19.35C48.009,18.802 48.004,18.848 46.748,18.134C46.564,18.029 46.619,16.876 47.02,16.196C47.416,15.526 48.024,15.091 48.452,14.988Z" style="fill:rgb(31,31,31);"/>
                    <g transform="matrix(1,0,0.0393647,1,9.94849,0)">
                        <path d="M48.452,14.988C48.997,14.856 49.843,14.999 50.453,15.574C51.325,16.396 51.877,17.914 51.802,19.371C51.676,21.833 50.339,23.701 49.126,24.092C47.96,24.467 46.542,22.72 46.429,21.704C46.396,21.407 46.427,21.058 46.526,20.907C46.96,20.248 48.008,20.003 48.958,19.35C48.009,18.802 48.004,18.848 46.748,18.134C46.564,18.029 46.619,16.876 47.02,16.196C47.416,15.526 48.024,15.091 48.452,14.988Z" style="fill:rgb(31,31,31);"/>
                    </g>
                </g>
                <g id="trademark" transform="matrix(1.78806,0.518302,0.117378,1.42844,-16.2969,-7.30795)">
                    <ellipse cx="46.894" cy="11.746" rx="0.79" ry="0.807" style="fill:rgb(31,31,31);"/>
                </g>
            </g>
        </g>
        <path d="M686.271,57.549C691.972,52.827 702.84,50.709 709.478,50.382C720.046,49.86 735.106,57.808 740.741,64.421C744.364,68.671 747.501,85.553 744.705,93.652C743.505,97.125 738.411,104.824 735.555,107.311C734.218,108.475 732.731,109.486 731.158,110.304C730.649,110.569 728.675,111.335 728.342,110.867C727.52,109.71 725.445,103.554 722.533,97.397C719.947,91.929 717.232,84.885 712.911,78.858C704.845,67.609 702.556,64.768 686.271,57.549Z" style="fill:none;stroke:black;stroke-width:1px;"/>
    </g>
    <g id="face-shadow" serif:id="face shadow" transform="matrix(1,0,0,1,-658.896,-49.8573)">
        <path d="M714.966,81.6C707.907,72.291 701.382,62.498 690.795,58.935C687.628,57.87 684.521,57.265 681.55,56.091C679.164,55.148 677.123,53.59 674.849,53.358C667.433,52.601 662.075,55.208 659.962,60.122C659.347,61.55 659.361,64.61 661.437,65.505C663.476,66.384 666.527,66.536 670.042,67.036C672.346,67.363 675.335,67.2 677.577,68.764C677.087,69.431 675.943,71.057 675.324,71.797C680.562,74.301 685.61,78.378 692.865,88.779C701.6,101.3 724.207,99.044 721.475,94.495C720.087,92.186 720.395,88.76 714.966,81.6Z" style="fill:rgb(10,10,10);fill-opacity:0.25;"/>
    </g>
    <g id="shield-top" serif:id="shield top" transform="matrix(1,0,0,1,-658.896,-49.8573)">
        <path d="M692.442,59.543C686.488,57.206 681.171,56.049 681.171,56.049C684.08,58.194 687.851,63.003 692.999,74.884C702.065,95.805 717.002,95.668 721.37,94.871C717.567,85.998 714.526,80.143 709.426,73.855C705.361,68.845 699.457,62.297 692.442,59.543Z" style="fill:rgb(255,195,58);stroke:black;stroke-width:1px;"/>
    </g>
    <g transform="matrix(0.860321,-0.0184714,0.0229161,1.06733,7.94073,-2.63521)">
        <path d="M65.579,23.045C62.87,23.625 60.259,25.768 58.773,28.181C60.915,26.27 64.094,24.651 67.306,24.727C64.539,25.642 62.04,27.163 60.343,29.3C62.813,27.949 65.791,27.033 68.566,26.446C66.059,27.611 63.733,28.847 61.99,30.624C64.315,29.565 66.852,28.918 69.025,28.165C67.09,29.949 65.245,31.232 63.768,32.405C66.328,31.517 68.757,30.944 70.4,30.514L64.842,34.525L71.718,32.061L65.357,36.244L72.749,33.78C70.982,35.327 68.843,36.874 66.16,38.421C68.887,37.909 71.836,36.623 74.869,35.04C72.452,37.632 69.704,39.821 66.217,40.427" style="fill:none;stroke:rgb(30,30,30);stroke-width:0.69px;"/>
    </g>
</svg>
