<?xml version="1.0" encoding="UTF-8" standalone="no"?>
<!DOCTYPE svg PUBLIC "-//W3C//DTD SVG 1.1//EN" "http://www.w3.org/Graphics/SVG/1.1/DTD/svg11.dtd">
<svg width="100%" height="100%" viewBox="0 0 345 170" version="1.1" xmlns="http://www.w3.org/2000/svg" xmlns:xlink="http://www.w3.org/1999/xlink" xml:space="preserve" xmlns:serif="http://www.serif.com/" style="fill-rule:evenodd;clip-rule:evenodd;stroke-linecap:round;stroke-linejoin:round;stroke-miterlimit:1.5;">
    <g id="body" transform="matrix(1,0,0,1,0,9.95498)">
        <g transform="matrix(1,0,0,1.01291,-464.27,-81.8868)">
            <path d="M500.086,226.672C505.349,227.14 501.991,136.198 496.95,137.998C493.808,139.12 483.911,141.095 476.844,139.159C475.972,138.92 476.214,148.776 475.519,163.603C474.942,175.908 477.414,193.472 478.023,207.033C478.565,219.095 476.708,230.43 475.149,231.514C473.346,232.767 496.576,225.919 500.086,226.672Z" style="fill:rgb(209,44,44);stroke:black;stroke-width:1.32px;"/>
        </g>
        <g transform="matrix(1,0,0,0.99197,-464.27,-78.2762)">
            <path d="M494.443,137.4C493.119,134.439 506.467,134.655 520.91,128.379C540.542,119.849 565.476,105.117 589.184,97.37C601.975,93.19 613.638,91.044 625.668,93.003C640.74,95.458 643.488,103.142 652.287,107.098C631.772,115.385 640.759,135.304 648.778,146.345C657.093,158.343 683.834,170.134 687.717,161.585C688.394,160.097 690.293,158.559 689.224,155.689C697.941,158.362 695.5,165.916 696.662,170.682C697.824,175.447 700.73,176.377 702.59,178.352C704.449,180.328 706.151,181.502 709.172,182.199C712.194,182.896 706.453,183.845 714.356,184.891C722.259,185.937 715.421,186.919 721.232,190.987C727.043,195.055 731.454,214.945 703.096,219.361C694.227,220.742 680.094,219.043 677.921,219.893C674.84,221.098 656.407,218.67 646.662,221.386C632.483,225.338 641.199,222.548 633.994,222.781C630.123,222.906 608.05,222.071 581.454,223.75C564.291,224.834 549.821,225.493 536.517,226.522C532.054,226.867 525.579,229.414 522.047,229.14C501.751,227.566 501.119,228.539 498.03,228.101C497.679,228.051 499.543,222.079 499.796,212.287C500.102,200.406 498.764,183.469 497.192,169.549C495.682,156.176 497.18,143.523 494.443,137.4Z" style="fill:rgb(39,104,153);stroke:black;stroke-width:1.34px;"/>
        </g>
        <g transform="matrix(1,0,0,1,-464.27,-80.1067)">
            <path d="M650.834,107.235C647.327,108.734 625.811,118.129 645.048,147.139C655.757,163.289 668.399,166.906 677.143,166.926C685.531,166.945 691.188,163.119 690.608,162.313C689.289,160.481 691.86,153.771 693.536,148.284C693.688,147.784 693.045,147.506 693.186,147.028C690.402,151.811 674.913,146.868 667.583,142.91C659.471,138.53 655.197,129.707 660.901,114.01C656.996,114.161 652.684,106.444 650.834,107.235Z" style="fill:rgb(255,224,79);"/>
            <clipPath id="_clip1">
                <path d="M650.834,107.235C647.327,108.734 625.811,118.129 645.048,147.139C655.757,163.289 668.399,166.906 677.143,166.926C685.531,166.945 691.188,163.119 690.608,162.313C689.289,160.481 691.86,153.771 693.536,148.284C693.688,147.784 693.045,147.506 693.186,147.028C690.402,151.811 674.913,146.868 667.583,142.91C659.471,138.53 655.197,129.707 660.901,114.01C656.996,114.161 652.684,106.444 650.834,107.235Z"/>
            </clipPath>
            <g clip-path="url(#_clip1)">
                <path d="M692.18,146.58C690.29,153.408 688.728,159.483 689.832,163.816L687.927,165.663C687.089,165.574 688.621,150.506 689.484,146.952C690.061,144.577 686.555,146.626 686.555,146.626C685.965,148.811 685.262,155.095 684.486,167.012L680.767,168.22C680.248,166.922 682.154,146.468 683.557,145.557C685.476,144.31 679.256,144.511 679.256,144.511C677.599,151.17 676.218,158.934 675.305,168.569L670.191,167.755C669.771,165.934 675.911,143.922 676.583,143.697C678.161,143.17 672.399,142.07 672.399,142.07C669.705,149.052 667.034,156.324 664.589,166.547L659.498,163.107C659.498,163.107 668.448,142.535 669.145,141.722C669.842,140.908 666.356,139.513 666.356,139.513C663.881,146.642 658.46,153.635 653.687,159.504L649.155,155.32C649.319,156.17 661.125,146.109 664.147,137.537L662.225,136.112C658.093,142.09 650.867,146.2 644.506,150.671L640.018,144.001C646.974,141.512 656.132,139.794 661.174,134.462L660.207,131.983C655.026,136.149 645.407,136.629 637.569,137.109L635.45,130.476C644.827,131.429 656.494,132.053 659.603,129.72L659.481,127.115C651.902,127.61 642.644,126.059 634.975,124.869L636.282,118.091C643.136,121.082 651.83,123.535 659.409,123.089L660.661,119.523C651.878,120.539 645.169,115.833 638.811,112.666L645.9,107.668C650.129,110.896 654.109,115.452 660.944,116.475" style="fill:none;stroke:black;stroke-opacity:0.1;stroke-width:1px;"/>
            </g>
            <path d="M650.834,107.235C647.327,108.734 625.811,118.129 645.048,147.139C655.757,163.289 668.399,166.906 677.143,166.926C685.531,166.945 691.188,163.119 690.608,162.313C689.289,160.481 691.86,153.771 693.536,148.284C693.688,147.784 693.045,147.506 693.186,147.028C690.402,151.811 674.913,146.868 667.583,142.91C659.471,138.53 655.197,129.707 660.901,114.01C656.996,114.161 652.684,106.444 650.834,107.235Z" style="fill:none;stroke:black;stroke-width:1.33px;"/>
        </g>
        <g id="wrinkles" transform="matrix(1,0,0,1,0,-9.95498)">
            <g opacity="0.25">
                <path d="M52.368,109.906C52.368,109.906 91.923,133.728 122.938,134.178" style="fill:none;stroke:black;stroke-width:0.67px;"/>
                <path d="M142.372,147.663C161.194,149.068 195.67,136.538 217.301,128.672" style="fill:none;stroke:black;stroke-width:0.67px;"/>
                <path d="M142.692,121.803C142.692,121.803 199.159,120.679 221.914,111.127C240.094,103.496 233.169,106.983 238.103,108.12" style="fill:none;stroke:black;stroke-width:0.67px;"/>
                <path d="M188.764,104.666C188.764,104.666 196.63,108.599 215.172,100.171C233.713,91.743 221.957,97.362 232.071,97.924" style="fill:none;stroke:black;stroke-width:0.67px;"/>
                <path d="M87.349,85.282C87.349,85.282 81.449,91.462 95.215,102.137" style="fill:none;stroke:black;stroke-width:0.67px;"/>
                <path d="M92.687,81.349C94.653,86.686 90.439,86.125 96.339,90.9" style="fill:none;stroke:black;stroke-width:0.67px;"/>
                <path d="M126.359,124.178C126.359,124.178 151.732,145.022 200.614,119.458" style="fill:none;stroke:black;stroke-width:0.67px;"/>
                <path d="M40.157,146.008C40.157,146.008 56.731,152.469 88.757,151.626" style="fill:none;stroke:black;stroke-width:0.67px;"/>
            </g>
        </g>
    </g>
    <g id="left-arm" serif:id="left arm" transform="matrix(1,0,0,1,0,9.95498)">
        <g transform="matrix(1,0,0,1.0291,-464.27,-86.451)">
            <path d="M699.848,180.068L716.09,189.866L665.344,218.022L699.848,180.068Z" style="fill:rgb(39,104,153);"/>
        </g>
        <g transform="matrix(1,0,0,1,-464.27,-80.1067)">
            <path d="M716.853,165.359C715.623,165.769 707.103,152.9 704.394,149.665C702.717,147.661 723.056,137.754 724.681,140.355C726.076,142.587 734.74,151.425 738.331,153.756C740.366,155.076 716.853,165.359 716.853,165.359Z" style="fill:rgb(255,224,79);"/>
            <clipPath id="_clip2">
                <path d="M716.853,165.359C715.623,165.769 707.103,152.9 704.394,149.665C702.717,147.661 723.056,137.754 724.681,140.355C726.076,142.587 734.74,151.425 738.331,153.756C740.366,155.076 716.853,165.359 716.853,165.359Z"/>
            </clipPath>
            <g clip-path="url(#_clip2)">
                <path d="M717.757,163.343L704.452,146.196L706.832,144.693L719.84,161.632L722.369,159.772L709.569,143.384L712.128,142.001L724.377,158.359L727.055,156.723L715.014,140.766L718.168,139.635L729.584,155.532L732.634,153.747L720.593,138.981L723.196,138.386C726.215,143.064 730.74,147.153 735.758,152.631" style="fill:none;stroke:black;stroke-opacity:0.1;stroke-width:1px;"/>
            </g>
            <path d="M716.853,165.359C715.623,165.769 707.103,152.9 704.394,149.665C702.717,147.661 723.056,137.754 724.681,140.355C726.076,142.587 734.74,151.425 738.331,153.756C740.366,155.076 716.853,165.359 716.853,165.359Z" style="fill:none;stroke:black;stroke-width:1.33px;"/>
        </g>
        <g transform="matrix(1,0,0,1,-464.27,-80.1067)">
            <path d="M720.281,189.924C720.281,189.924 725.559,188.799 727.186,189.961C736.171,196.379 729.627,195.075 734.508,196.237C739.389,197.399 737.181,198.794 738.924,200.189C740.668,201.583 727.55,181.049 723.351,175.549C717.689,168.135 716.8,167.06 714.708,164.852C712.885,162.928 729.785,152.484 735.912,150.952C736.447,150.818 740.217,154.748 746.659,159.386C756.999,166.83 772.883,177.67 777.394,183.685C784.716,193.448 796.704,203.541 801.184,213.78C805.265,223.107 808.47,218.705 808.47,226.84C808.47,234.976 806.717,239.068 799.709,239.147C786.02,239.3 783.61,235.792 770.683,235.191C766.714,235.006 762.768,234.514 759.397,234.716C755.836,234.928 752.705,234.45 750.477,234.172C737.995,232.615 716.121,224.503 701.012,222.527C672.454,218.792 685.519,221.948 671.608,221.365C658.312,220.807 668.603,219.803 656.609,220.175C658.397,219.381 663.213,219.484 664.928,218.398C672.109,213.854 676.074,206.186 687.366,201.706C704.945,194.733 702.335,190.869 708.582,189.125C712.681,187.981 715.406,186.231 716.212,186.279C716.635,186.304 717.581,186.258 718.68,187.007C721.876,189.186 720.281,189.924 720.281,189.924Z" style="fill:rgb(83,136,82);stroke:black;stroke-width:1.33px;"/>
        </g>
        <g id="wrinkles1" serif:id="wrinkles" transform="matrix(1,0,0,1,0,-9.95498)">
            <g opacity="0.25">
                <g transform="matrix(1,0,0,1,6.96704,10.5629)">
                    <path d="M331.944,136.672C331.944,136.672 331.527,134.628 332.651,143.056" style="fill:none;stroke:black;stroke-width:0.67px;"/>
                </g>
                <g transform="matrix(1,0,0,1,-1.34846,6.51755)">
                    <path d="M203.043,144.298C220.046,138.743 259.593,126.54 278.265,126.757" style="fill:none;stroke:black;stroke-width:0.67px;"/>
                </g>
                <g transform="matrix(1.21333,0,0,1.5303,-47.2776,-69.1258)">
                    <path d="M237.64,145.26C240.926,144.375 243.064,143.332 245.844,141.37" style="fill:none;stroke:black;stroke-width:0.48px;"/>
                </g>
                <g transform="matrix(1.44887,0,0,1.8563,-121.143,-115.234)">
                    <path d="M270.405,142.722C270.836,142.133 277.234,140.526 274.522,133.884" style="fill:none;stroke:black;stroke-width:0.4px;"/>
                </g>
                <path d="M271.793,124.628C272.513,124.628 277.353,141.859 311.597,156.665" style="fill:none;stroke:black;stroke-width:0.67px;"/>
                <path d="M295.849,157.383C295.849,157.383 283.481,151.012 281.719,138.441" style="fill:none;stroke:black;stroke-width:0.67px;"/>
            </g>
        </g>
    </g>
    <g id="right-arm" serif:id="right arm" transform="matrix(1,0,0,1,0,9.95498)">
        <g transform="matrix(1,0,0,1,-464.27,-80.1067)">
            <path d="M643.361,102.077C641.518,100.39 634.946,95.264 631.043,92.804C628.251,91.045 625.292,90.023 623.697,87.792C617.716,79.424 610.077,80.53 600.714,80.814C591.35,81.098 596.302,83.507 592.234,85.599C588.166,87.691 566.85,135.839 566.85,135.839" style="fill:rgb(39,104,153);stroke:black;stroke-width:1.33px;"/>
        </g>
        <g transform="matrix(1,0,0,1,-464.27,-80.1067)">
            <path d="M527.899,202.499C527.899,202.499 536.633,213.063 537.842,213.714C538.441,214.037 542.022,208.863 547.723,206.155C553.531,203.395 560.901,202.916 563.69,203.58C565.642,204.045 556.53,195.77 553.276,188.889C551.905,185.991 529.48,184.275 527.899,202.499Z" style="fill:rgb(83,136,82);"/>
            <clipPath id="_clip3">
                <path d="M527.899,202.499C527.899,202.499 536.633,213.063 537.842,213.714C538.441,214.037 542.022,208.863 547.723,206.155C553.531,203.395 560.901,202.916 563.69,203.58C565.642,204.045 556.53,195.77 553.276,188.889C551.905,185.991 529.48,184.275 527.899,202.499Z"/>
            </clipPath>
            <g clip-path="url(#_clip3)">
                <g transform="matrix(0.952423,0.0866172,-0.0943822,1.03781,-128.397,-16.2456)">
                    <path d="M718.019,163.133C714.521,160.135 710.485,156.388 703.962,149.003L706.163,144.617C709.677,150.549 714.392,155.848 719.754,160.658L722.097,158.038C717.947,154.217 712.831,148.967 708.601,142.134L712.218,139.162C716.091,145.437 720.403,151.465 724.356,156.601L727.071,154.891C722.701,148.401 717.805,142.8 714.804,137.875L718.399,136.49C720.328,140.484 724.088,146.085 729.683,153.687L732.433,152.705C728.749,148.227 724.935,142.403 721.283,136.222L724.706,136.337C727.724,141.016 730.668,146.528 735.685,152.006L739.471,151.101C739.471,151.101 729.253,140.988 727.908,136.083" style="fill:none;stroke:black;stroke-opacity:0.1;stroke-width:1px;"/>
                </g>
            </g>
            <path d="M527.899,202.499C527.899,202.499 536.633,213.063 537.842,213.714C538.441,214.037 542.022,208.863 547.723,206.155C553.531,203.395 560.901,202.916 563.69,203.58C565.642,204.045 556.53,195.77 553.276,188.889C551.905,185.991 529.48,184.275 527.899,202.499Z" style="fill:none;stroke:black;stroke-width:1.33px;"/>
        </g>
        <g transform="matrix(1,0,0,1,-464.27,-80.1067)">
            <path d="M600.714,80.814C600.714,80.814 597.515,80.69 590.126,83.398C586.371,84.774 584.742,87.662 567.62,92.615C563.972,93.67 560.978,96.501 558.18,98.03C554.736,99.911 551.638,100.538 548.566,102.161C538.891,107.272 529.404,108.366 521.021,113.351C517.227,115.607 509.782,120.061 501.633,123.908C493.313,127.835 487.925,137.925 489.968,148.821C492.011,159.716 493.384,157.875 499.74,168.998C506.096,180.121 503.539,174.874 512.463,187.713C516.658,193.75 516.032,190.352 521.118,196.918C527.156,204.714 530.016,205.634 528.961,203.966C527.457,201.592 529.944,197.489 535.713,192.536C539.099,189.629 544.987,188.224 547.027,188.568C549.488,188.982 551.427,188.857 553.876,189.453C553.344,188.21 553.641,185.532 550.825,183.328C545.605,179.242 552.55,176.659 545.884,168.817C539.441,161.236 547.277,164.94 539.171,157.056C536.617,154.572 544.252,150.457 549.098,146.801C558.925,139.387 561.75,150.007 573.577,128.633C584.634,108.65 598.952,103.107 601.476,85.895C602.235,80.722 600.714,80.814 600.714,80.814Z" style="fill:rgb(209,44,44);stroke:black;stroke-width:1.33px;"/>
        </g>
        <g id="wrinkles2" serif:id="wrinkles" transform="matrix(1,0,0,1,0,-9.95498)">
            <g opacity="0.25">
                <path d="M51.308,50.903C51.308,50.903 61.421,54.274 66.366,53.6C71.31,52.925 67.939,54.274 76.03,61.241C84.12,68.208 83.446,69.556 82.997,76.074" style="fill:none;stroke:black;stroke-width:0.67px;"/>
                <path d="M45.914,101.245C45.914,101.245 55.353,103.043 63.444,100.571" style="fill:none;stroke:black;stroke-width:0.67px;"/>
                <path d="M61.421,125.293C61.421,125.293 66.59,125.068 71.759,121.922" style="fill:none;stroke:black;stroke-width:0.67px;"/>
                <path d="M119.63,19.439C119.63,19.439 107.269,30.451 105.696,39.441" style="fill:none;stroke:black;stroke-width:0.67px;"/>
                <g>
                    <path d="M110.172,61.19C110.172,61.19 144.939,42.581 151.12,42.862C157.3,43.142 160.39,45.39 165.728,49.604" style="fill:none;stroke:black;stroke-width:0.67px;"/>
                </g>
                <path d="M164.404,23.886C164.404,23.886 165.123,36.651 169.618,43.124" style="fill:none;stroke:black;stroke-width:0.67px;"/>
                <path d="M152.722,15.045C152.722,15.045 148.551,26.264 137.619,33.168" style="fill:none;stroke:black;stroke-width:0.67px;"/>
            </g>
        </g>
    </g>
    <g id="very-cool-inc.afdesign" serif:id="very cool inc.afdesign" transform="matrix(0.130469,0.284166,-0.264055,0.121236,142.935,98.1256)">
        <g transform="matrix(1,0,0,1,-125,-125)">
            <g id="rainbow" transform="matrix(1,0,0,1,-273.748,-274.974)">
                <path d="M414.992,450.558L468.477,450.558L468.477,511.715L338.377,511.715L338.377,450.558L392.692,450.558C392.826,456.598 397.771,461.46 403.842,461.46C409.914,461.46 414.859,456.598 414.992,450.558Z" style="fill:none;"/>
                <clipPath id="_clip4">
                    <path d="M414.992,450.558L468.477,450.558L468.477,511.715L338.377,511.715L338.377,450.558L392.692,450.558C392.826,456.598 397.771,461.46 403.842,461.46C409.914,461.46 414.859,456.598 414.992,450.558Z"/>
                </clipPath>
                <g clip-path="url(#_clip4)">
                    <g transform="matrix(-0.99837,1.22265e-16,-1.22664e-16,-1.00163,807.557,876.351)">
                        <circle cx="404.374" cy="425.35" r="59.715" style="fill:rgb(226,9,54);stroke:black;stroke-width:1.33px;stroke-linecap:butt;"/>
                    </g>
                    <g transform="matrix(-0.871252,1.06698e-16,-1.06698e-16,-0.871252,756.154,820.894)">
                        <circle cx="404.374" cy="425.35" r="59.715" style="fill:rgb(224,64,0);stroke:black;stroke-width:0.77px;"/>
                    </g>
                    <g transform="matrix(-0.770209,9.43234e-17,-9.43234e-17,-0.770209,715.294,777.916)">
                        <circle cx="404.374" cy="425.35" r="59.715" style="fill:rgb(255,210,0);stroke:black;stroke-width:0.87px;"/>
                    </g>
                    <g transform="matrix(-0.665906,8.155e-17,-8.155e-17,-0.665906,673.117,733.551)">
                        <circle cx="404.374" cy="425.35" r="59.715" style="fill:rgb(0,133,2);stroke:black;stroke-width:1px;"/>
                    </g>
                    <g transform="matrix(-0.564863,6.91758e-17,-6.91758e-17,-0.564863,632.258,690.572)">
                        <circle cx="404.374" cy="425.35" r="59.715" style="fill:rgb(0,208,241);stroke:black;stroke-width:1.18px;"/>
                    </g>
                    <g transform="matrix(-0.419817,5.14128e-17,-5.14128e-17,-0.419817,573.606,628.877)">
                        <circle cx="404.374" cy="425.35" r="59.715" style="fill:rgb(80,0,186);stroke:black;stroke-width:1.59px;"/>
                    </g>
                    <g transform="matrix(-0.295958,3.62444e-17,-3.62444e-17,-0.295958,523.52,576.193)">
                        <circle cx="404.374" cy="425.35" r="59.715" style="fill:rgb(0,78,193);stroke:black;stroke-width:2.25px;"/>
                    </g>
                    <path id="rainbow1" serif:id="rainbow" d="M344.224,450.558L392.692,450.558C392.826,456.598 397.771,461.46 403.842,461.46C409.914,461.46 414.859,456.598 414.992,450.558L463.46,450.558" style="fill:none;stroke:black;stroke-width:2.67px;stroke-linecap:butt;"/>
                </g>
            </g>
            <g id="inc" transform="matrix(1.92702,0,0,1.92702,-703.624,-634.134)">
                <g transform="matrix(12,0,0,12,482.33,405.431)">
                    <path d="M0.125,-0.095C0.14,-0.095 0.153,-0.089 0.164,-0.079C0.174,-0.068 0.179,-0.056 0.179,-0.041C0.179,-0.026 0.174,-0.013 0.163,-0.002C0.153,0.008 0.14,0.014 0.125,0.014C0.11,0.014 0.097,0.008 0.087,-0.002C0.076,-0.013 0.071,-0.026 0.071,-0.041C0.071,-0.056 0.076,-0.069 0.087,-0.079C0.097,-0.09 0.11,-0.095 0.125,-0.095Z" style="fill:rgb(0,208,241);fill-rule:nonzero;"/>
                    <path d="M0.125,-0.155C0.095,-0.155 0.07,-0.144 0.049,-0.123C0.026,-0.101 0.015,-0.073 0.015,-0.041C0.015,-0.008 0.026,0.019 0.049,0.042C0.07,0.063 0.095,0.074 0.125,0.074C0.155,0.074 0.18,0.063 0.201,0.042C0.224,0.019 0.235,-0.008 0.235,-0.041C0.235,-0.072 0.224,-0.1 0.202,-0.122C0.181,-0.144 0.156,-0.155 0.125,-0.155ZM0.125,-0.095C0.14,-0.095 0.153,-0.089 0.164,-0.079C0.174,-0.068 0.179,-0.056 0.179,-0.041C0.179,-0.026 0.174,-0.013 0.163,-0.002C0.153,0.008 0.14,0.014 0.125,0.014C0.11,0.014 0.097,0.008 0.087,-0.002C0.076,-0.013 0.071,-0.026 0.071,-0.041C0.071,-0.056 0.076,-0.069 0.087,-0.079C0.097,-0.09 0.11,-0.095 0.125,-0.095Z"/>
                </g>
                <g transform="matrix(12,0,0,12,477.232,405.431)">
                    <path d="M0.411,-0.17C0.399,-0.111 0.375,-0.066 0.34,-0.034C0.305,-0.002 0.266,0.014 0.224,0.014C0.173,0.014 0.129,-0.008 0.091,-0.05C0.053,-0.093 0.034,-0.151 0.034,-0.223C0.034,-0.293 0.055,-0.351 0.097,-0.395C0.139,-0.438 0.189,-0.46 0.248,-0.46C0.292,-0.46 0.328,-0.449 0.356,-0.426C0.384,-0.402 0.398,-0.378 0.398,-0.353C0.398,-0.341 0.394,-0.331 0.386,-0.323C0.378,-0.315 0.367,-0.312 0.353,-0.312C0.334,-0.312 0.319,-0.318 0.31,-0.33C0.304,-0.337 0.3,-0.35 0.299,-0.369C0.297,-0.388 0.29,-0.403 0.279,-0.413C0.267,-0.423 0.252,-0.428 0.231,-0.428C0.199,-0.428 0.173,-0.416 0.153,-0.392C0.126,-0.36 0.113,-0.318 0.113,-0.265C0.113,-0.212 0.126,-0.165 0.153,-0.124C0.179,-0.083 0.214,-0.063 0.259,-0.063C0.291,-0.063 0.319,-0.073 0.345,-0.095C0.363,-0.11 0.38,-0.137 0.397,-0.177L0.411,-0.17Z" style="fill:rgb(0,208,241);fill-rule:nonzero;"/>
                    <path d="M0.419,-0.232C0.391,-0.244 0.359,-0.231 0.346,-0.202C0.334,-0.174 0.323,-0.153 0.311,-0.143C0.31,-0.142 0.31,-0.142 0.31,-0.142C0.295,-0.129 0.278,-0.122 0.259,-0.122C0.233,-0.122 0.213,-0.134 0.198,-0.158C0.179,-0.189 0.169,-0.225 0.169,-0.265C0.169,-0.301 0.176,-0.33 0.194,-0.352C0.194,-0.352 0.194,-0.352 0.194,-0.352C0.204,-0.363 0.216,-0.368 0.231,-0.368C0.236,-0.368 0.24,-0.368 0.242,-0.367C0.243,-0.366 0.243,-0.364 0.243,-0.363C0.247,-0.327 0.257,-0.304 0.267,-0.291C0.287,-0.266 0.315,-0.252 0.353,-0.252C0.384,-0.252 0.407,-0.262 0.424,-0.278C0.443,-0.297 0.454,-0.322 0.454,-0.353C0.454,-0.394 0.436,-0.435 0.39,-0.473C0.352,-0.504 0.305,-0.52 0.248,-0.52C0.174,-0.52 0.111,-0.493 0.058,-0.437C0.006,-0.382 -0.021,-0.311 -0.021,-0.223C-0.021,-0.133 0.004,-0.062 0.051,-0.009C0.1,0.047 0.158,0.074 0.224,0.074C0.279,0.074 0.33,0.053 0.376,0.012C0.42,-0.028 0.45,-0.084 0.465,-0.157L0.462,-0.145C0.462,-0.145 0.48,-0.202 0.434,-0.225L0.419,-0.232ZM0.411,-0.17C0.399,-0.111 0.375,-0.066 0.34,-0.034C0.305,-0.002 0.266,0.014 0.224,0.014C0.173,0.014 0.129,-0.008 0.091,-0.05C0.053,-0.093 0.034,-0.151 0.034,-0.223C0.034,-0.293 0.055,-0.351 0.097,-0.395C0.139,-0.438 0.189,-0.46 0.248,-0.46C0.292,-0.46 0.328,-0.449 0.356,-0.426C0.384,-0.402 0.398,-0.378 0.398,-0.353C0.398,-0.341 0.394,-0.331 0.386,-0.323C0.378,-0.315 0.367,-0.312 0.353,-0.312C0.334,-0.312 0.319,-0.318 0.31,-0.33C0.304,-0.337 0.3,-0.35 0.299,-0.369C0.297,-0.388 0.29,-0.403 0.279,-0.413C0.267,-0.423 0.252,-0.428 0.231,-0.428C0.199,-0.428 0.173,-0.416 0.153,-0.392C0.126,-0.36 0.113,-0.318 0.113,-0.265C0.113,-0.212 0.126,-0.165 0.153,-0.124C0.179,-0.083 0.214,-0.063 0.259,-0.063C0.291,-0.062 0.319,-0.073 0.345,-0.095C0.363,-0.11 0.38,-0.137 0.397,-0.177L0.411,-0.17Z"/>
                </g>
                <g transform="matrix(12,0,0,12,471.46,405.431)">
                    <path d="M0.162,-0.366C0.214,-0.429 0.264,-0.46 0.312,-0.46C0.336,-0.46 0.357,-0.454 0.375,-0.442C0.392,-0.43 0.406,-0.41 0.417,-0.382C0.424,-0.362 0.427,-0.332 0.427,-0.292L0.427,-0.101C0.427,-0.073 0.43,-0.054 0.434,-0.043C0.438,-0.035 0.443,-0.029 0.451,-0.024C0.459,-0.02 0.474,-0.018 0.496,-0.018L0.496,-0L0.274,-0L0.274,-0.018L0.284,-0.018C0.305,-0.018 0.319,-0.021 0.327,-0.027C0.336,-0.033 0.341,-0.043 0.345,-0.055C0.346,-0.06 0.347,-0.075 0.347,-0.101L0.347,-0.284C0.347,-0.325 0.341,-0.354 0.331,-0.373C0.32,-0.391 0.302,-0.4 0.277,-0.4C0.239,-0.4 0.2,-0.379 0.162,-0.337L0.162,-0.101C0.162,-0.071 0.163,-0.052 0.167,-0.045C0.172,-0.035 0.178,-0.029 0.186,-0.024C0.194,-0.02 0.21,-0.018 0.234,-0.018L0.234,-0L0.013,-0L0.013,-0.018L0.023,-0.018C0.046,-0.018 0.061,-0.023 0.069,-0.035C0.077,-0.046 0.081,-0.069 0.081,-0.101L0.081,-0.267C0.081,-0.321 0.08,-0.354 0.077,-0.365C0.075,-0.377 0.071,-0.385 0.066,-0.389C0.061,-0.393 0.054,-0.396 0.046,-0.396C0.037,-0.396 0.026,-0.393 0.013,-0.388L0.006,-0.406L0.141,-0.46L0.162,-0.46L0.162,-0.366Z" style="fill:rgb(0,208,241);fill-rule:nonzero;"/>
                    <path d="M0.022,-0.412L-0.006,-0.445L-0,-0.446L-0.014,-0.462L0.121,-0.516C0.127,-0.519 0.132,-0.52 0.138,-0.52L0.161,-0.52C0.188,-0.52 0.201,-0.504 0.207,-0.486C0.243,-0.509 0.278,-0.52 0.312,-0.52C0.348,-0.52 0.379,-0.511 0.405,-0.492C0.431,-0.474 0.453,-0.446 0.468,-0.404C0.468,-0.404 0.468,-0.404 0.468,-0.404C0.477,-0.379 0.483,-0.342 0.483,-0.292L0.483,-0.101C0.483,-0.093 0.483,-0.085 0.484,-0.078C0.488,-0.078 0.492,-0.077 0.496,-0.077C0.515,-0.077 0.532,-0.067 0.542,-0.05C0.548,-0.04 0.551,-0.028 0.551,-0.017L0.551,-0C0.551,0.016 0.546,0.025 0.546,0.025C0.537,0.046 0.517,0.06 0.496,0.06L0.274,0.06C0.291,0.06 0.306,0.052 0.316,0.039L0.275,0.042L0.306,0.02L0.288,0.016C0.287,0.022 0.285,0.025 0.285,0.025C0.276,0.046 0.256,0.06 0.234,0.06L0.013,0.06C0.03,0.06 0.045,0.052 0.056,0.039C0.046,0.041 0.035,0.042 0.023,0.042L0.013,0.042L0.045,0.02L-0.042,-0L-0.042,-0.017L0.013,-0.004L0.013,-0L0.032,-0L0.052,0.005L0.049,0L0.234,-0L0.234,-0.018C0.21,-0.018 0.194,-0.02 0.186,-0.024C0.178,-0.029 0.172,-0.035 0.167,-0.045C0.163,-0.052 0.162,-0.071 0.162,-0.101L0.162,-0.337C0.2,-0.379 0.239,-0.4 0.277,-0.4C0.302,-0.4 0.32,-0.391 0.331,-0.373C0.341,-0.354 0.347,-0.325 0.347,-0.284L0.347,-0.101C0.347,-0.075 0.346,-0.06 0.345,-0.055C0.341,-0.043 0.336,-0.033 0.327,-0.027C0.321,-0.022 0.31,-0.019 0.295,-0.018L0.29,-0.023L0.29,-0.018L0.274,-0.018L0.274,0L0.293,-0L0.313,0.005L0.31,-0L0.496,-0L0.496,-0.018C0.474,-0.018 0.459,-0.02 0.451,-0.024C0.443,-0.029 0.438,-0.035 0.434,-0.043C0.43,-0.054 0.427,-0.073 0.427,-0.101L0.427,-0.292C0.427,-0.332 0.424,-0.362 0.417,-0.382C0.406,-0.41 0.392,-0.43 0.375,-0.442C0.357,-0.454 0.336,-0.46 0.312,-0.46C0.264,-0.46 0.214,-0.429 0.162,-0.366L0.162,-0.46L0.141,-0.46L0.022,-0.412ZM0.284,-0.34C0.283,-0.34 0.28,-0.34 0.277,-0.34C0.257,-0.34 0.237,-0.33 0.217,-0.311C0.217,-0.311 0.217,-0.101 0.217,-0.101C0.217,-0.093 0.218,-0.085 0.218,-0.078C0.223,-0.078 0.229,-0.077 0.234,-0.077C0.243,-0.077 0.251,-0.076 0.258,-0.072C0.26,-0.075 0.265,-0.077 0.275,-0.077L0.283,-0.077C0.284,-0.077 0.285,-0.077 0.286,-0.078L0.291,-0.078C0.291,-0.084 0.291,-0.093 0.291,-0.101L0.291,-0.284C0.291,-0.309 0.29,-0.328 0.284,-0.34ZM0.034,-0.018C0.006,-0.043 -0.025,-0.077 0.013,-0.077L0.023,-0.077L0.023,-0.077L0.024,-0.078C0.025,-0.084 0.025,-0.093 0.025,-0.101L0.025,-0.267C0.025,-0.314 0.025,-0.342 0.023,-0.352C0.023,-0.353 0.023,-0.354 0.023,-0.354C0.023,-0.354 0.024,-0.352 0.026,-0.35L0.039,-0.363L-0.038,-0.364C-0.038,-0.364 -0.045,-0.381 -0.045,-0.381L0.049,-0.381L0.037,-0.395C0.04,-0.395 0.043,-0.396 0.046,-0.396C0.054,-0.396 0.061,-0.393 0.066,-0.389C0.071,-0.385 0.075,-0.377 0.077,-0.365C0.08,-0.354 0.081,-0.321 0.081,-0.267L0.081,-0.101C0.081,-0.069 0.077,-0.046 0.069,-0.035C0.062,-0.025 0.051,-0.02 0.034,-0.018ZM0.045,-0.072C0.051,-0.069 0.056,-0.065 0.06,-0.06L0.062,-0.06C0.057,-0.065 0.052,-0.069 0.045,-0.072ZM0.026,-0.35C0.028,-0.347 0.03,-0.343 0.032,-0.342C0.035,-0.34 0.037,-0.337 0.041,-0.336C0.051,-0.343 0.059,-0.352 0.064,-0.363L0.059,-0.363L0.026,-0.35Z"/>
                </g>
                <g transform="matrix(12,0,0,12,467.692,405.431)">
                    <path d="M0.309,-0.018L0.309,-0L0.025,-0L0.025,-0.018L0.048,-0.018C0.076,-0.018 0.096,-0.026 0.108,-0.042C0.116,-0.052 0.12,-0.077 0.12,-0.117L0.12,-0.545C0.12,-0.578 0.118,-0.601 0.113,-0.611C0.11,-0.619 0.103,-0.626 0.093,-0.632C0.079,-0.64 0.064,-0.644 0.048,-0.644L0.025,-0.644L0.025,-0.662L0.309,-0.662L0.309,-0.644L0.285,-0.644C0.258,-0.644 0.238,-0.636 0.226,-0.62C0.217,-0.61 0.213,-0.585 0.213,-0.545L0.213,-0.117C0.213,-0.084 0.215,-0.062 0.22,-0.051C0.223,-0.043 0.23,-0.036 0.24,-0.03C0.254,-0.022 0.269,-0.018 0.285,-0.018L0.309,-0.018Z" style="fill:rgb(0,208,241);fill-rule:nonzero;"/>
                    <path d="M0.027,-0.662C0.008,-0.683 -0.004,-0.704 0.026,-0.704L0.036,-0.704L0.025,-0.722L0.309,-0.722C0.328,-0.722 0.345,-0.712 0.355,-0.694C0.361,-0.684 0.364,-0.673 0.364,-0.661L0.364,-0.644C0.364,-0.628 0.359,-0.619 0.359,-0.619C0.359,-0.619 0.347,-0.584 0.308,-0.584L0.285,-0.584C0.28,-0.584 0.275,-0.585 0.272,-0.584C0.271,-0.576 0.269,-0.559 0.269,-0.545L0.269,-0.117C0.269,-0.104 0.27,-0.089 0.271,-0.081C0.275,-0.079 0.28,-0.078 0.285,-0.078L0.308,-0.078C0.369,-0.078 0.359,0.007 0.359,0.007L0.364,-0.018L0.364,-0C0.364,0.016 0.359,0.025 0.359,0.025C0.35,0.046 0.33,0.06 0.309,0.06L0.025,0.06C0.041,0.06 0.055,0.053 0.065,0.041L0.026,0.042L0.056,0.02L-0.031,-0L-0.031,-0.018L0.025,-0.005L0.025,0L0.045,0L0.063,0.004L0.061,-0L0.309,-0L0.309,-0.018L0.285,-0.018C0.269,-0.018 0.254,-0.022 0.24,-0.03C0.23,-0.036 0.223,-0.043 0.22,-0.051C0.215,-0.062 0.213,-0.084 0.213,-0.117L0.213,-0.545C0.213,-0.585 0.217,-0.61 0.226,-0.62C0.238,-0.636 0.258,-0.644 0.285,-0.644L0.309,-0.644L0.309,-0.662L0.027,-0.662ZM0.025,-0.649L0.025,-0.644L0.045,-0.644L0.046,-0.644L0.046,-0.644L0.048,-0.644C0.064,-0.644 0.079,-0.64 0.093,-0.632C0.103,-0.626 0.11,-0.619 0.113,-0.611C0.118,-0.601 0.12,-0.578 0.12,-0.545L0.12,-0.117C0.12,-0.077 0.116,-0.052 0.108,-0.042C0.096,-0.026 0.076,-0.018 0.048,-0.018L0.046,-0.018C0.018,-0.043 -0.013,-0.078 0.026,-0.078L0.055,-0.078C0.057,-0.078 0.06,-0.077 0.061,-0.078C0.062,-0.086 0.064,-0.103 0.064,-0.117L0.064,-0.545C0.064,-0.559 0.063,-0.573 0.062,-0.582C0.058,-0.583 0.053,-0.584 0.048,-0.584L0.05,-0.584L0.026,-0.584L0.051,-0.602L0.025,-0.602L0.056,-0.624L-0.031,-0.644C-0.031,-0.644 -0.031,-0.662 -0.031,-0.662L0.025,-0.649Z"/>
                </g>
            </g>
            <g id="cool" transform="matrix(9.51752,0,0,9.51752,-2982.94,-2595.33)">
                <g transform="matrix(12,0,0,12,330.858,288.707)">
                    <path d="M0.185,-0.694L0.185,-0.101C0.185,-0.073 0.187,-0.055 0.191,-0.045C0.195,-0.036 0.201,-0.029 0.21,-0.025C0.218,-0.02 0.234,-0.018 0.257,-0.018L0.257,-0L0.038,-0L0.038,-0.018C0.059,-0.018 0.073,-0.02 0.08,-0.024C0.088,-0.028 0.093,-0.035 0.098,-0.045C0.102,-0.055 0.104,-0.073 0.104,-0.101L0.104,-0.507C0.104,-0.558 0.103,-0.589 0.101,-0.6C0.098,-0.612 0.095,-0.62 0.09,-0.624C0.085,-0.628 0.078,-0.63 0.07,-0.63C0.062,-0.63 0.051,-0.628 0.038,-0.623L0.03,-0.64L0.163,-0.694L0.185,-0.694Z" style="fill:rgb(255,210,0);fill-rule:nonzero;"/>
                    <path d="M0.196,-0.694C0.196,-0.701 0.191,-0.706 0.185,-0.706L0.163,-0.706C0.162,-0.706 0.16,-0.706 0.159,-0.706L0.026,-0.651C0.023,-0.65 0.02,-0.647 0.019,-0.644C0.018,-0.641 0.018,-0.637 0.02,-0.634L0.028,-0.617C0.031,-0.612 0.037,-0.609 0.042,-0.611C0.053,-0.616 0.063,-0.618 0.07,-0.618C0.075,-0.618 0.079,-0.617 0.083,-0.614C0.086,-0.612 0.088,-0.606 0.09,-0.598C0.092,-0.587 0.093,-0.556 0.093,-0.507C0.093,-0.507 0.093,-0.101 0.093,-0.101C0.093,-0.076 0.091,-0.059 0.087,-0.05C0.084,-0.043 0.08,-0.038 0.075,-0.035C0.068,-0.031 0.056,-0.03 0.038,-0.03C0.032,-0.03 0.027,-0.024 0.027,-0.018L0.027,0C0.027,0.007 0.032,0.012 0.038,0.012L0.257,0.012C0.264,0.012 0.269,0.007 0.269,0L0.269,-0.018C0.269,-0.024 0.264,-0.03 0.257,-0.03C0.237,-0.03 0.223,-0.031 0.215,-0.035C0.209,-0.039 0.204,-0.044 0.201,-0.051C0.198,-0.059 0.196,-0.076 0.196,-0.101C0.196,-0.101 0.196,-0.694 0.196,-0.694ZM0.185,-0.694L0.185,-0.101C0.185,-0.073 0.187,-0.055 0.191,-0.045C0.195,-0.036 0.201,-0.029 0.21,-0.025C0.218,-0.02 0.234,-0.018 0.257,-0.018L0.257,0L0.038,0L0.038,-0.018C0.059,-0.018 0.073,-0.02 0.08,-0.024C0.088,-0.028 0.093,-0.035 0.098,-0.045C0.102,-0.055 0.104,-0.073 0.104,-0.101L0.104,-0.507C0.104,-0.558 0.103,-0.589 0.101,-0.6C0.098,-0.612 0.095,-0.62 0.09,-0.624C0.085,-0.628 0.078,-0.63 0.07,-0.63C0.062,-0.63 0.051,-0.628 0.038,-0.623L0.03,-0.64L0.163,-0.694L0.185,-0.694Z"/>
                </g>
                <g transform="matrix(12,0,0,12,325.848,288.564)">
                    <path d="M0.25,-0.46C0.318,-0.46 0.372,-0.435 0.413,-0.383C0.448,-0.339 0.465,-0.289 0.465,-0.232C0.465,-0.192 0.456,-0.151 0.437,-0.11C0.417,-0.069 0.391,-0.038 0.357,-0.018C0.323,0.003 0.286,0.014 0.245,0.014C0.177,0.014 0.124,-0.013 0.084,-0.067C0.05,-0.112 0.034,-0.163 0.034,-0.219C0.034,-0.26 0.044,-0.301 0.064,-0.342C0.085,-0.382 0.111,-0.412 0.145,-0.431C0.178,-0.451 0.213,-0.46 0.25,-0.46ZM0.235,-0.429C0.218,-0.429 0.2,-0.424 0.183,-0.413C0.165,-0.403 0.151,-0.385 0.141,-0.359C0.13,-0.334 0.125,-0.301 0.125,-0.26C0.125,-0.195 0.137,-0.139 0.163,-0.092C0.189,-0.045 0.223,-0.021 0.266,-0.021C0.297,-0.021 0.323,-0.034 0.344,-0.06C0.364,-0.086 0.375,-0.131 0.375,-0.194C0.375,-0.274 0.357,-0.336 0.323,-0.382C0.3,-0.413 0.271,-0.429 0.235,-0.429Z" style="fill:rgb(224,64,0);fill-rule:nonzero;"/>
                    <path d="M0.25,-0.473C0.211,-0.473 0.174,-0.462 0.139,-0.442C0.104,-0.422 0.076,-0.39 0.054,-0.347C0.033,-0.305 0.022,-0.262 0.022,-0.219C0.022,-0.16 0.04,-0.107 0.075,-0.059C0.117,-0.003 0.174,0.026 0.245,0.026C0.288,0.026 0.327,0.015 0.363,-0.007C0.398,-0.029 0.426,-0.062 0.447,-0.105C0.467,-0.148 0.477,-0.19 0.477,-0.232C0.477,-0.292 0.458,-0.345 0.422,-0.391C0.422,-0.391 0.422,-0.391 0.422,-0.391C0.378,-0.445 0.321,-0.473 0.25,-0.473ZM0.25,-0.46C0.318,-0.46 0.372,-0.435 0.413,-0.383C0.448,-0.339 0.465,-0.289 0.465,-0.232C0.465,-0.192 0.456,-0.151 0.437,-0.11C0.417,-0.069 0.391,-0.038 0.357,-0.018C0.323,0.003 0.286,0.014 0.245,0.014C0.177,0.014 0.124,-0.013 0.084,-0.067C0.05,-0.112 0.034,-0.163 0.034,-0.219C0.034,-0.26 0.044,-0.301 0.064,-0.342C0.085,-0.382 0.111,-0.412 0.145,-0.431C0.178,-0.451 0.213,-0.46 0.25,-0.46ZM0.235,-0.429C0.218,-0.429 0.2,-0.424 0.183,-0.413C0.165,-0.403 0.151,-0.385 0.141,-0.359C0.13,-0.334 0.125,-0.301 0.125,-0.26C0.125,-0.195 0.137,-0.139 0.163,-0.092C0.189,-0.045 0.223,-0.021 0.266,-0.021C0.297,-0.021 0.323,-0.034 0.344,-0.06C0.364,-0.086 0.375,-0.131 0.375,-0.194C0.375,-0.274 0.357,-0.336 0.323,-0.382C0.3,-0.413 0.271,-0.429 0.235,-0.429ZM0.235,-0.417C0.267,-0.417 0.294,-0.402 0.314,-0.374C0.314,-0.374 0.314,-0.374 0.314,-0.374C0.347,-0.331 0.363,-0.27 0.363,-0.194C0.363,-0.135 0.354,-0.092 0.335,-0.068C0.317,-0.045 0.294,-0.033 0.266,-0.033C0.227,-0.033 0.197,-0.055 0.173,-0.098C0.148,-0.143 0.136,-0.198 0.136,-0.26C0.136,-0.299 0.141,-0.33 0.151,-0.354C0.16,-0.377 0.173,-0.394 0.188,-0.403C0.204,-0.412 0.219,-0.417 0.235,-0.417L0.235,-0.417Z"/>
                </g>
                <g transform="matrix(12,0,0,12,320.396,288.461)">
                    <path d="M0.25,-0.46C0.318,-0.46 0.372,-0.435 0.413,-0.383C0.448,-0.339 0.465,-0.289 0.465,-0.232C0.465,-0.192 0.456,-0.151 0.437,-0.11C0.417,-0.069 0.391,-0.038 0.357,-0.018C0.323,0.003 0.286,0.014 0.245,0.014C0.177,0.014 0.124,-0.013 0.084,-0.067C0.05,-0.112 0.034,-0.163 0.034,-0.219C0.034,-0.26 0.044,-0.301 0.064,-0.342C0.085,-0.382 0.111,-0.412 0.145,-0.431C0.178,-0.451 0.213,-0.46 0.25,-0.46ZM0.235,-0.429C0.218,-0.429 0.2,-0.424 0.183,-0.413C0.165,-0.403 0.151,-0.385 0.141,-0.359C0.13,-0.334 0.125,-0.301 0.125,-0.26C0.125,-0.195 0.137,-0.139 0.163,-0.092C0.189,-0.045 0.223,-0.021 0.266,-0.021C0.297,-0.021 0.323,-0.034 0.344,-0.06C0.364,-0.086 0.375,-0.131 0.375,-0.194C0.375,-0.274 0.357,-0.336 0.323,-0.382C0.3,-0.413 0.271,-0.429 0.235,-0.429Z" style="fill:rgb(226,9,54);fill-rule:nonzero;"/>
                    <path d="M0.25,-0.473C0.211,-0.473 0.174,-0.462 0.139,-0.442C0.104,-0.422 0.076,-0.39 0.054,-0.347C0.033,-0.305 0.022,-0.262 0.022,-0.219C0.022,-0.16 0.04,-0.107 0.075,-0.059C0.117,-0.003 0.174,0.026 0.245,0.026C0.288,0.026 0.327,0.015 0.363,-0.007C0.398,-0.029 0.426,-0.062 0.447,-0.105C0.467,-0.148 0.477,-0.19 0.477,-0.232C0.477,-0.292 0.458,-0.345 0.422,-0.391C0.422,-0.391 0.422,-0.391 0.422,-0.391C0.378,-0.445 0.321,-0.473 0.25,-0.473ZM0.25,-0.46C0.318,-0.46 0.372,-0.435 0.413,-0.383C0.448,-0.339 0.465,-0.289 0.465,-0.232C0.465,-0.192 0.456,-0.151 0.437,-0.11C0.417,-0.069 0.391,-0.038 0.357,-0.018C0.323,0.003 0.286,0.014 0.245,0.014C0.177,0.014 0.124,-0.013 0.084,-0.067C0.05,-0.112 0.034,-0.163 0.034,-0.219C0.034,-0.26 0.044,-0.301 0.064,-0.342C0.085,-0.382 0.111,-0.412 0.145,-0.431C0.178,-0.451 0.213,-0.46 0.25,-0.46ZM0.235,-0.429C0.218,-0.429 0.2,-0.424 0.183,-0.413C0.165,-0.403 0.151,-0.385 0.141,-0.359C0.13,-0.334 0.125,-0.301 0.125,-0.26C0.125,-0.195 0.137,-0.139 0.163,-0.092C0.189,-0.045 0.223,-0.021 0.266,-0.021C0.297,-0.021 0.323,-0.034 0.344,-0.06C0.364,-0.086 0.375,-0.131 0.375,-0.194C0.375,-0.274 0.357,-0.336 0.323,-0.382C0.3,-0.413 0.271,-0.429 0.235,-0.429ZM0.235,-0.417C0.267,-0.417 0.294,-0.402 0.314,-0.374C0.314,-0.374 0.314,-0.374 0.314,-0.374C0.347,-0.331 0.363,-0.27 0.363,-0.194C0.363,-0.135 0.354,-0.092 0.335,-0.068C0.317,-0.045 0.294,-0.033 0.266,-0.033C0.227,-0.033 0.197,-0.055 0.173,-0.098C0.148,-0.143 0.136,-0.198 0.136,-0.26C0.136,-0.299 0.141,-0.33 0.151,-0.354C0.16,-0.377 0.173,-0.394 0.188,-0.403C0.204,-0.412 0.219,-0.417 0.235,-0.417L0.235,-0.417Z"/>
                </g>
                <g transform="matrix(10.9256,0,0,12,313.833,288.707)">
                    <path d="M0.602,-0.677L0.617,-0.452L0.602,-0.452C0.582,-0.52 0.553,-0.568 0.516,-0.598C0.478,-0.627 0.433,-0.642 0.381,-0.642C0.337,-0.642 0.297,-0.631 0.262,-0.609C0.226,-0.586 0.198,-0.551 0.178,-0.502C0.158,-0.453 0.147,-0.392 0.147,-0.32C0.147,-0.26 0.157,-0.208 0.176,-0.164C0.195,-0.12 0.224,-0.086 0.263,-0.063C0.302,-0.04 0.346,-0.028 0.395,-0.028C0.438,-0.028 0.476,-0.037 0.509,-0.055C0.542,-0.074 0.578,-0.11 0.617,-0.165L0.632,-0.155C0.599,-0.096 0.56,-0.053 0.516,-0.026C0.472,0.001 0.419,0.015 0.358,0.015C0.249,0.015 0.164,-0.026 0.104,-0.107C0.059,-0.167 0.036,-0.239 0.036,-0.321C0.036,-0.387 0.051,-0.448 0.081,-0.503C0.11,-0.558 0.151,-0.601 0.203,-0.632C0.255,-0.662 0.312,-0.677 0.373,-0.677C0.421,-0.677 0.468,-0.666 0.515,-0.642C0.528,-0.635 0.538,-0.631 0.544,-0.631C0.553,-0.631 0.56,-0.634 0.567,-0.641C0.575,-0.649 0.581,-0.662 0.585,-0.677L0.602,-0.677Z" style="fill:rgb(0,208,241);fill-rule:nonzero;"/>
                    <path d="M0.617,-0.44L0.601,-0.44C0.596,-0.44 0.592,-0.444 0.59,-0.449C0.571,-0.513 0.544,-0.56 0.508,-0.588C0.473,-0.616 0.43,-0.63 0.381,-0.63C0.339,-0.63 0.302,-0.62 0.268,-0.598C0.235,-0.577 0.209,-0.544 0.189,-0.497C0.17,-0.45 0.16,-0.391 0.16,-0.32C0.16,-0.262 0.169,-0.211 0.188,-0.169C0.206,-0.127 0.233,-0.095 0.269,-0.073C0.306,-0.051 0.348,-0.04 0.395,-0.04C0.436,-0.04 0.472,-0.049 0.503,-0.066C0.534,-0.084 0.569,-0.119 0.607,-0.172C0.611,-0.177 0.618,-0.179 0.624,-0.175L0.639,-0.165C0.644,-0.162 0.646,-0.155 0.643,-0.149C0.609,-0.088 0.569,-0.044 0.523,-0.016C0.477,0.013 0.422,0.027 0.358,0.027C0.244,0.027 0.156,-0.015 0.094,-0.1C0.047,-0.162 0.024,-0.236 0.024,-0.321C0.024,-0.389 0.039,-0.451 0.07,-0.509C0.1,-0.566 0.143,-0.61 0.197,-0.642C0.25,-0.674 0.309,-0.689 0.373,-0.689C0.423,-0.689 0.472,-0.677 0.52,-0.653C0.52,-0.653 0.52,-0.653 0.52,-0.653C0.532,-0.647 0.539,-0.643 0.544,-0.643C0.549,-0.643 0.554,-0.645 0.558,-0.649C0.565,-0.657 0.57,-0.667 0.573,-0.68C0.574,-0.685 0.579,-0.689 0.585,-0.689L0.602,-0.689C0.609,-0.689 0.614,-0.684 0.614,-0.678L0.629,-0.453C0.63,-0.451 0.629,-0.449 0.628,-0.447C0.628,-0.447 0.627,-0.443 0.622,-0.441C0.62,-0.44 0.619,-0.44 0.617,-0.44ZM0.602,-0.677L0.617,-0.452L0.602,-0.452C0.582,-0.52 0.553,-0.568 0.516,-0.598C0.478,-0.627 0.433,-0.642 0.381,-0.642C0.337,-0.642 0.297,-0.631 0.262,-0.609C0.226,-0.586 0.198,-0.551 0.178,-0.502C0.158,-0.453 0.147,-0.392 0.147,-0.32C0.147,-0.26 0.157,-0.208 0.176,-0.164C0.195,-0.12 0.224,-0.086 0.263,-0.063C0.302,-0.04 0.346,-0.028 0.395,-0.028C0.438,-0.028 0.476,-0.037 0.509,-0.055C0.542,-0.074 0.578,-0.11 0.617,-0.165L0.632,-0.155C0.599,-0.096 0.56,-0.053 0.516,-0.026C0.472,0.001 0.419,0.015 0.358,0.015C0.249,0.015 0.164,-0.026 0.104,-0.107C0.059,-0.167 0.036,-0.239 0.036,-0.321C0.036,-0.387 0.051,-0.448 0.081,-0.503C0.11,-0.558 0.151,-0.601 0.203,-0.632C0.255,-0.662 0.312,-0.677 0.373,-0.677C0.421,-0.677 0.468,-0.666 0.515,-0.642C0.528,-0.635 0.538,-0.631 0.544,-0.631C0.553,-0.631 0.56,-0.634 0.567,-0.641C0.575,-0.649 0.581,-0.662 0.585,-0.677L0.602,-0.677Z"/>
                </g>
            </g>
            <g id="very" transform="matrix(9.51752,0,0,9.51752,-2943.98,-2658.9)">
                <g transform="matrix(12,0,0,12,328.848,288.707)">
                    <path d="M0.006,-0.447L0.214,-0.447L0.214,-0.429L0.204,-0.429C0.189,-0.429 0.178,-0.426 0.171,-0.42C0.164,-0.413 0.16,-0.405 0.16,-0.396C0.16,-0.383 0.166,-0.366 0.176,-0.343L0.285,-0.118L0.385,-0.365C0.391,-0.378 0.394,-0.391 0.394,-0.404C0.394,-0.41 0.392,-0.415 0.39,-0.417C0.388,-0.421 0.383,-0.424 0.378,-0.426C0.372,-0.428 0.363,-0.429 0.349,-0.429L0.349,-0.447L0.494,-0.447L0.494,-0.429C0.482,-0.428 0.473,-0.425 0.466,-0.421C0.46,-0.417 0.453,-0.41 0.445,-0.399C0.442,-0.395 0.436,-0.382 0.428,-0.362L0.246,0.084C0.229,0.128 0.205,0.16 0.177,0.183C0.149,0.205 0.121,0.216 0.095,0.216C0.076,0.216 0.06,0.21 0.047,0.199C0.035,0.188 0.029,0.175 0.029,0.161C0.029,0.147 0.033,0.136 0.042,0.128C0.051,0.12 0.063,0.116 0.079,0.116C0.09,0.116 0.104,0.119 0.123,0.126C0.136,0.131 0.144,0.134 0.147,0.134C0.157,0.134 0.168,0.129 0.179,0.119C0.191,0.109 0.203,0.089 0.214,0.06L0.246,-0.018L0.085,-0.355C0.081,-0.365 0.073,-0.378 0.062,-0.393C0.054,-0.404 0.047,-0.412 0.042,-0.416C0.035,-0.421 0.022,-0.425 0.006,-0.429L0.006,-0.447Z" style="fill:rgb(0,208,241);fill-rule:nonzero;"/>
                    <path d="M0.214,-0.417L0.204,-0.417C0.193,-0.417 0.184,-0.415 0.178,-0.41C0.174,-0.406 0.171,-0.402 0.171,-0.396C0.171,-0.385 0.177,-0.369 0.186,-0.349C0.186,-0.349 0.284,-0.146 0.284,-0.146L0.375,-0.37C0.38,-0.381 0.382,-0.393 0.382,-0.404C0.382,-0.407 0.382,-0.409 0.381,-0.41C0.381,-0.41 0.381,-0.41 0.381,-0.41C0.38,-0.412 0.377,-0.413 0.374,-0.415C0.369,-0.416 0.361,-0.417 0.349,-0.417C0.342,-0.417 0.337,-0.423 0.337,-0.429L0.337,-0.447C0.337,-0.454 0.342,-0.459 0.349,-0.459L0.494,-0.459C0.5,-0.459 0.505,-0.454 0.505,-0.447L0.505,-0.429C0.505,-0.423 0.501,-0.418 0.495,-0.417C0.485,-0.416 0.477,-0.414 0.472,-0.411C0.466,-0.408 0.46,-0.401 0.454,-0.392L0.454,-0.392C0.451,-0.387 0.446,-0.376 0.439,-0.357L0.256,0.089C0.238,0.135 0.214,0.169 0.184,0.192C0.153,0.216 0.123,0.228 0.095,0.228C0.073,0.228 0.054,0.221 0.04,0.209C0.025,0.195 0.018,0.179 0.018,0.161C0.018,0.144 0.023,0.13 0.035,0.119C0.046,0.109 0.06,0.104 0.079,0.104C0.091,0.104 0.107,0.107 0.127,0.115C0.138,0.119 0.145,0.122 0.147,0.122C0.155,0.122 0.163,0.117 0.172,0.109C0.183,0.1 0.193,0.082 0.204,0.055L0.234,-0.017C0.234,-0.017 0.075,-0.349 0.075,-0.349C0.071,-0.359 0.063,-0.371 0.053,-0.385C0.053,-0.385 0.053,-0.385 0.053,-0.385C0.046,-0.395 0.04,-0.402 0.036,-0.406C0.029,-0.41 0.018,-0.414 0.003,-0.417C-0.002,-0.419 -0.005,-0.423 -0.005,-0.429L-0.005,-0.447C-0.005,-0.454 -0,-0.459 0.006,-0.459L0.214,-0.459C0.221,-0.459 0.226,-0.454 0.226,-0.447L0.226,-0.429C0.226,-0.427 0.225,-0.426 0.225,-0.424C0.225,-0.424 0.223,-0.419 0.217,-0.417L0.217,-0.417C0.216,-0.417 0.215,-0.417 0.214,-0.417ZM0.006,-0.447L0.214,-0.447L0.214,-0.429L0.204,-0.429C0.189,-0.429 0.178,-0.426 0.171,-0.42C0.164,-0.413 0.16,-0.405 0.16,-0.396C0.16,-0.383 0.166,-0.366 0.176,-0.343L0.285,-0.118L0.385,-0.365C0.391,-0.378 0.394,-0.391 0.394,-0.404C0.394,-0.41 0.392,-0.415 0.39,-0.417C0.388,-0.421 0.383,-0.424 0.378,-0.426C0.372,-0.428 0.363,-0.429 0.349,-0.429L0.349,-0.447L0.494,-0.447L0.494,-0.429C0.482,-0.428 0.473,-0.425 0.466,-0.421C0.46,-0.417 0.453,-0.41 0.445,-0.399C0.442,-0.395 0.436,-0.382 0.428,-0.362L0.246,0.084C0.229,0.128 0.205,0.16 0.177,0.183C0.149,0.205 0.121,0.216 0.095,0.216C0.076,0.216 0.06,0.21 0.047,0.199C0.035,0.188 0.029,0.175 0.029,0.161C0.029,0.147 0.033,0.136 0.042,0.128C0.051,0.12 0.063,0.116 0.079,0.116C0.09,0.116 0.104,0.119 0.123,0.126C0.136,0.131 0.144,0.134 0.147,0.134C0.157,0.134 0.168,0.129 0.179,0.119C0.191,0.109 0.203,0.089 0.214,0.06L0.246,-0.018L0.085,-0.355C0.081,-0.365 0.073,-0.378 0.062,-0.393C0.054,-0.404 0.047,-0.412 0.042,-0.416C0.035,-0.421 0.022,-0.425 0.006,-0.429L0.006,-0.447Z"/>
                </g>
                <g transform="matrix(12,0,0,12,324.78,288.707)">
                    <path d="M0.162,-0.46L0.162,-0.36C0.2,-0.427 0.238,-0.46 0.277,-0.46C0.295,-0.46 0.31,-0.455 0.322,-0.444C0.333,-0.433 0.339,-0.421 0.339,-0.406C0.339,-0.394 0.335,-0.383 0.327,-0.374C0.318,-0.365 0.308,-0.361 0.296,-0.361C0.285,-0.361 0.272,-0.366 0.258,-0.378C0.244,-0.389 0.233,-0.395 0.227,-0.395C0.221,-0.395 0.214,-0.391 0.208,-0.385C0.193,-0.371 0.178,-0.349 0.162,-0.319L0.162,-0.104C0.162,-0.08 0.165,-0.061 0.171,-0.048C0.176,-0.04 0.183,-0.032 0.194,-0.026C0.205,-0.021 0.22,-0.018 0.24,-0.018L0.24,-0L0.011,-0L0.011,-0.018C0.034,-0.018 0.051,-0.021 0.062,-0.028C0.07,-0.034 0.076,-0.042 0.079,-0.053C0.081,-0.059 0.082,-0.075 0.082,-0.101L0.082,-0.274C0.082,-0.326 0.08,-0.357 0.078,-0.367C0.076,-0.377 0.072,-0.384 0.067,-0.389C0.061,-0.393 0.054,-0.396 0.045,-0.396C0.035,-0.396 0.024,-0.393 0.011,-0.388L0.006,-0.406L0.142,-0.46L0.162,-0.46Z" style="fill:rgb(255,210,0);fill-rule:nonzero;"/>
                    <path d="M0.173,-0.46C0.173,-0.467 0.168,-0.473 0.162,-0.473L0.142,-0.473C0.14,-0.473 0.139,-0.472 0.138,-0.472L0.002,-0.417C-0.003,-0.415 -0.006,-0.408 -0.004,-0.402L0,-0.385C0.001,-0.382 0.003,-0.379 0.006,-0.377C0.009,-0.376 0.012,-0.376 0.015,-0.377C0.026,-0.381 0.036,-0.383 0.045,-0.383C0.051,-0.383 0.056,-0.382 0.06,-0.379C0.064,-0.376 0.066,-0.371 0.067,-0.364C0.069,-0.355 0.07,-0.324 0.07,-0.274L0.07,-0.101C0.07,-0.077 0.07,-0.062 0.068,-0.057C0.068,-0.057 0.068,-0.057 0.068,-0.057C0.066,-0.049 0.062,-0.042 0.056,-0.039C0.056,-0.039 0.056,-0.039 0.056,-0.039C0.046,-0.032 0.031,-0.03 0.011,-0.03C0.005,-0.03 -0,-0.024 -0,-0.018L-0,-0C-0,0.007 0.005,0.012 0.011,0.012L0.24,0.012C0.246,0.012 0.252,0.007 0.252,-0L0.252,-0.018C0.252,-0.024 0.246,-0.03 0.24,-0.03C0.222,-0.03 0.208,-0.032 0.199,-0.037C0.191,-0.042 0.185,-0.047 0.181,-0.054C0.181,-0.054 0.181,-0.054 0.181,-0.054C0.176,-0.065 0.173,-0.082 0.173,-0.104C0.173,-0.104 0.173,-0.316 0.173,-0.316C0.188,-0.343 0.201,-0.363 0.215,-0.376C0.215,-0.376 0.215,-0.376 0.215,-0.376C0.219,-0.38 0.223,-0.382 0.227,-0.382C0.229,-0.382 0.231,-0.381 0.235,-0.379C0.239,-0.377 0.245,-0.373 0.251,-0.368C0.268,-0.355 0.283,-0.349 0.296,-0.349C0.311,-0.349 0.324,-0.354 0.334,-0.365C0.345,-0.376 0.351,-0.39 0.351,-0.406C0.351,-0.424 0.344,-0.44 0.329,-0.453C0.315,-0.466 0.298,-0.473 0.277,-0.473C0.242,-0.473 0.207,-0.449 0.173,-0.4C0.173,-0.4 0.173,-0.46 0.173,-0.46ZM0.162,-0.46L0.162,-0.36C0.2,-0.427 0.238,-0.46 0.277,-0.46C0.295,-0.46 0.31,-0.455 0.322,-0.444C0.333,-0.433 0.339,-0.421 0.339,-0.406C0.339,-0.394 0.335,-0.383 0.327,-0.374C0.318,-0.365 0.308,-0.361 0.296,-0.361C0.285,-0.361 0.272,-0.366 0.258,-0.378C0.244,-0.389 0.233,-0.395 0.227,-0.395C0.221,-0.395 0.214,-0.391 0.208,-0.385C0.193,-0.371 0.178,-0.349 0.162,-0.319L0.162,-0.104C0.162,-0.08 0.165,-0.061 0.171,-0.048C0.176,-0.04 0.183,-0.032 0.194,-0.026C0.205,-0.021 0.22,-0.018 0.24,-0.018L0.24,-0L0.011,0L0.011,-0.018C0.034,-0.018 0.051,-0.021 0.062,-0.028C0.07,-0.034 0.076,-0.042 0.079,-0.053C0.081,-0.059 0.082,-0.075 0.082,-0.101L0.082,-0.274C0.082,-0.326 0.08,-0.357 0.078,-0.367C0.076,-0.377 0.072,-0.384 0.067,-0.389C0.061,-0.393 0.054,-0.396 0.045,-0.396C0.035,-0.396 0.024,-0.393 0.011,-0.388L0.006,-0.406L0.142,-0.46L0.162,-0.46Z"/>
                </g>
                <g transform="matrix(12,0,0,12,319.873,288.707)">
                    <path d="M0.106,-0.279C0.106,-0.212 0.122,-0.16 0.155,-0.123C0.187,-0.085 0.226,-0.066 0.27,-0.066C0.299,-0.066 0.324,-0.074 0.346,-0.09C0.368,-0.106 0.386,-0.134 0.4,-0.173L0.416,-0.163C0.409,-0.118 0.389,-0.078 0.356,-0.041C0.323,-0.005 0.282,0.014 0.232,0.014C0.179,0.014 0.133,-0.007 0.094,-0.049C0.056,-0.091 0.037,-0.147 0.037,-0.218C0.037,-0.294 0.057,-0.354 0.096,-0.397C0.135,-0.44 0.184,-0.461 0.244,-0.461C0.294,-0.461 0.335,-0.444 0.367,-0.411C0.399,-0.378 0.416,-0.334 0.416,-0.279L0.106,-0.279ZM0.106,-0.307L0.313,-0.307C0.312,-0.336 0.308,-0.356 0.303,-0.368C0.295,-0.386 0.283,-0.4 0.267,-0.411C0.251,-0.421 0.234,-0.426 0.216,-0.426C0.189,-0.426 0.165,-0.416 0.144,-0.395C0.122,-0.374 0.11,-0.345 0.106,-0.307Z" style="fill:rgb(224,64,0);fill-rule:nonzero;"/>
                    <path d="M0.118,-0.267C0.118,-0.267 0.416,-0.267 0.416,-0.267C0.422,-0.267 0.427,-0.272 0.427,-0.279C0.427,-0.338 0.409,-0.385 0.375,-0.42C0.341,-0.455 0.297,-0.473 0.244,-0.473C0.181,-0.473 0.129,-0.45 0.088,-0.405C0.047,-0.36 0.026,-0.298 0.026,-0.218C0.026,-0.144 0.046,-0.085 0.086,-0.041C0.127,0.004 0.176,0.026 0.232,0.026C0.285,0.026 0.329,0.006 0.364,-0.033C0.399,-0.071 0.419,-0.114 0.427,-0.161C0.427,-0.166 0.425,-0.171 0.421,-0.173L0.406,-0.183C0.403,-0.185 0.4,-0.185 0.397,-0.184C0.394,-0.183 0.391,-0.181 0.39,-0.177C0.376,-0.141 0.36,-0.115 0.34,-0.1C0.32,-0.085 0.296,-0.078 0.27,-0.078C0.229,-0.078 0.193,-0.096 0.163,-0.131C0.134,-0.164 0.119,-0.21 0.118,-0.267ZM0.106,-0.279C0.106,-0.212 0.122,-0.16 0.155,-0.123C0.187,-0.085 0.226,-0.066 0.27,-0.066C0.299,-0.066 0.324,-0.074 0.346,-0.09C0.368,-0.106 0.386,-0.134 0.4,-0.173L0.416,-0.163C0.409,-0.118 0.389,-0.078 0.356,-0.041C0.323,-0.005 0.282,0.014 0.232,0.014C0.179,0.014 0.133,-0.007 0.094,-0.049C0.056,-0.091 0.037,-0.147 0.037,-0.218C0.037,-0.294 0.057,-0.354 0.096,-0.397C0.135,-0.44 0.184,-0.461 0.244,-0.461C0.294,-0.461 0.335,-0.444 0.367,-0.411C0.399,-0.378 0.416,-0.334 0.416,-0.279L0.106,-0.279ZM0.106,-0.307L0.313,-0.307C0.312,-0.336 0.308,-0.356 0.303,-0.368C0.295,-0.386 0.283,-0.4 0.267,-0.411C0.251,-0.421 0.234,-0.426 0.216,-0.426C0.189,-0.426 0.165,-0.416 0.144,-0.395C0.122,-0.374 0.11,-0.345 0.106,-0.307ZM0.119,-0.319C0.124,-0.347 0.135,-0.369 0.151,-0.386C0.171,-0.405 0.192,-0.414 0.216,-0.414C0.232,-0.414 0.247,-0.409 0.261,-0.4C0.275,-0.391 0.286,-0.378 0.293,-0.362C0.297,-0.353 0.3,-0.339 0.301,-0.319L0.119,-0.319Z"/>
                </g>
                <g transform="matrix(12,0,0,12,313.654,288.707)">
                    <path d="M0.71,-0.662L0.71,-0.644C0.687,-0.64 0.669,-0.632 0.657,-0.622C0.639,-0.606 0.624,-0.581 0.611,-0.548L0.38,0.015L0.362,0.015L0.114,-0.556C0.101,-0.585 0.092,-0.603 0.087,-0.609C0.079,-0.619 0.069,-0.627 0.057,-0.633C0.045,-0.639 0.029,-0.642 0.009,-0.644L0.009,-0.662L0.279,-0.662L0.279,-0.644C0.249,-0.641 0.229,-0.636 0.22,-0.628C0.211,-0.621 0.206,-0.611 0.206,-0.6C0.206,-0.583 0.214,-0.558 0.229,-0.523L0.397,-0.135L0.553,-0.519C0.569,-0.556 0.576,-0.583 0.576,-0.597C0.576,-0.607 0.571,-0.616 0.562,-0.624C0.553,-0.633 0.537,-0.639 0.514,-0.643C0.513,-0.643 0.51,-0.643 0.506,-0.644L0.506,-0.662L0.71,-0.662Z" style="fill:rgb(226,9,54);fill-rule:nonzero;"/>
                    <path d="M0.721,-0.662C0.721,-0.669 0.716,-0.674 0.71,-0.674L0.506,-0.674C0.5,-0.674 0.495,-0.669 0.495,-0.662L0.495,-0.644C0.495,-0.638 0.499,-0.633 0.504,-0.632L0.513,-0.631C0.532,-0.627 0.546,-0.623 0.555,-0.615C0.561,-0.609 0.565,-0.604 0.565,-0.597C0.565,-0.583 0.557,-0.559 0.543,-0.523C0.543,-0.523 0.397,-0.165 0.397,-0.165C0.397,-0.165 0.239,-0.529 0.239,-0.529C0.225,-0.561 0.217,-0.584 0.217,-0.6C0.217,-0.607 0.22,-0.614 0.227,-0.619C0.235,-0.626 0.253,-0.629 0.28,-0.632C0.286,-0.633 0.291,-0.638 0.291,-0.644L0.291,-0.662C0.291,-0.669 0.286,-0.674 0.279,-0.674L0.009,-0.674C0.003,-0.674 -0.002,-0.669 -0.002,-0.662L-0.002,-0.644C-0.002,-0.638 0.002,-0.632 0.008,-0.632C0.027,-0.63 0.041,-0.627 0.052,-0.622C0.063,-0.617 0.071,-0.61 0.078,-0.601C0.083,-0.595 0.092,-0.578 0.104,-0.551L0.352,0.02C0.353,0.025 0.357,0.027 0.362,0.027L0.38,0.027C0.384,0.027 0.388,0.024 0.39,0.02L0.621,-0.543C0.634,-0.574 0.648,-0.597 0.664,-0.612C0.675,-0.622 0.691,-0.628 0.712,-0.632C0.717,-0.633 0.721,-0.638 0.721,-0.644L0.721,-0.662ZM0.71,-0.662L0.71,-0.644C0.687,-0.64 0.669,-0.632 0.657,-0.622C0.639,-0.606 0.624,-0.581 0.611,-0.548L0.38,0.015L0.362,0.015L0.114,-0.556C0.101,-0.585 0.092,-0.603 0.087,-0.609C0.079,-0.619 0.069,-0.627 0.057,-0.633C0.045,-0.639 0.029,-0.642 0.009,-0.644L0.009,-0.662L0.279,-0.662L0.279,-0.644C0.249,-0.641 0.229,-0.636 0.22,-0.628C0.211,-0.621 0.206,-0.611 0.206,-0.6C0.206,-0.583 0.214,-0.558 0.229,-0.523L0.397,-0.135L0.553,-0.519C0.569,-0.556 0.576,-0.583 0.576,-0.597C0.576,-0.607 0.571,-0.616 0.562,-0.624C0.553,-0.633 0.537,-0.639 0.514,-0.643C0.513,-0.643 0.51,-0.643 0.506,-0.644L0.506,-0.662L0.71,-0.662Z"/>
                </g>
            </g>
        </g>
    </g>
</svg>
