<?xml version="1.0" encoding="UTF-8" standalone="no"?>
<!DOCTYPE svg PUBLIC "-//W3C//DTD SVG 1.1//EN" "http://www.w3.org/Graphics/SVG/1.1/DTD/svg11.dtd">
<svg width="100%" height="100%" viewBox="0 0 345 170" version="1.1" xmlns="http://www.w3.org/2000/svg" xmlns:xlink="http://www.w3.org/1999/xlink" xml:space="preserve" xmlns:serif="http://www.serif.com/" style="fill-rule:evenodd;clip-rule:evenodd;stroke-linecap:round;stroke-linejoin:round;stroke-miterlimit:1.5;">
    <g id="body" transform="matrix(1,0,0,1,0,9.95498)">
        <g transform="matrix(1,0,0,1.01291,-464.27,-81.8868)">
            <path d="M498.833,225.872C503.506,225.248 501.991,136.198 496.95,137.998C493.808,139.12 482.536,140.696 475.276,139.668C472.562,139.284 476.214,148.776 475.519,163.603C474.942,175.908 477.414,193.472 478.023,207.033C478.565,219.095 475.796,229.729 475.149,231.514C474.597,233.035 498.833,225.872 498.833,225.872Z" style="fill:rgb(209,44,44);stroke:black;stroke-width:0.99px;"/>
        </g>
        <g transform="matrix(1,0,0,0.99197,-464.27,-78.2762)">
            <path d="M494.443,137.4C493.119,134.439 506.467,134.655 520.91,128.379C540.542,119.849 565.476,105.117 589.184,97.37C601.975,93.19 613.638,91.044 625.668,93.003C640.74,95.458 643.488,103.142 652.287,107.098C631.772,115.385 640.759,135.304 648.778,146.345C657.093,158.343 683.834,170.134 687.717,161.585C688.394,160.097 690.293,158.559 689.224,155.689C697.941,158.362 695.5,165.916 696.662,170.682C697.824,175.447 700.73,176.377 702.59,178.352C704.449,180.328 706.151,181.502 709.172,182.199C712.194,182.896 706.453,183.845 714.356,184.891C722.259,185.937 715.421,186.919 721.232,190.987C727.043,195.055 731.454,214.945 703.096,219.361C694.227,220.742 680.094,219.043 677.921,219.893C674.84,221.098 656.407,218.67 646.662,221.386C632.483,225.338 641.199,222.548 633.994,222.781C630.123,222.906 608.05,222.071 581.454,223.75C558.533,225.198 535.962,231.429 522.047,229.14C499.806,225.483 499.91,227.244 498.03,228.101C497.707,228.248 499.543,222.079 499.796,212.287C500.102,200.406 498.764,183.469 497.192,169.549C495.682,156.176 497.18,143.523 494.443,137.4Z" style="fill:rgb(39,104,153);stroke:black;stroke-width:1px;"/>
        </g>
        <g transform="matrix(1,0,0,1,-464.27,-80.1067)">
            <path d="M650.834,107.235C647.327,108.734 625.811,118.129 645.048,147.139C655.757,163.289 668.399,166.906 677.143,166.926C685.531,166.945 691.188,163.119 690.608,162.313C689.289,160.481 691.86,153.771 693.536,148.284C693.688,147.784 693.045,147.506 693.186,147.028C690.402,151.811 674.913,146.868 667.583,142.91C659.471,138.53 655.197,129.707 660.901,114.01C656.996,114.161 652.684,106.444 650.834,107.235Z" style="fill:rgb(255,224,79);"/>
            <clipPath id="_clip1">
                <path d="M650.834,107.235C647.327,108.734 625.811,118.129 645.048,147.139C655.757,163.289 668.399,166.906 677.143,166.926C685.531,166.945 691.188,163.119 690.608,162.313C689.289,160.481 691.86,153.771 693.536,148.284C693.688,147.784 693.045,147.506 693.186,147.028C690.402,151.811 674.913,146.868 667.583,142.91C659.471,138.53 655.197,129.707 660.901,114.01C656.996,114.161 652.684,106.444 650.834,107.235Z"/>
            </clipPath>
            <g clip-path="url(#_clip1)">
                <path d="M692.18,146.58C690.29,153.408 688.728,159.483 689.832,163.816L687.927,165.663C687.089,165.574 688.621,150.506 689.484,146.952C690.061,144.577 686.555,146.626 686.555,146.626C685.965,148.811 685.262,155.095 684.486,167.012L680.767,168.22C680.248,166.922 682.154,146.468 683.557,145.557C685.476,144.31 679.256,144.511 679.256,144.511C677.599,151.17 676.218,158.934 675.305,168.569L670.191,167.755C669.771,165.934 675.911,143.922 676.583,143.697C678.161,143.17 672.399,142.07 672.399,142.07C669.705,149.052 667.034,156.324 664.589,166.547L659.498,163.107C659.498,163.107 668.448,142.535 669.145,141.722C669.842,140.908 666.356,139.513 666.356,139.513C663.881,146.642 658.46,153.635 653.687,159.504L649.155,155.32C649.319,156.17 661.125,146.109 664.147,137.537L662.225,136.112C658.093,142.09 650.867,146.2 644.506,150.671L640.018,144.001C646.974,141.512 656.132,139.794 661.174,134.462L660.207,131.983C655.026,136.149 645.407,136.629 637.569,137.109L635.45,130.476C644.827,131.429 656.494,132.053 659.603,129.72L659.481,127.115C651.902,127.61 642.644,126.059 634.975,124.869L636.282,118.091C643.136,121.082 651.83,123.535 659.409,123.089L660.661,119.523C651.878,120.539 645.169,115.833 638.811,112.666L645.9,107.668C650.129,110.896 654.109,115.452 660.944,116.475" style="fill:none;stroke:black;stroke-opacity:0.1;stroke-width:1px;"/>
            </g>
            <path d="M650.834,107.235C647.327,108.734 625.811,118.129 645.048,147.139C655.757,163.289 668.399,166.906 677.143,166.926C685.531,166.945 691.188,163.119 690.608,162.313C689.289,160.481 691.86,153.771 693.536,148.284C693.688,147.784 693.045,147.506 693.186,147.028C690.402,151.811 674.913,146.868 667.583,142.91C659.471,138.53 655.197,129.707 660.901,114.01C656.996,114.161 652.684,106.444 650.834,107.235Z" style="fill:none;stroke:black;stroke-width:1px;"/>
        </g>
    </g>
    <g id="left-arm" serif:id="left arm" transform="matrix(1,0,0,1,0,9.95498)">
        <g transform="matrix(1,0,0,1.0291,-464.27,-86.451)">
            <path d="M699.848,180.068L716.09,189.866L665.344,218.022L699.848,180.068Z" style="fill:rgb(39,104,153);"/>
        </g>
        <g transform="matrix(1,0,0,1,-464.27,-80.1067)">
            <path d="M716.853,165.359C715.623,165.769 707.103,152.9 704.394,149.665C702.717,147.661 723.056,137.754 724.681,140.355C726.076,142.587 734.74,151.425 738.331,153.756C740.366,155.076 716.853,165.359 716.853,165.359Z" style="fill:rgb(255,224,79);"/>
            <clipPath id="_clip2">
                <path d="M716.853,165.359C715.623,165.769 707.103,152.9 704.394,149.665C702.717,147.661 723.056,137.754 724.681,140.355C726.076,142.587 734.74,151.425 738.331,153.756C740.366,155.076 716.853,165.359 716.853,165.359Z"/>
            </clipPath>
            <g clip-path="url(#_clip2)">
                <path d="M717.757,163.343L704.452,146.196L706.832,144.693L719.84,161.632L722.369,159.772L709.569,143.384L712.128,142.001L724.377,158.359L727.055,156.723L715.014,140.766L718.168,139.635L729.584,155.532L732.634,153.747L720.593,138.981L723.196,138.386C726.215,143.064 730.74,147.153 735.758,152.631" style="fill:none;stroke:black;stroke-opacity:0.1;stroke-width:1px;"/>
            </g>
            <path d="M716.853,165.359C715.623,165.769 707.103,152.9 704.394,149.665C702.717,147.661 723.056,137.754 724.681,140.355C726.076,142.587 734.74,151.425 738.331,153.756C740.366,155.076 716.853,165.359 716.853,165.359Z" style="fill:none;stroke:black;stroke-width:1px;"/>
        </g>
        <g transform="matrix(1,0,0,1,-464.27,-80.1067)">
            <path d="M720.281,189.924C720.281,189.924 725.559,188.799 727.186,189.961C736.171,196.379 729.627,195.075 734.508,196.237C739.389,197.399 737.181,198.794 738.924,200.189C740.668,201.583 727.55,181.049 723.351,175.549C717.689,168.135 716.8,167.06 714.708,164.852C712.885,162.928 729.785,152.484 735.912,150.952C736.447,150.818 740.217,154.748 746.659,159.386C756.999,166.83 772.883,177.67 777.394,183.685C784.716,193.448 796.704,203.541 801.184,213.78C805.265,223.107 808.47,218.705 808.47,226.84C808.47,234.976 806.717,239.068 799.709,239.147C786.02,239.3 783.61,235.792 770.683,235.191C766.714,235.006 762.768,234.514 759.397,234.716C755.836,234.928 752.705,234.45 750.477,234.172C737.995,232.615 716.121,224.503 701.012,222.527C672.454,218.792 685.519,221.948 671.608,221.365C658.312,220.807 668.603,219.803 656.609,220.175C658.397,219.381 663.213,219.484 664.928,218.398C672.109,213.854 676.074,206.186 687.366,201.706C704.945,194.733 702.335,190.869 708.582,189.125C712.681,187.981 715.406,186.231 716.212,186.279C716.635,186.304 717.581,186.258 718.68,187.007C721.876,189.186 720.281,189.924 720.281,189.924Z" style="fill:rgb(83,136,82);stroke:black;stroke-width:1px;"/>
        </g>
    </g>
    <g id="right-arm" serif:id="right arm" transform="matrix(1,0,0,1,0,9.95498)">
        <g transform="matrix(1,0,0,1,-464.27,-80.1067)">
            <path d="M643.361,102.077C641.518,100.39 634.946,95.264 631.043,92.804C628.251,91.045 625.292,90.023 623.697,87.792C617.716,79.424 610.077,80.53 600.714,80.814C591.35,81.098 596.302,83.507 592.234,85.599C588.166,87.691 566.85,135.839 566.85,135.839" style="fill:rgb(39,104,153);stroke:black;stroke-width:1px;"/>
        </g>
        <g transform="matrix(1,0,0,1,-464.27,-80.1067)">
            <path d="M527.899,202.499C527.899,202.499 536.633,213.063 537.842,213.714C538.441,214.037 542.022,208.863 547.723,206.155C553.531,203.395 560.901,202.916 563.69,203.58C565.642,204.045 556.53,195.77 553.276,188.889C551.905,185.991 529.48,184.275 527.899,202.499Z" style="fill:rgb(83,136,82);"/>
            <clipPath id="_clip3">
                <path d="M527.899,202.499C527.899,202.499 536.633,213.063 537.842,213.714C538.441,214.037 542.022,208.863 547.723,206.155C553.531,203.395 560.901,202.916 563.69,203.58C565.642,204.045 556.53,195.77 553.276,188.889C551.905,185.991 529.48,184.275 527.899,202.499Z"/>
            </clipPath>
            <g clip-path="url(#_clip3)">
                <g transform="matrix(0.952423,0.0866172,-0.0943822,1.03781,-128.397,-16.2456)">
                    <path d="M718.019,163.133C714.521,160.135 710.485,156.388 703.962,149.003L706.163,144.617C709.677,150.549 714.392,155.848 719.754,160.658L722.097,158.038C717.947,154.217 712.831,148.967 708.601,142.134L712.218,139.162C716.091,145.437 720.403,151.465 724.356,156.601L727.071,154.891C722.701,148.401 717.805,142.8 714.804,137.875L718.399,136.49C720.328,140.484 724.088,146.085 729.683,153.687L732.433,152.705C728.749,148.227 724.935,142.403 721.283,136.222L724.706,136.337C727.724,141.016 730.668,146.528 735.685,152.006L739.471,151.101C739.471,151.101 729.253,140.988 727.908,136.083" style="fill:none;stroke:black;stroke-opacity:0.1;stroke-width:1px;"/>
                </g>
            </g>
            <path d="M527.899,202.499C527.899,202.499 536.633,213.063 537.842,213.714C538.441,214.037 542.022,208.863 547.723,206.155C553.531,203.395 560.901,202.916 563.69,203.58C565.642,204.045 556.53,195.77 553.276,188.889C551.905,185.991 529.48,184.275 527.899,202.499Z" style="fill:none;stroke:black;stroke-width:1px;"/>
        </g>
        <g transform="matrix(1,0,0,1,-464.27,-80.1067)">
            <path d="M600.714,80.814C600.714,80.814 597.515,80.69 590.126,83.398C586.371,84.774 584.742,87.662 567.62,92.615C563.972,93.67 560.978,96.501 558.18,98.03C554.736,99.911 551.638,100.538 548.566,102.161C538.891,107.272 529.404,108.366 521.021,113.351C517.227,115.607 509.782,120.061 501.633,123.908C493.313,127.835 487.925,137.925 489.968,148.821C492.011,159.716 493.384,157.875 499.74,168.998C506.096,180.121 503.539,174.874 512.463,187.713C516.658,193.75 516.032,190.352 521.118,196.918C527.156,204.714 530.016,205.634 528.961,203.966C527.457,201.592 529.944,197.489 535.713,192.536C539.099,189.629 544.987,188.224 547.027,188.568C549.488,188.982 551.427,188.857 553.876,189.453C553.344,188.21 553.641,185.532 550.825,183.328C545.605,179.242 552.55,176.659 545.884,168.817C539.441,161.236 547.277,164.94 539.171,157.056C536.617,154.572 544.252,150.457 549.098,146.801C558.925,139.387 561.75,150.007 573.577,128.633C584.634,108.65 598.952,103.107 601.476,85.895C602.235,80.722 600.714,80.814 600.714,80.814Z" style="fill:rgb(209,44,44);stroke:black;stroke-width:1px;"/>
        </g>
    </g>
</svg>
