<?xml version="1.0" encoding="UTF-8" standalone="no"?>
<!DOCTYPE svg PUBLIC "-//W3C//DTD SVG 1.1//EN" "http://www.w3.org/Graphics/SVG/1.1/DTD/svg11.dtd">
<svg width="100%" height="100%" viewBox="0 0 331 93" version="1.1" xmlns="http://www.w3.org/2000/svg" xmlns:xlink="http://www.w3.org/1999/xlink" xml:space="preserve" xmlns:serif="http://www.serif.com/" style="fill-rule:evenodd;clip-rule:evenodd;stroke-linecap:round;stroke-linejoin:round;stroke-miterlimit:2;">
    <g id="white" transform="matrix(1,0,0,1,-61.1737,-147.134)">
        <path d="M184.608,206.225C176.613,214.664 179.3,228.193 183.667,231.303C174.594,231.103 163.326,231.401 152.185,232.089C151.377,232.97 150.174,232.944 148.079,232.404C131.077,234.038 110.937,239.832 99.371,239.124C72.744,237.495 66.298,216.62 61.976,199.26C60.181,192.048 66.376,187.323 80.852,192.132C87.158,194.227 119.304,205.049 149.047,205.678C151.816,205.258 151.046,206.58 151.402,206.613C151.708,206.641 152.015,206.668 152.323,206.696C160.999,207.471 173.92,205.819 184.608,206.225Z" style="fill:white;stroke:black;stroke-width:1px;"/>
    </g>
    <g id="orange" transform="matrix(1,0,0,1,-51.2198,-153.191)">
        <path d="M344.017,153.695C352.395,155.203 359.602,156.928 380.901,155.928C381.815,167.894 379.684,175.776 379.544,185.714C379.371,197.899 381.67,224.746 379.868,229.034C376.093,238.02 354.887,231.153 342.78,231.748C333.466,232.206 323.025,232.865 317.73,233.247C314.608,233.471 297.558,233.55 287.887,233.314C284.878,233.24 283.907,224.82 288.587,223.462C293.252,222.108 310.231,219.002 323.267,209.246C338.314,197.986 344.712,192.604 345.336,182.74C345.88,174.147 344.589,163.629 344.017,153.695Z" style="fill:rgb(255,163,34);stroke:black;stroke-width:1px;"/>
    </g>
</svg>
