<?xml version="1.0" encoding="UTF-8" standalone="no"?>
<!DOCTYPE svg PUBLIC "-//W3C//DTD SVG 1.1//EN" "http://www.w3.org/Graphics/SVG/1.1/DTD/svg11.dtd">
<svg width="100%" height="100%" viewBox="0 0 331 93" version="1.1" xmlns="http://www.w3.org/2000/svg" xmlns:xlink="http://www.w3.org/1999/xlink" xml:space="preserve" xmlns:serif="http://www.serif.com/" style="fill-rule:evenodd;clip-rule:evenodd;stroke-linecap:round;stroke-linejoin:round;stroke-miterlimit:2;">
    <g transform="matrix(1,0,0,1,-51.2244,-153.195)">
        <path d="M344.017,153.695C352.395,155.203 359.602,156.928 380.901,155.928C381.815,167.894 379.634,167.69 379.544,185.714C376.408,185.621 371.454,185.469 366.758,184.842C357.017,183.542 345.336,182.74 345.336,182.74C345.336,182.74 344.589,163.629 344.017,153.695Z" style="fill:rgb(255,163,34);stroke:black;stroke-width:1px;"/>
    </g>
    <g transform="matrix(1,0,0,1,-61.1737,-147.134)">
        <path d="M184.608,206.225C176.613,214.664 179.3,228.193 183.667,231.303C174.594,231.103 163.326,231.401 152.185,232.089C151.377,232.97 150.174,232.944 148.079,232.404C131.077,234.038 110.937,239.832 99.371,239.124C72.744,237.495 66.298,216.62 61.976,199.26C60.181,192.048 66.376,187.323 80.852,192.132C87.158,194.227 119.304,205.049 149.047,205.678C151.816,205.258 151.046,206.58 151.402,206.613C151.708,206.641 152.015,206.668 152.323,206.696C160.999,207.471 173.92,205.819 184.608,206.225Z" style="fill:white;stroke:black;stroke-width:1px;"/>
    </g>
</svg>
