<?xml version="1.0" encoding="UTF-8" standalone="no"?>
<!DOCTYPE svg PUBLIC "-//W3C//DTD SVG 1.1//EN" "http://www.w3.org/Graphics/SVG/1.1/DTD/svg11.dtd">
<svg width="100%" height="100%" viewBox="0 0 64 59" version="1.1" xmlns="http://www.w3.org/2000/svg" xmlns:xlink="http://www.w3.org/1999/xlink" xml:space="preserve" xmlns:serif="http://www.serif.com/" style="fill-rule:evenodd;clip-rule:evenodd;stroke-linejoin:round;stroke-miterlimit:2;">
    <g id="head" transform="matrix(1,0,0,1,-21.4105,-15.4047)">
        <path d="M21.41,35.6C25.008,30.882 30.046,27.734 37.32,24.531C46.676,20.411 45.72,30.431 50.823,32.394C55.925,34.356 66.09,34.015 70.8,43.238C75.51,52.462 72.398,44.309 70.435,59.813C69.763,65.126 69.449,70.563 70.117,74.138C71.37,72.689 72.602,71.195 73.814,69.66C82.348,58.855 89.589,46.267 80.758,29.877C76.571,22.106 67.558,17.854 62.851,16.581C57.903,15.242 52.824,15.004 47.797,16.086C36.652,18.485 27.919,26.568 21.41,35.6Z" style="fill:rgb(76,57,48);fill-opacity:0.5;"/>
    </g>
</svg>
