<?xml version="1.0" encoding="UTF-8" standalone="no"?>
<!DOCTYPE svg PUBLIC "-//W3C//DTD SVG 1.1//EN" "http://www.w3.org/Graphics/SVG/1.1/DTD/svg11.dtd">
<svg width="100%" height="100%" viewBox="0 0 85 79" version="1.1" xmlns="http://www.w3.org/2000/svg" xmlns:xlink="http://www.w3.org/1999/xlink" xml:space="preserve" xmlns:serif="http://www.serif.com/" style="fill-rule:evenodd;clip-rule:evenodd;stroke-linejoin:round;stroke-miterlimit:2;">
    <g id="hair" transform="matrix(1,0,0,1,-681.512,-36.3194)">
        <path d="M681.512,77.471C681.512,77.471 692.008,63.918 703.261,56.817C714.515,49.715 706.855,62.574 711.957,64.536C717.059,66.499 730.208,67.873 734.918,77.096C739.628,86.32 736.292,80.629 734.329,96.132C732.711,108.919 733.174,122.425 744.371,108.954C746.75,106.093 756.679,95.319 760.961,91.679C763.848,89.226 764.204,83.143 764.159,80.823C764.087,77.085 762.483,71.52 758.03,65.223C755.345,61.427 751.862,62.677 748.895,57.15C745.524,50.87 736.013,51.313 729.741,49.018C725.908,47.615 721.182,41.778 717.773,41.16C709.428,39.648 703.487,45.443 697.944,49.698C687.222,57.929 683.251,51.746 681.512,77.471Z" style="fill:rgb(76,57,48);"/>
        <clipPath id="_clip1">
            <path d="M681.512,77.471C681.512,77.471 692.008,63.918 703.261,56.817C714.515,49.715 706.855,62.574 711.957,64.536C717.059,66.499 730.208,67.873 734.918,77.096C739.628,86.32 736.292,80.629 734.329,96.132C732.711,108.919 733.174,122.425 744.371,108.954C746.75,106.093 756.679,95.319 760.961,91.679C763.848,89.226 764.204,83.143 764.159,80.823C764.087,77.085 762.483,71.52 758.03,65.223C755.345,61.427 751.862,62.677 748.895,57.15C745.524,50.87 736.013,51.313 729.741,49.018C725.908,47.615 721.182,41.778 717.773,41.16C709.428,39.648 703.487,45.443 697.944,49.698C687.222,57.929 683.251,51.746 681.512,77.471Z"/>
        </clipPath>
        <g clip-path="url(#_clip1)">
            <g transform="matrix(1.15937,0.561945,-0.436165,0.899867,-74.5387,-402.442)">
                <ellipse cx="740.914" cy="84.881" rx="16.333" ry="10.414" style="fill:rgb(68,51,43);"/>
            </g>
            <g transform="matrix(0.712632,-0.230096,0.361814,1.12058,183.564,155.566)">
                <ellipse cx="715.886" cy="70.753" rx="12.484" ry="11.867" style="fill:rgb(68,51,43);"/>
            </g>
            <g transform="matrix(0.832879,0.553455,-0.63328,0.953005,165.756,-384.478)">
                <ellipse cx="693.784" cy="73.511" rx="9.892" ry="14.399" style="fill:rgb(68,51,43);"/>
            </g>
        </g>
        <path d="M759.678,67.726C759.121,67.792 756.52,62.086 755.105,59.381C753.538,56.386 749.737,54.263 748.239,53.308C745.386,51.488 744.038,48.043 742.072,45.995C738.548,42.326 732.965,44.705 731.777,40.54C730.995,37.799 726.9,39.472 725.022,39.816C722.255,40.322 719.583,35.689 715.046,36.392C702.98,38.262 701.604,41.688 698.309,41.605C693.253,41.479 700.23,45.584 694.194,51.071C688.158,56.559 686.202,69.379 686.1,65.476C686.079,64.687 696.31,55.661 706.955,57.699C724.693,61.094 739.198,62.011 746.421,71.775C753.422,81.239 753.352,94.341 751.263,99.909C749.781,103.86 757.003,91.666 761.057,93.344C763.158,94.214 767.089,88.154 765.805,85.642C763.398,80.932 761.583,76.517 759.678,67.726Z" style="fill:rgb(76,57,48);fill-opacity:0.89;"/>
    </g>
</svg>
