<?xml version="1.0" encoding="UTF-8" standalone="no"?>
<!DOCTYPE svg PUBLIC "-//W3C//DTD SVG 1.1//EN" "http://www.w3.org/Graphics/SVG/1.1/DTD/svg11.dtd">
<svg width="100%" height="100%" viewBox="0 0 86 90" version="1.1" xmlns="http://www.w3.org/2000/svg" xmlns:xlink="http://www.w3.org/1999/xlink" xml:space="preserve" xmlns:serif="http://www.serif.com/" style="fill-rule:evenodd;clip-rule:evenodd;stroke-linecap:round;stroke-linejoin:round;stroke-miterlimit:1.5;">
    <g id="head" transform="matrix(1,0,0,1,-647.48,-38.8317)">
        <path d="M666.793,62.581C661.555,70.578 655.014,81.011 651.848,90.053C650.058,95.166 648.959,100.524 648.181,105.885C647.795,108.549 648.023,111.291 648.382,113.959C648.751,116.694 649.219,119.484 650.352,122C654.19,130.517 669.425,127.238 675.924,125.461C694.993,120.247 709.151,108.962 721.295,93.587C729.829,82.782 737.069,70.194 728.239,53.804C724.052,46.033 715.038,41.781 710.331,40.508C705.383,39.169 700.304,38.931 695.277,40.013C682.889,42.68 673.481,52.37 666.793,62.581Z" style="fill:rgb(246,185,133);stroke:black;stroke-width:1px;"/>
    </g>
</svg>
