<?xml version="1.0" encoding="UTF-8" standalone="no"?>
<!DOCTYPE svg PUBLIC "-//W3C//DTD SVG 1.1//EN" "http://www.w3.org/Graphics/SVG/1.1/DTD/svg11.dtd">
<svg width="100%" height="100%" viewBox="0 0 169 157" version="1.1" xmlns="http://www.w3.org/2000/svg" xmlns:xlink="http://www.w3.org/1999/xlink" xml:space="preserve" xmlns:serif="http://www.serif.com/" style="fill-rule:evenodd;clip-rule:evenodd;stroke-linecap:round;stroke-linejoin:round;stroke-miterlimit:1.5;">
    <g id="jumpshorts" transform="matrix(1,0,0,1,-343.127,-80.7582)">
        <path id="base" d="M502.549,144.064C502.549,144.064 502.138,175.525 508.281,191.16C514.423,206.795 505.633,209.192 510.514,225.222C512.634,232.184 498.34,227.34 492.087,228.572C481.268,230.705 435.211,232.668 405.184,234.596C395.784,235.2 395.653,229.639 396.043,222.151C397.045,202.91 399.175,183.791 402.775,167.938C407.323,147.911 469.129,144.967 478.52,144.258C491.235,143.298 504.209,142.127 502.549,144.064Z" style="fill:rgb(23,23,23);"/>
        <clipPath id="_clip1">
            <path id="base1" serif:id="base" d="M502.549,144.064C502.549,144.064 502.138,175.525 508.281,191.16C514.423,206.795 505.633,209.192 510.514,225.222C512.634,232.184 498.34,227.34 492.087,228.572C481.268,230.705 435.211,232.668 405.184,234.596C395.784,235.2 395.653,229.639 396.043,222.151C397.045,202.91 399.175,183.791 402.775,167.938C407.323,147.911 469.129,144.967 478.52,144.258C491.235,143.298 504.209,142.127 502.549,144.064Z"/>
        </clipPath>
        <g clip-path="url(#_clip1)">
            <path id="yellow" d="M503.313,136.129C503.313,136.129 499.739,132.269 500.311,135.986C500.883,139.703 500.449,156.073 501.884,170.58C503.17,183.588 509.46,198.037 508.745,202.326C508.03,206.614 506.373,218.77 513.44,226.862C523.021,237.834 508.89,136.523 503.313,136.129Z" style="fill:rgb(250,205,0);stroke:black;stroke-width:1px;"/>
            <g transform="matrix(0.834855,0.550469,-0.550469,0.834855,180.884,-243.253)">
                <path d="M501.372,174.111C496.431,169.72 485.91,169.537 495.15,173.013C504.391,176.49 500.548,167.433 494.784,173.928C489.021,180.424 508.389,170.699 497.712,167.524C489.092,164.961 510.161,190.923 512.973,203.518" style="fill:none;stroke:rgb(250,205,0);stroke-width:2px;"/>
            </g>
        </g>
        <path id="base2" serif:id="base" d="M502.549,144.064C502.549,144.064 502.138,175.525 508.281,191.16C514.423,206.795 505.633,209.192 510.514,225.222C512.634,232.184 498.34,227.34 492.087,228.572C481.268,230.705 435.211,232.668 405.184,234.596C395.784,235.2 395.653,229.639 396.043,222.151C397.045,202.91 399.175,183.791 402.775,167.938C407.323,147.911 469.129,144.967 478.52,144.258C491.235,143.298 504.209,142.127 502.549,144.064Z" style="fill:none;stroke:black;stroke-width:1px;"/>
        <path id="right" d="M404.382,181.315C404.382,181.315 401.294,181.807 398.292,171.514C395.29,161.222 391.002,164.081 386.57,156.791C382.139,149.5 388.542,146.566 387.617,142.066C390.103,146.583 390.136,147.956 392.26,147.528C399.951,145.976 427.18,109.679 431.742,95.117C432.314,93.292 433.567,84.294 431.351,81.634C433.174,79.722 448.127,85.458 446.552,90.806C444.993,96.099 450.698,106.959 455.129,111.105C459.56,115.25 457.022,115.597 460.99,122.541C463.849,127.544 465.417,124.436 470.849,130.154C480.291,140.093 472.808,142.232 484.83,144.172" style="fill:rgb(23,23,23);stroke:black;stroke-width:1px;"/>
        <path id="left" d="M471.551,230.644C445.883,233.279 372.246,239.596 364.776,234.152C361.872,228.791 364.717,221.202 368.738,202.886C372.758,184.571 363.902,177.739 363.902,177.739C365.799,174.472 408.776,178.668 425.604,175.605C438.882,173.187 458.088,182.896 458.788,182.71" style="fill:rgb(23,23,23);stroke:black;stroke-width:1px;"/>
        <g id="wrecks" opacity="0.5">
            <path d="M419.676,186.641C419.676,186.641 430.218,185.926 443.441,197.72C456.664,209.513 449.516,200.042 457.914,203.259" style="fill:none;stroke:black;stroke-width:1px;"/>
            <path d="M447.015,172.346C451.66,175.562 465.955,181.102 470.422,186.105C474.89,191.108 473.639,189.857 478.463,190.036" style="fill:none;stroke:black;stroke-width:1px;"/>
            <path d="M479.357,211.3C485.968,215.231 478.463,210.764 490.257,214.695" style="fill:none;stroke:black;stroke-width:1px;"/>
            <path d="M450.767,121.063C450.767,121.063 444.156,146.258 423.964,164.127" style="fill:none;stroke:black;stroke-width:1px;"/>
            <path d="M441.654,103.731C435.936,126.066 429.146,121.957 424.143,135.358" style="fill:none;stroke:black;stroke-width:1px;"/>
            <path d="M379.471,186.284C379.471,186.284 384.653,191.644 381.973,212.193" style="fill:none;stroke:black;stroke-width:1px;"/>
            <g transform="matrix(1,0,0,1,363.088,80.7582)">
                <path d="M25.897,79.187C33.629,87.118 41.362,74.626 49.491,63.523" style="fill:none;stroke:black;stroke-width:1px;"/>
            </g>
            <g transform="matrix(1,0,0,1,363.088,80.7582)">
                <path d="M24.636,61.186C24.509,61.244 24.363,69.082 28.229,70.111C32.117,71.144 46.997,50.518 46.263,50.679C46.054,50.725 31.094,68.456 28.247,66.771C26.409,65.683 24.882,62.132 24.636,61.186Z" style="fill:rgb(3,3,3);"/>
            </g>
        </g>
    </g>
</svg>
