<?xml version="1.0" encoding="UTF-8" standalone="no"?>
<!DOCTYPE svg PUBLIC "-//W3C//DTD SVG 1.1//EN" "http://www.w3.org/Graphics/SVG/1.1/DTD/svg11.dtd">
<svg width="100%" height="100%" viewBox="0 0 179 157" version="1.1" xmlns="http://www.w3.org/2000/svg" xmlns:xlink="http://www.w3.org/1999/xlink" xml:space="preserve" xmlns:serif="http://www.serif.com/" style="fill-rule:evenodd;clip-rule:evenodd;stroke-linecap:round;stroke-linejoin:round;stroke-miterlimit:1.5;">
    <g id="jumpshorts" transform="matrix(1,0,0,1,-343.127,-80.7582)">
        <path id="base" d="M502.549,144.064C502.549,144.064 502.138,175.525 508.281,191.16C512.839,202.763 508.485,197.557 508.286,205.561C508.275,206.009 508.17,207.316 509.302,208.542C511.857,211.307 516.366,220.18 516.549,221.405C516.789,223.012 518.601,227.19 516.808,227.557C510.711,228.805 498.34,227.34 492.087,228.572C481.268,230.705 435.211,232.668 405.184,234.596C395.784,235.2 395.653,229.639 396.043,222.151C397.045,202.91 399.175,183.791 402.775,167.938C407.323,147.911 469.129,144.967 478.52,144.258C491.235,143.298 504.209,142.127 502.549,144.064Z" style="fill:rgb(23,23,23);"/>
        <clipPath id="_clip1">
            <path id="base1" serif:id="base" d="M502.549,144.064C502.549,144.064 502.138,175.525 508.281,191.16C512.839,202.763 508.485,197.557 508.286,205.561C508.275,206.009 508.17,207.316 509.302,208.542C511.857,211.307 516.366,220.18 516.549,221.405C516.789,223.012 518.601,227.19 516.808,227.557C510.711,228.805 498.34,227.34 492.087,228.572C481.268,230.705 435.211,232.668 405.184,234.596C395.784,235.2 395.653,229.639 396.043,222.151C397.045,202.91 399.175,183.791 402.775,167.938C407.323,147.911 469.129,144.967 478.52,144.258C491.235,143.298 504.209,142.127 502.549,144.064Z"/>
        </clipPath>
        <g clip-path="url(#_clip1)">
            <path id="yellow" d="M503.313,136.129C503.313,136.129 499.739,132.269 500.311,135.986C500.883,139.703 500.449,156.073 501.884,170.58C503.17,183.588 509.46,198.037 508.745,202.326C508.211,205.533 508.746,207.23 512.52,212.318C514.013,214.331 514.834,212.564 516.616,214.604C526.198,225.577 508.89,136.523 503.313,136.129Z" style="fill:rgb(250,205,0);stroke:black;stroke-width:1px;"/>
            <g transform="matrix(0.834855,0.550469,-0.550469,0.834855,180.884,-243.253)">
                <path d="M501.372,174.111C496.431,169.72 485.91,169.537 495.15,173.013C504.391,176.49 500.548,167.433 494.784,173.928C489.021,180.424 508.389,170.699 497.712,167.524C489.092,164.961 510.161,190.923 512.973,203.518" style="fill:none;stroke:rgb(250,205,0);stroke-width:2px;"/>
            </g>
        </g>
        <path id="base2" serif:id="base" d="M502.549,144.064C502.549,144.064 502.138,175.525 508.281,191.16C512.839,202.763 508.485,197.557 508.286,205.561C508.275,206.009 508.17,207.316 509.302,208.542C511.857,211.307 516.366,220.18 516.549,221.405C516.789,223.012 518.601,227.19 516.808,227.557C510.711,228.805 498.34,227.34 492.087,228.572C481.268,230.705 435.211,232.668 405.184,234.596C395.784,235.2 395.653,229.639 396.043,222.151C397.045,202.91 399.175,183.791 402.775,167.938C407.323,147.911 469.129,144.967 478.52,144.258C491.235,143.298 504.209,142.127 502.549,144.064Z" style="fill:none;stroke:black;stroke-width:1px;"/>
        <path id="right" d="M404.382,181.315C404.382,181.315 401.294,181.807 398.292,171.514C395.29,161.222 392.46,165.198 389.981,157.034C387.768,149.744 390.012,146.566 387.617,142.066C390.103,146.583 390.708,149.983 392.832,149.555C396.625,148.789 404.217,136.405 412.452,125.513C420.914,114.319 429.43,102.497 431.742,95.117C432.106,93.958 433.251,89.295 433.303,87.129C433.351,85.127 432.159,82.605 431.351,81.634C432.178,80.762 433.24,83.721 437.021,85.598C440.773,87.461 447.251,88.228 446.552,90.806C445.109,96.131 450.698,106.959 455.129,111.105C459.56,115.25 457.022,115.597 460.99,122.541C463.849,127.544 465.417,124.436 470.849,130.154C480.291,140.093 472.808,142.232 484.83,144.172" style="fill:rgb(23,23,23);stroke:black;stroke-width:1px;"/>
        <path id="left" d="M471.551,230.644C445.883,233.279 370.25,237.433 362.53,234.069C364.907,229.166 364.717,221.202 368.738,202.886C372.758,184.571 363.902,177.739 363.902,177.739C365.799,174.472 408.776,178.668 425.604,175.605C438.882,173.187 458.088,182.896 458.788,182.71" style="fill:rgb(23,23,23);stroke:black;stroke-width:1px;"/>
        <g id="wrecks" opacity="0.5">
            <path d="M419.676,186.641C419.676,186.641 430.218,185.926 443.441,197.72C456.664,209.513 449.516,200.042 457.914,203.259" style="fill:none;stroke:black;stroke-width:1px;"/>
            <path d="M447.015,172.346C451.66,175.562 465.955,181.102 470.422,186.105C474.89,191.108 473.639,189.857 478.463,190.036" style="fill:none;stroke:black;stroke-width:1px;"/>
            <path d="M479.357,211.3C485.968,215.231 478.463,210.764 490.257,214.695" style="fill:none;stroke:black;stroke-width:1px;"/>
            <path d="M450.767,121.063C450.767,121.063 444.156,146.258 423.964,164.127" style="fill:none;stroke:black;stroke-width:1px;"/>
            <path d="M441.654,103.731C435.936,126.066 429.146,121.957 424.143,135.358" style="fill:none;stroke:black;stroke-width:1px;"/>
            <path d="M379.471,186.284C379.471,186.284 384.653,191.644 381.973,212.193" style="fill:none;stroke:black;stroke-width:1px;"/>
            <g transform="matrix(1,0,0,1,363.088,80.7582)">
                <path d="M34.243,83.408C40.42,78.95 41.362,74.626 49.491,63.523" style="fill:none;stroke:black;stroke-width:1px;"/>
            </g>
            <g transform="matrix(1,0,0,1,363.088,80.7582)">
                <path d="M24.636,61.186C25.153,61.373 28.509,76.823 28.572,78.733C32.117,75.845 46.997,50.518 46.263,50.679C46.054,50.725 32.457,65.495 29.578,65.407C27.443,65.342 25.78,62.831 24.636,61.186Z" style="fill:rgb(3,3,3);"/>
            </g>
        </g>
    </g>
</svg>
