<?xml version="1.0" encoding="UTF-8" standalone="no"?>
<!DOCTYPE svg PUBLIC "-//W3C//DTD SVG 1.1//EN" "http://www.w3.org/Graphics/SVG/1.1/DTD/svg11.dtd">
<svg width="100%" height="100%" viewBox="0 0 125 103" version="1.1" xmlns="http://www.w3.org/2000/svg" xmlns:xlink="http://www.w3.org/1999/xlink" xml:space="preserve" xmlns:serif="http://www.serif.com/" style="fill-rule:evenodd;clip-rule:evenodd;stroke-linecap:round;stroke-linejoin:round;stroke-miterlimit:1.5;">
    <g id="left-arm" serif:id="left arm" transform="matrix(1,0,0,1,-677.085,-124.38)">
        <path d="M696.642,169.364C696.642,169.364 704.604,175.223 709.091,177.326C718.591,181.777 730.805,186.113 732.745,188.016C736.183,191.39 737.362,193.26 748.272,205.531C749.133,206.5 748.46,205.677 748.272,205.531C745.934,203.729 733.798,189.258 733.798,189.258C733.798,189.258 725.647,172.504 718.705,164.069C711.762,155.635 698.302,135.677 694.513,132.355C690.723,129.033 715.171,124.88 715.171,124.88C715.171,124.88 719.662,134.072 743.587,150.292C767.512,166.513 771.162,174.927 782.618,187.498C794.073,200.069 794.175,203.212 798.838,208.686C803.502,214.161 802.386,226.326 791.032,225.921C779.678,225.515 773.073,222.458 762.288,220.875C759.15,220.415 761.275,222.092 742.722,220.064C724.17,218.037 710.382,209.424 677.585,207.048" style="fill:rgb(246,185,133);stroke:black;stroke-width:1px;"/>
    </g>
</svg>
