<?xml version="1.0" encoding="UTF-8" standalone="no"?>
<!DOCTYPE svg PUBLIC "-//W3C//DTD SVG 1.1//EN" "http://www.w3.org/Graphics/SVG/1.1/DTD/svg11.dtd">
<svg width="100%" height="100%" viewBox="0 0 340 161" version="1.1" xmlns="http://www.w3.org/2000/svg" xmlns:xlink="http://www.w3.org/1999/xlink" xml:space="preserve" xmlns:serif="http://www.serif.com/" style="fill-rule:evenodd;clip-rule:evenodd;stroke-linecap:round;stroke-linejoin:round;stroke-miterlimit:1.5;">
    <g transform="matrix(1,0,0,1,-481.265,-78.6347)">
        <path id="shirt" d="M624.777,219.069C640.647,218.472 655.152,218.254 665.082,218.583C672.938,218.843 685.058,226.159 693.843,221.199C697.427,219.175 703.654,221.864 707.758,222.136C712.733,222.467 714.429,226.056 717.713,224.467C720.546,223.096 726.012,224.884 726.423,226.004C727,227.577 759.985,235.754 770.998,234.836C791.908,233.094 837.519,252.649 813.134,217.729C791.591,186.879 798.188,195.301 790.545,187.886C784.539,182.058 777.946,176.239 768.584,167.895C760.55,178.233 741.401,185.739 741.401,185.739C741.401,185.739 743.883,192.763 747.884,197.371C744.763,196.026 737.537,193.042 738.49,192.532C739.382,192.055 737.232,190.875 736.782,189.765C733.064,191.141 728.167,189.088 727.266,188.126C726.247,187.038 723.266,180.845 720.616,179.162C718.832,178.029 713.062,175.661 711.597,171.467C710.687,168.862 709.542,166.805 708.685,165.732C705.352,161.561 702.383,152.417 703.19,146.118C667.845,162.961 643.053,121.485 663.427,110.711C663.427,110.711 643.171,90.548 625.15,80.24C623.383,79.23 611.12,78.898 610.551,79.303C606.07,82.494 585.713,86.634 575.449,95.124C565.184,103.615 562.65,90.055 557.327,100.447C552.005,110.838 553.399,101.207 546.176,106.276C538.952,111.345 540.98,103.868 536.925,109.317C532.87,114.766 520.451,113.499 517.663,117.427C514.875,121.356 506.324,123.349 502.329,133.268C499.247,141.032 499.987,140.24 500.092,142.265C497.541,142.791 490.025,140.839 488.674,141.128C488.286,141.212 486.19,140.625 486.19,140.625C486.19,140.625 490.527,166.914 483.905,191.141C477.353,215.11 487.618,223.797 491.036,230.463C498.393,229.565 505.598,230.759 513.654,228.481C518.994,226.971 524.855,230.491 530.631,227.835C533.355,226.582 541.08,225.3 551.659,224.101C551.055,222.669 551.667,216.501 549.686,214.391C544.194,208.54 527.431,190.454 513.993,175.553C520.745,162.486 536.679,158.601 553.574,167.876C553.574,167.876 553.169,172.337 561.746,188.184C566.333,196.658 570.456,201.216 575.94,206.344C587.945,217.567 624.777,219.069 624.777,219.069Z" style="fill:rgb(196,196,196);"/>
        <clipPath id="_clip1">
            <path id="shirt1" serif:id="shirt" d="M624.777,219.069C640.647,218.472 655.152,218.254 665.082,218.583C672.938,218.843 685.058,226.159 693.843,221.199C697.427,219.175 703.654,221.864 707.758,222.136C712.733,222.467 714.429,226.056 717.713,224.467C720.546,223.096 726.012,224.884 726.423,226.004C727,227.577 759.985,235.754 770.998,234.836C791.908,233.094 837.519,252.649 813.134,217.729C791.591,186.879 798.188,195.301 790.545,187.886C784.539,182.058 777.946,176.239 768.584,167.895C760.55,178.233 741.401,185.739 741.401,185.739C741.401,185.739 743.883,192.763 747.884,197.371C744.763,196.026 737.537,193.042 738.49,192.532C739.382,192.055 737.232,190.875 736.782,189.765C733.064,191.141 728.167,189.088 727.266,188.126C726.247,187.038 723.266,180.845 720.616,179.162C718.832,178.029 713.062,175.661 711.597,171.467C710.687,168.862 709.542,166.805 708.685,165.732C705.352,161.561 702.383,152.417 703.19,146.118C667.845,162.961 643.053,121.485 663.427,110.711C663.427,110.711 643.171,90.548 625.15,80.24C623.383,79.23 611.12,78.898 610.551,79.303C606.07,82.494 585.713,86.634 575.449,95.124C565.184,103.615 562.65,90.055 557.327,100.447C552.005,110.838 553.399,101.207 546.176,106.276C538.952,111.345 540.98,103.868 536.925,109.317C532.87,114.766 520.451,113.499 517.663,117.427C514.875,121.356 506.324,123.349 502.329,133.268C499.247,141.032 499.987,140.24 500.092,142.265C497.541,142.791 490.025,140.839 488.674,141.128C488.286,141.212 486.19,140.625 486.19,140.625C486.19,140.625 490.527,166.914 483.905,191.141C477.353,215.11 487.618,223.797 491.036,230.463C498.393,229.565 505.598,230.759 513.654,228.481C518.994,226.971 524.855,230.491 530.631,227.835C533.355,226.582 541.08,225.3 551.659,224.101C551.055,222.669 551.667,216.501 549.686,214.391C544.194,208.54 527.431,190.454 513.993,175.553C520.745,162.486 536.679,158.601 553.574,167.876C553.574,167.876 553.169,172.337 561.746,188.184C566.333,196.658 570.456,201.216 575.94,206.344C587.945,217.567 624.777,219.069 624.777,219.069Z"/>
        </clipPath>
        <g clip-path="url(#_clip1)">
            <path d="M553.488,168.048C553.488,168.048 549.847,137.559 547.019,133.249C549.246,137.695 550.874,149.496 550.874,149.496C550.874,149.496 563.36,144.547 564.605,145.196C565.133,145.472 572.636,142.303 573.623,141.417C575.991,141.69 580.997,138.385 581.439,137.727C584.086,133.783 589.359,132.397 592.524,129.045" style="fill:none;stroke:black;stroke-width:1px;"/>
            <path d="M500.101,142.198C503.246,155.44 506.269,167.007 513.993,175.553" style="fill:none;stroke:black;stroke-width:1px;"/>
            <path d="M747.472,197.141C747.472,197.141 753.059,208.731 757.729,214.568" style="fill:none;stroke:black;stroke-width:1px;stroke-miterlimit:2;"/>
        </g>
        <path id="shirt2" serif:id="shirt" d="M624.777,219.069C640.647,218.472 655.152,218.254 665.082,218.583C672.938,218.843 685.058,226.159 693.843,221.199C697.427,219.175 703.654,221.864 707.758,222.136C712.733,222.467 714.429,226.056 717.713,224.467C720.546,223.096 726.012,224.884 726.423,226.004C727,227.577 759.985,235.754 770.998,234.836C791.908,233.094 837.519,252.649 813.134,217.729C791.591,186.879 798.188,195.301 790.545,187.886C784.539,182.058 777.946,176.239 768.584,167.895C760.55,178.233 741.401,185.739 741.401,185.739C741.401,185.739 743.883,192.763 747.884,197.371C744.763,196.026 737.537,193.042 738.49,192.532C739.382,192.055 737.232,190.875 736.782,189.765C733.064,191.141 728.167,189.088 727.266,188.126C726.247,187.038 723.266,180.845 720.616,179.162C718.832,178.029 713.062,175.661 711.597,171.467C710.687,168.862 709.542,166.805 708.685,165.732C705.352,161.561 702.383,152.417 703.19,146.118C667.845,162.961 643.053,121.485 663.427,110.711C663.427,110.711 643.171,90.548 625.15,80.24C623.383,79.23 611.12,78.898 610.551,79.303C606.07,82.494 585.713,86.634 575.449,95.124C565.184,103.615 562.65,90.055 557.327,100.447C552.005,110.838 553.399,101.207 546.176,106.276C538.952,111.345 540.98,103.868 536.925,109.317C532.87,114.766 520.451,113.499 517.663,117.427C514.875,121.356 506.324,123.349 502.329,133.268C499.247,141.032 499.987,140.24 500.092,142.265C497.541,142.791 490.025,140.839 488.674,141.128C488.286,141.212 486.19,140.625 486.19,140.625C486.19,140.625 490.527,166.914 483.905,191.141C477.353,215.11 487.618,223.797 491.036,230.463C498.393,229.565 505.598,230.759 513.654,228.481C518.994,226.971 524.855,230.491 530.631,227.835C533.355,226.582 541.08,225.3 551.659,224.101C551.055,222.669 551.667,216.501 549.686,214.391C544.194,208.54 527.431,190.454 513.993,175.553C520.745,162.486 536.679,158.601 553.574,167.876C553.574,167.876 553.169,172.337 561.746,188.184C566.333,196.658 570.456,201.216 575.94,206.344C587.945,217.567 624.777,219.069 624.777,219.069Z" style="fill:none;stroke:black;stroke-width:1px;"/>
        <g opacity="0.2">
            <path d="M659.63,107.071C655.16,112.217 643.302,122.517 658.845,141.193C673.18,158.417 692.611,155.264 703.216,151.056" style="fill:none;stroke:black;stroke-width:1px;"/>
            <path d="M644.651,115.881C644.651,115.881 625.798,112.29 596.53,119.832" style="fill:none;stroke:black;stroke-width:1px;"/>
            <path d="M568.831,144.364C568.831,144.364 566.362,157.157 595.315,177.806" style="fill:none;stroke:black;stroke-width:1px;"/>
            <g transform="matrix(1.14222,0,0,1.1172,-78.8063,-31.5726)">
                <path d="M519.076,185.503C519.076,185.503 521.93,197.178 520.494,201.487C519.057,205.797 545.057,213.122 548.074,218.15C549.811,219.359 519.076,185.503 519.076,185.503Z" style="fill:rgb(3,3,3);stroke:black;stroke-width:0.89px;"/>
            </g>
            <path d="M705.263,179.218C705.263,179.218 689.022,193.008 674.312,199.596" style="fill:none;stroke:black;stroke-width:1px;"/>
            <path d="M715.835,189.024C715.835,189.024 688.868,200.975 681.667,207.87" style="fill:none;stroke:black;stroke-width:1px;"/>
            <path d="M577.135,140.997C577.135,140.997 581.848,160.075 619.106,165.686" style="fill:none;stroke:black;stroke-width:1px;"/>
            <g transform="matrix(0.893491,0,0,0.957447,62.5696,5.92346)">
                <path d="M587.459,139.201C587.459,139.201 634.478,157.78 663.322,160.299" style="fill:none;stroke:black;stroke-width:1.08px;"/>
            </g>
            <path d="M552.98,166.803L550.626,149.623C550.626,149.623 561.022,143.749 565.484,144.491C567.278,144.79 576.279,140.758 576.279,140.758C576.279,140.758 565.135,147.924 561.252,152.265C557.535,156.421 552.98,166.803 552.98,166.803Z" style="fill:rgb(3,3,3);stroke:black;stroke-width:1px;"/>
            <path d="M504.193,157.023C504.193,157.023 522.864,130.42 550.363,145.703" style="fill:none;stroke:black;stroke-width:1px;stroke-miterlimit:2;"/>
            <path d="M747.735,197.387C747.735,197.387 757.898,218.755 768.191,226.572" style="fill:none;stroke:black;stroke-width:1px;stroke-miterlimit:2;"/>
            <g transform="matrix(0.976183,0,0,1.10043,22.9524,-11.6099)">
                <path d="M750.353,202.482C750.353,202.482 768.171,204.162 788.647,183.055" style="fill:none;stroke:black;stroke-width:0.96px;stroke-miterlimit:2;"/>
            </g>
            <path d="M515.439,227.69C514.462,225.735 507.23,204.349 510.553,193.814C513.886,183.248 513.366,181.82 512.388,174.003" style="fill:none;stroke:black;stroke-width:1px;stroke-miterlimit:2;"/>
        </g>
        <g id="ltt-logo" serif:id="ltt logo" transform="matrix(0.766169,0.0734571,-0.0734571,0.766169,173.642,-2.09732)">
            <path d="M663.095,171.742L661.009,176.024L663.81,177.174" style="fill:none;stroke:black;stroke-width:1.3px;stroke-linecap:square;stroke-linejoin:miter;stroke-miterlimit:2;"/>
            <path d="M664.472,172.369L668.033,173.71" style="fill:none;stroke:black;stroke-width:1.3px;stroke-linecap:square;stroke-linejoin:miter;stroke-miterlimit:2;"/>
            <g transform="matrix(1,0,0,1,0.246779,0.0987117)">
                <path d="M663.771,175.548L664.932,172.715" style="fill:none;stroke:black;stroke-width:1.3px;stroke-linecap:square;stroke-linejoin:miter;stroke-miterlimit:2;"/>
            </g>
            <g transform="matrix(1,0,0,1,0.489959,1.0902)">
                <path d="M665.119,176.664L665.771,175.265" style="fill:none;stroke:black;stroke-width:1.3px;stroke-linecap:square;stroke-linejoin:miter;stroke-miterlimit:2;"/>
            </g>
            <g transform="matrix(1,0,0,1,-0.00796884,0.576846)">
                <path d="M665.591,175.044L667.449,175.726" style="fill:none;stroke:black;stroke-width:1.3px;stroke-linecap:square;stroke-linejoin:miter;stroke-miterlimit:2;"/>
            </g>
        </g>
    </g>
</svg>
