<?xml version="1.0" encoding="UTF-8" standalone="no"?>
<!DOCTYPE svg PUBLIC "-//W3C//DTD SVG 1.1//EN" "http://www.w3.org/Graphics/SVG/1.1/DTD/svg11.dtd">
<svg width="100%" height="100%" viewBox="0 0 340 161" version="1.1" xmlns="http://www.w3.org/2000/svg" xmlns:xlink="http://www.w3.org/1999/xlink" xml:space="preserve" xmlns:serif="http://www.serif.com/" style="fill-rule:evenodd;clip-rule:evenodd;stroke-linecap:round;stroke-linejoin:round;stroke-miterlimit:1.5;">
    <g id="behind-torso" serif:id="behind torso" transform="matrix(1,0,0,1,-481.265,-78.6347)">
        <path d="M703.19,146.118C682.479,137.89 672.266,112.435 663.427,110.711C659.642,108.055 633.292,107.307 624.508,108.195C588.875,111.801 539.466,138.992 500.092,142.265C497.541,142.791 490.025,140.839 488.674,141.128C488.286,141.212 486.19,140.625 486.19,140.625C481.528,144.44 485.77,173.99 483.638,193.37C480.592,221.054 481.882,230.749 491.036,230.463C498.393,229.565 505.598,230.759 513.654,228.481C518.994,226.971 524.855,230.491 530.631,227.835C533.355,226.582 541.08,225.3 551.659,224.101C551.055,222.669 624.777,219.069 624.777,219.069C640.647,218.472 652.101,217.27 665.082,218.583C677.475,219.836 690.125,217.01 711,216.671C727.3,216.407 719.561,187.293 708.911,175.233C702.661,168.153 703.023,154.931 702.914,153.722C702.668,150.978 703.19,146.118 703.19,146.118Z" style="fill:rgb(93,93,93);stroke:black;stroke-width:1px;"/>
    </g>
    <g id="front-torso" serif:id="front torso" transform="matrix(1,0,0,1,-481.265,-78.6347)">
        <path d="M703.19,146.118C667.845,162.961 643.053,121.485 663.427,110.711C659.642,108.055 633.292,107.307 624.508,108.195C588.875,111.801 539.466,138.992 500.092,142.265C497.541,142.791 490.025,140.839 488.674,141.128C488.286,141.212 486.19,140.625 486.19,140.625C486.19,140.625 486.851,166.198 483.905,191.141C480.997,215.763 488.839,224.01 491.036,230.463C498.393,229.565 505.598,230.759 513.654,228.481C518.994,226.971 524.855,230.491 530.631,227.835C533.355,226.582 541.08,225.3 551.659,224.101C551.055,222.669 624.777,219.069 624.777,219.069C640.647,218.472 652.101,217.27 665.082,218.583C677.475,219.836 690.125,217.01 711,216.671C727.3,216.407 719.561,187.293 708.911,175.233C702.661,168.153 703.023,154.931 702.914,153.722C702.668,150.978 703.19,146.118 703.19,146.118Z" style="fill:rgb(196,196,196);"/>
        <clipPath id="_clip1">
            <path d="M703.19,146.118C667.845,162.961 643.053,121.485 663.427,110.711C659.642,108.055 633.292,107.307 624.508,108.195C588.875,111.801 539.466,138.992 500.092,142.265C497.541,142.791 490.025,140.839 488.674,141.128C488.286,141.212 486.19,140.625 486.19,140.625C486.19,140.625 486.851,166.198 483.905,191.141C480.997,215.763 488.839,224.01 491.036,230.463C498.393,229.565 505.598,230.759 513.654,228.481C518.994,226.971 524.855,230.491 530.631,227.835C533.355,226.582 541.08,225.3 551.659,224.101C551.055,222.669 624.777,219.069 624.777,219.069C640.647,218.472 652.101,217.27 665.082,218.583C677.475,219.836 690.125,217.01 711,216.671C727.3,216.407 719.561,187.293 708.911,175.233C702.661,168.153 703.023,154.931 702.914,153.722C702.668,150.978 703.19,146.118 703.19,146.118Z"/>
        </clipPath>
        <g clip-path="url(#_clip1)">
            <g id="torso-wrinkles" serif:id="torso wrinkles" opacity="0.2">
                <path d="M659.63,107.071C655.16,112.217 643.302,122.517 658.845,141.193C673.18,158.417 692.611,155.264 703.216,151.056" style="fill:none;stroke:black;stroke-width:1px;"/>
                <path d="M568.831,144.364C568.831,144.364 566.362,157.157 595.315,177.806" style="fill:none;stroke:black;stroke-width:1px;"/>
                <path d="M577.135,140.997C577.135,140.997 581.848,160.075 619.106,165.686" style="fill:none;stroke:black;stroke-width:1px;"/>
                <g transform="matrix(0.893491,0,0,0.957447,62.5696,5.92346)">
                    <path d="M587.459,139.201C587.459,139.201 634.478,157.78 663.322,160.299" style="fill:none;stroke:black;stroke-width:1.08px;"/>
                </g>
                <path d="M515.439,227.69C514.462,225.735 507.23,204.349 510.553,193.814C513.886,183.248 513.923,179.869 512.946,172.052C511.902,163.703 513.53,154.193 509.437,141.225" style="fill:none;stroke:black;stroke-width:1px;stroke-miterlimit:2;"/>
            </g>
            <g id="ltt-logo" serif:id="ltt logo" transform="matrix(0.766169,0.0734571,-0.0734571,0.766169,173.642,-2.09732)">
                <path d="M663.095,171.742L661.009,176.024L663.81,177.174" style="fill:none;stroke:black;stroke-width:1.3px;stroke-linecap:square;stroke-linejoin:miter;stroke-miterlimit:2;"/>
                <path d="M664.472,172.369L668.033,173.71" style="fill:none;stroke:black;stroke-width:1.3px;stroke-linecap:square;stroke-linejoin:miter;stroke-miterlimit:2;"/>
                <g transform="matrix(1,0,0,1,0.246779,0.0987117)">
                    <path d="M663.771,175.548L664.932,172.715" style="fill:none;stroke:black;stroke-width:1.3px;stroke-linecap:square;stroke-linejoin:miter;stroke-miterlimit:2;"/>
                </g>
                <g transform="matrix(1,0,0,1,0.489959,1.0902)">
                    <path d="M665.119,176.664L665.771,175.265" style="fill:none;stroke:black;stroke-width:1.3px;stroke-linecap:square;stroke-linejoin:miter;stroke-miterlimit:2;"/>
                </g>
                <g transform="matrix(1,0,0,1,-0.00796884,0.576846)">
                    <path d="M665.591,175.044L667.449,175.726" style="fill:none;stroke:black;stroke-width:1.3px;stroke-linecap:square;stroke-linejoin:miter;stroke-miterlimit:2;"/>
                </g>
            </g>
        </g>
        <path d="M703.19,146.118C667.845,162.961 643.053,121.485 663.427,110.711C659.642,108.055 633.292,107.307 624.508,108.195C588.875,111.801 539.466,138.992 500.092,142.265C497.541,142.791 490.025,140.839 488.674,141.128C488.286,141.212 486.19,140.625 486.19,140.625C486.19,140.625 486.851,166.198 483.905,191.141C480.997,215.763 488.839,224.01 491.036,230.463C498.393,229.565 505.598,230.759 513.654,228.481C518.994,226.971 524.855,230.491 530.631,227.835C533.355,226.582 541.08,225.3 551.659,224.101C551.055,222.669 624.777,219.069 624.777,219.069C640.647,218.472 652.101,217.27 665.082,218.583C677.475,219.836 690.125,217.01 711,216.671C727.3,216.407 719.561,187.293 708.911,175.233C702.661,168.153 703.023,154.931 702.914,153.722C702.668,150.978 703.19,146.118 703.19,146.118Z" style="fill:none;stroke:black;stroke-width:1px;"/>
    </g>
    <g id="behind-left-arm" serif:id="behind left arm" transform="matrix(1,0,0,1,-481.265,-78.6347)">
        <path d="M665.783,218.383C673.638,218.643 685.058,226.159 693.843,221.199C697.427,219.175 703.654,221.864 707.758,222.136C712.733,222.467 714.429,226.056 717.713,224.467C720.546,223.096 726.012,224.884 726.423,226.004C727,227.577 759.985,235.754 770.998,234.836C791.908,233.094 837.519,252.649 813.134,217.729C791.591,186.879 798.188,195.301 790.545,187.886C784.539,182.058 777.946,176.239 768.584,167.895C761.868,165.286 751.37,172.862 748.742,174.869C739.841,181.666 741.401,185.739 741.401,185.739C741.401,185.739 743.8,192.529 747.684,197.137C747.719,197.179 749.143,197.762 749.175,197.799C749.135,197.782 747.674,197.281 747.628,197.261C744.387,195.87 737.562,193.029 738.49,192.532C739.382,192.055 737.232,190.875 736.782,189.765C733.064,191.141 728.167,189.088 727.266,188.126C726.247,187.038 723.266,180.845 720.616,179.162C718.832,178.029 713.062,175.661 711.597,171.467C710.687,168.862 709.542,166.805 708.685,165.732C705.352,161.561 702.322,153.018 703.128,146.719" style="fill:rgb(93,93,93);stroke:black;stroke-width:1px;"/>
    </g>
    <g id="front-left-arm" serif:id="front left arm" transform="matrix(1,0,0,1,-481.265,-78.6347)">
        <path d="M665.082,218.583C672.938,218.843 685.058,226.159 693.843,221.199C697.427,219.175 703.654,221.864 707.758,222.136C712.733,222.467 714.429,226.056 717.713,224.467C720.546,223.096 726.012,224.884 726.423,226.004C727,227.577 759.985,235.754 770.998,234.836C791.908,233.094 837.519,252.649 813.134,217.729C791.591,186.879 798.188,195.301 790.545,187.886C784.539,182.058 777.946,176.239 768.584,167.895C766.753,170.252 764.704,174.364 762.076,176.371C753.175,183.168 741.401,185.739 741.401,185.739C741.401,185.739 743.8,192.529 747.684,197.137C747.719,197.179 750.084,202.338 752.679,206.848C755.008,210.895 757.594,214.342 757.626,214.379C757.587,214.362 755.038,210.913 752.679,206.848C750.092,202.39 747.674,197.281 747.628,197.261C744.387,195.87 737.562,193.029 738.49,192.532C739.382,192.055 737.232,190.875 736.782,189.765C733.064,191.141 728.167,189.088 727.266,188.126C726.247,187.038 723.266,180.845 720.616,179.162C718.832,178.029 713.062,175.661 711.597,171.467C710.687,168.862 709.542,166.805 708.685,165.732C705.352,161.561 702.383,152.417 703.19,146.118" style="fill:rgb(196,196,196);"/>
        <clipPath id="_clip2">
            <path d="M665.082,218.583C672.938,218.843 685.058,226.159 693.843,221.199C697.427,219.175 703.654,221.864 707.758,222.136C712.733,222.467 714.429,226.056 717.713,224.467C720.546,223.096 726.012,224.884 726.423,226.004C727,227.577 759.985,235.754 770.998,234.836C791.908,233.094 837.519,252.649 813.134,217.729C791.591,186.879 798.188,195.301 790.545,187.886C784.539,182.058 777.946,176.239 768.584,167.895C766.753,170.252 764.704,174.364 762.076,176.371C753.175,183.168 741.401,185.739 741.401,185.739C741.401,185.739 743.8,192.529 747.684,197.137C747.719,197.179 750.084,202.338 752.679,206.848C755.008,210.895 757.594,214.342 757.626,214.379C757.587,214.362 755.038,210.913 752.679,206.848C750.092,202.39 747.674,197.281 747.628,197.261C744.387,195.87 737.562,193.029 738.49,192.532C739.382,192.055 737.232,190.875 736.782,189.765C733.064,191.141 728.167,189.088 727.266,188.126C726.247,187.038 723.266,180.845 720.616,179.162C718.832,178.029 713.062,175.661 711.597,171.467C710.687,168.862 709.542,166.805 708.685,165.732C705.352,161.561 702.383,152.417 703.19,146.118"/>
        </clipPath>
        <g clip-path="url(#_clip2)">
            <g id="left-arm-wrinkles" serif:id="left arm wrinkles" transform="matrix(1,0,0,1,481.265,78.6347)">
                <g opacity="0.2">
                    <g transform="matrix(1,0,0,1,-481.265,-78.6347)">
                        <path d="M705.263,179.218C705.263,179.218 689.022,193.008 674.312,199.596" style="fill:none;stroke:black;stroke-width:1px;"/>
                    </g>
                    <g transform="matrix(1,0,0,1,-481.265,-78.6347)">
                        <path d="M715.835,189.024C715.835,189.024 688.868,200.975 681.667,207.87" style="fill:none;stroke:black;stroke-width:1px;"/>
                    </g>
                    <g transform="matrix(1,0,0,1,-481.265,-78.6347)">
                        <path d="M747.735,197.387C747.735,197.387 757.898,218.755 768.191,226.572" style="fill:none;stroke:black;stroke-width:1px;stroke-miterlimit:2;"/>
                    </g>
                    <g transform="matrix(0.976183,0,0,1.10043,-458.313,-90.2446)">
                        <path d="M750.353,202.482C750.353,202.482 768.171,204.162 788.647,183.055" style="fill:none;stroke:black;stroke-width:0.96px;stroke-miterlimit:2;"/>
                    </g>
                </g>
            </g>
        </g>
        <path d="M665.082,218.583C672.938,218.843 685.058,226.159 693.843,221.199C697.427,219.175 703.654,221.864 707.758,222.136C712.733,222.467 714.429,226.056 717.713,224.467C720.546,223.096 726.012,224.884 726.423,226.004C727,227.577 759.985,235.754 770.998,234.836C791.908,233.094 837.519,252.649 813.134,217.729C791.591,186.879 798.188,195.301 790.545,187.886C784.539,182.058 777.946,176.239 768.584,167.895C766.753,170.252 764.704,174.364 762.076,176.371C753.175,183.168 741.401,185.739 741.401,185.739C741.401,185.739 743.8,192.529 747.684,197.137C747.719,197.179 750.084,202.338 752.679,206.848C755.008,210.895 757.594,214.342 757.626,214.379C757.587,214.362 755.038,210.913 752.679,206.848C750.092,202.39 747.674,197.281 747.628,197.261C744.387,195.87 737.562,193.029 738.49,192.532C739.382,192.055 737.232,190.875 736.782,189.765C733.064,191.141 728.167,189.088 727.266,188.126C726.247,187.038 723.266,180.845 720.616,179.162C718.832,178.029 713.062,175.661 711.597,171.467C710.687,168.862 709.542,166.805 708.685,165.732C705.352,161.561 702.383,152.417 703.19,146.118" style="fill:none;stroke:black;stroke-width:1px;"/>
    </g>
    <g id="behind-right-arm" serif:id="behind right arm" transform="matrix(1,0,0,1,-481.265,-78.6347)">
        <path d="M663.427,110.711C663.427,110.711 643.171,90.548 625.15,80.24C623.383,79.23 611.12,78.898 610.551,79.303C606.07,82.494 585.713,86.634 575.449,95.124C565.184,103.615 562.65,90.055 557.327,100.447C552.005,110.838 553.399,101.207 546.176,106.276C538.952,111.345 540.98,103.868 536.925,109.317C532.87,114.766 520.451,113.499 517.663,117.427C514.875,121.356 506.324,123.349 502.329,133.268C496.073,140.524 512.996,174.298 514.885,176.505C517.688,179.779 520.971,180.739 523.817,181.412C532.283,183.414 546.38,180.566 553.338,171.345C553.758,170.789 553.887,169.228 553.711,168.47C552.998,165.408 553.283,159.057 551.041,150.118C550.741,148.92 549.171,148.766 549.171,148.766L550.874,149.496C550.874,149.496 563.36,144.547 564.605,145.196C565.133,145.472 572.636,142.303 573.623,141.417C575.991,141.69 580.997,138.385 581.439,137.727C584.086,133.783 589.359,131.755 592.524,128.403" style="fill:rgb(93,93,93);stroke:black;stroke-width:1px;"/>
    </g>
    <g id="front-right-arm" serif:id="front right arm" transform="matrix(1,0,0,1,-481.265,-78.6347)">
        <path d="M663.427,110.711C663.427,110.711 643.171,90.548 625.15,80.24C623.383,79.23 611.12,78.898 610.551,79.303C606.07,82.494 585.713,86.634 575.449,95.124C565.184,103.615 562.65,90.055 557.327,100.447C552.005,110.838 553.399,101.207 546.176,106.276C538.952,111.345 540.98,103.868 536.925,109.317C532.87,114.766 520.451,113.499 517.663,117.427C514.875,121.356 506.324,123.349 502.329,133.268C496.073,140.524 506.001,167.64 514.797,176.357C514.543,174.971 514.818,172.94 515.794,170.861C517.068,168.15 523.213,164.305 528.44,163.073C531.923,162.251 537.571,161.389 542.226,162.139C546.732,162.864 550.343,164.677 551.418,165.501C551.941,165.903 553.233,167.244 553.666,168.169C553.666,168.169 549.847,137.559 547.019,133.249C549.246,137.695 550.874,149.496 550.874,149.496C550.874,149.496 563.36,144.547 564.605,145.196C565.133,145.472 572.636,142.303 573.623,141.417C575.991,141.69 580.997,138.385 581.439,137.727C584.086,133.783 589.359,132.397 592.524,129.045" style="fill:rgb(196,196,196);"/>
        <clipPath id="_clip3">
            <path d="M663.427,110.711C663.427,110.711 643.171,90.548 625.15,80.24C623.383,79.23 611.12,78.898 610.551,79.303C606.07,82.494 585.713,86.634 575.449,95.124C565.184,103.615 562.65,90.055 557.327,100.447C552.005,110.838 553.399,101.207 546.176,106.276C538.952,111.345 540.98,103.868 536.925,109.317C532.87,114.766 520.451,113.499 517.663,117.427C514.875,121.356 506.324,123.349 502.329,133.268C496.073,140.524 506.001,167.64 514.797,176.357C514.543,174.971 514.818,172.94 515.794,170.861C517.068,168.15 523.213,164.305 528.44,163.073C531.923,162.251 537.571,161.389 542.226,162.139C546.732,162.864 550.343,164.677 551.418,165.501C551.941,165.903 553.233,167.244 553.666,168.169C553.666,168.169 549.847,137.559 547.019,133.249C549.246,137.695 550.874,149.496 550.874,149.496C550.874,149.496 563.36,144.547 564.605,145.196C565.133,145.472 572.636,142.303 573.623,141.417C575.991,141.69 580.997,138.385 581.439,137.727C584.086,133.783 589.359,132.397 592.524,129.045"/>
        </clipPath>
        <g clip-path="url(#_clip3)">
            <g id="right-arm-wrinkles" serif:id="right arm wrinkles" transform="matrix(1,0,0,1,481.265,78.6347)">
                <g opacity="0.2">
                    <g transform="matrix(1,0,0,1,-481.265,-78.6347)">
                        <path d="M644.651,115.881C644.651,115.881 625.798,112.29 596.53,119.832" style="fill:none;stroke:black;stroke-width:1px;"/>
                    </g>
                    <g transform="matrix(1,0,0,1,-481.265,-78.6347)">
                        <path d="M552.98,166.803L550.626,149.623C550.626,149.623 561.022,143.749 565.484,144.491C567.278,144.79 576.279,140.758 576.279,140.758C576.279,140.758 565.135,147.924 561.252,152.265C557.535,156.421 552.98,166.803 552.98,166.803Z" style="fill:rgb(3,3,3);stroke:black;stroke-width:1px;"/>
                    </g>
                    <g transform="matrix(1,0,0,1,-481.265,-78.6347)">
                        <path d="M504.193,157.023C504.193,157.023 522.864,130.42 550.363,145.703" style="fill:none;stroke:black;stroke-width:1px;stroke-miterlimit:2;"/>
                    </g>
                </g>
            </g>
        </g>
        <path d="M663.427,110.711C663.427,110.711 643.171,90.548 625.15,80.24C623.383,79.23 611.12,78.898 610.551,79.303C606.07,82.494 585.713,86.634 575.449,95.124C565.184,103.615 562.65,90.055 557.327,100.447C552.005,110.838 553.399,101.207 546.176,106.276C538.952,111.345 540.98,103.868 536.925,109.317C532.87,114.766 520.451,113.499 517.663,117.427C514.875,121.356 506.324,123.349 502.329,133.268C496.073,140.524 506.001,167.64 514.797,176.357C514.543,174.971 514.818,172.94 515.794,170.861C517.068,168.15 523.213,164.305 528.44,163.073C531.923,162.251 537.571,161.389 542.226,162.139C546.732,162.864 550.343,164.677 551.418,165.501C551.941,165.903 553.233,167.244 553.666,168.169C553.666,168.169 549.847,137.559 547.019,133.249C549.246,137.695 550.874,149.496 550.874,149.496C550.874,149.496 563.36,144.547 564.605,145.196C565.133,145.472 572.636,142.303 573.623,141.417C575.991,141.69 580.997,138.385 581.439,137.727C584.086,133.783 589.359,132.397 592.524,129.045" style="fill:none;stroke:black;stroke-width:1px;"/>
    </g>
</svg>
