<?xml version="1.0" encoding="UTF-8" standalone="no"?>
<!DOCTYPE svg PUBLIC "-//W3C//DTD SVG 1.1//EN" "http://www.w3.org/Graphics/SVG/1.1/DTD/svg11.dtd">
<svg width="100%" height="100%" viewBox="0 0 47 33" version="1.1" xmlns="http://www.w3.org/2000/svg" xmlns:xlink="http://www.w3.org/1999/xlink" xml:space="preserve" xmlns:serif="http://www.serif.com/" style="fill-rule:evenodd;clip-rule:evenodd;stroke-linejoin:round;stroke-miterlimit:2;">
    <g transform="matrix(1.03409,0.0774429,-0.0774429,1.03409,-698.862,-134.243)">
        <path d="M716.799,96.324C716.799,96.324 728.671,102.08 728.971,103.766C729.27,105.453 729.42,108.076 728.184,105.715C726.947,103.354 721.609,103.889 715.902,98.386C715.497,96.549 716.799,96.324 716.799,96.324Z" style="fill:rgb(90,90,90);"/>
    </g>
    <g transform="matrix(1.03409,0.0774429,-0.0774429,1.03409,-698.862,-134.243)">
        <path d="M685.196,83.769C683.924,82.523 683.499,80.604 682.176,80.128C681.283,79.808 682.003,77.999 683.523,78.988C684.456,79.595 685.028,80.27 686.806,81.719" style="fill:rgb(90,90,90);"/>
    </g>
    <g transform="matrix(0.96933,0.558546,-0.579471,1.00564,-603.721,-466.718)">
        <path d="M698.717,93.635C699.135,94.861 700.05,99.245 705.691,98.739C710.648,98.295 712.412,89.274 706.341,89.675C700.432,90.066 697.746,90.787 698.717,93.635Z" style="fill:rgb(10,10,10);fill-opacity:0.89;"/>
    </g>
    <g transform="matrix(-0.97138,-0.559727,-0.553518,0.960604,745.416,316.11)">
        <path d="M698.733,94.022C699.074,95.344 700.977,99.598 706.501,98.577C711.401,97.672 712.224,89.151 706.341,89.675C700.442,90.201 698.014,91.228 698.733,94.022Z" style="fill:rgb(10,10,10);fill-opacity:0.89;"/>
    </g>
    <g transform="matrix(1.03698,0,0,1.03698,0,0)">
        <path d="M2.832,6.82C1.165,9.816 -0.794,14.083 6.615,17.478C12.685,20.26 15.177,14.069 16.954,15.174C18.392,16.068 15.596,21.082 18.022,23.751C20.818,26.829 25.153,28.982 28.705,25.652C29.909,24.523 31.776,21.348 32.617,22.119C32.809,21.43 33.724,20.731 33.665,20.13C32.779,19.347 28.611,16.655 24.825,14.981C21.699,13.6 19.643,13.706 18.346,12.904C16.942,12.036 15.696,9.835 12.43,7.357C9.399,5.055 5.33,2.975 4.241,3.008C3.875,3.019 3.387,4.28 3.037,4.816C3.032,5.284 2.954,6.601 2.832,6.82ZM18.97,17.362C18.72,18.633 17.324,22.888 22.464,25.266C26.98,27.356 33.013,20.421 27.552,17.737C22.237,15.125 19.55,14.409 18.97,17.362ZM13.701,14.557C12.746,15.532 8.974,18.268 4.696,14.625C0.903,11.394 4.444,3.601 9.28,6.992C14.129,10.392 15.719,12.495 13.701,14.557Z" style="fill:rgb(90,90,90);"/>
    </g>
</svg>
