<?xml version="1.0" encoding="UTF-8" standalone="no"?>
<!DOCTYPE svg PUBLIC "-//W3C//DTD SVG 1.1//EN" "http://www.w3.org/Graphics/SVG/1.1/DTD/svg11.dtd">
<svg width="100%" height="100%" viewBox="0 0 54 65" version="1.1" xmlns="http://www.w3.org/2000/svg" xmlns:xlink="http://www.w3.org/1999/xlink" xml:space="preserve" xmlns:serif="http://www.serif.com/" style="fill-rule:evenodd;clip-rule:evenodd;stroke-linecap:round;stroke-linejoin:round;stroke-miterlimit:1.5;">
    <g transform="matrix(1,0,0,1,-641.137,-113.328)">
        <path d="M656.376,115.452C654.279,116.963 644.995,119.144 645.541,130.394C646.087,141.645 651.658,154.191 662.362,164.349C673.066,174.507 678.032,174.537 685.846,173.43C691.276,172.66 692.901,169.54 689.078,161.894C690.495,162.695 693.497,164.992 694.548,170.788C694.89,172.675 692.815,175.208 689.362,176.738C685.664,178.376 679.753,177.943 676.829,177.251C666.154,174.728 659.101,167.736 651.439,157.373C644.252,147.652 641.473,136.999 641.393,132.073C641.255,123.577 643.684,119.26 648.099,116.763C655.41,112.628 659.653,113.705 659.653,113.705C659.653,113.705 657.381,114.729 656.376,115.452Z" style="fill:rgb(231,231,231);stroke:black;stroke-width:0.5px;"/>
    </g>
</svg>
