<?xml version="1.0" encoding="UTF-8" standalone="no"?>
<!DOCTYPE svg PUBLIC "-//W3C//DTD SVG 1.1//EN" "http://www.w3.org/Graphics/SVG/1.1/DTD/svg11.dtd">
<svg width="100%" height="100%" viewBox="0 0 97 82" version="1.1" xmlns="http://www.w3.org/2000/svg" xmlns:xlink="http://www.w3.org/1999/xlink" xml:space="preserve" xmlns:serif="http://www.serif.com/" style="fill-rule:evenodd;clip-rule:evenodd;stroke-linecap:round;stroke-linejoin:round;stroke-miterlimit:2;">
    <g transform="matrix(1,0,0,1,-284.853,-153.195)">
        <path d="M344.017,153.695C352.395,155.203 359.602,156.928 380.901,155.928C381.815,167.894 379.684,175.776 379.544,185.714C379.371,197.899 381.67,224.746 379.868,229.034C376.093,238.02 354.887,231.153 342.78,231.748C333.466,232.206 323.82,233.659 318.524,234.041C315.402,234.265 297.558,233.55 287.887,233.314C284.878,233.24 283.907,224.82 288.587,223.462C293.252,222.108 310.231,219.002 323.267,209.246C338.314,197.986 344.712,192.604 345.336,182.74C345.88,174.147 344.589,163.629 344.017,153.695Z" style="fill:rgb(255,163,34);stroke:black;stroke-width:1px;"/>
    </g>
</svg>
