<?xml version="1.0" encoding="UTF-8" standalone="no"?>
<!DOCTYPE svg PUBLIC "-//W3C//DTD SVG 1.1//EN" "http://www.w3.org/Graphics/SVG/1.1/DTD/svg11.dtd">
<svg width="100%" height="100%" viewBox="0 0 150 136" version="1.1" xmlns="http://www.w3.org/2000/svg" xmlns:xlink="http://www.w3.org/1999/xlink" xml:space="preserve" xmlns:serif="http://www.serif.com/" style="fill-rule:evenodd;clip-rule:evenodd;stroke-linecap:round;stroke-linejoin:round;stroke-miterlimit:1.5;">
    <g id="right-arm" serif:id="right arm" transform="matrix(1,0,0,1,-484.036,-67.9815)">
        <path d="M633.271,88.612L614.104,73.563C614.104,73.563 605.392,62.792 583.532,72.613C561.672,82.434 563.256,85.602 534.11,95.423C504.964,105.244 500.687,109.363 496.093,113.006C491.499,116.649 479.119,123.079 487.223,143.261C498.913,172.376 534.269,202.821 534.269,202.821C544.112,200.81 552.668,197.732 559.517,193.885C559.517,193.885 546.183,184.929 534.585,151.023C523.232,117.832 526.665,125.203 526.665,125.203L530.383,137.135C530.383,137.135 548.592,133.939 584.582,102.633" style="fill:rgb(246,185,133);stroke:black;stroke-width:1px;"/>
    </g>
</svg>
