<?xml version="1.0" encoding="UTF-8" standalone="no"?>
<!DOCTYPE svg PUBLIC "-//W3C//DTD SVG 1.1//EN" "http://www.w3.org/Graphics/SVG/1.1/DTD/svg11.dtd">
<svg width="100%" height="100%" viewBox="0 0 197 201" version="1.1" xmlns="http://www.w3.org/2000/svg" xmlns:xlink="http://www.w3.org/1999/xlink" xml:space="preserve" xmlns:serif="http://www.serif.com/" style="fill-rule:evenodd;clip-rule:evenodd;stroke-linecap:round;stroke-linejoin:round;stroke-miterlimit:1.5;">
    <g id="right-leg" serif:id="right leg" transform="matrix(1,0,0,1,-274.276,-13.5809)">
        <path d="M470.406,129.998C466.22,128.62 461.607,125.733 457.01,120.272C442.05,102.495 443.634,91.055 417.761,61.31C391.889,31.566 393.473,29.982 385.025,23.294C376.577,16.605 367.986,8.854 347.36,18.893C337.061,23.906 332.858,32.212 331.574,39.763C330.128,48.262 329.445,57.68 329.911,58.518C330.261,59.147 329.73,79.028 330.644,102.039C331.187,115.732 333.303,127.85 334.269,141.297C335.125,153.217 334.787,163.693 334.713,164.465C333.749,174.537 322.878,185.545 302.734,196.732C299.213,198.687 290.298,203.161 286.096,204.287C282.827,205.163 279.688,204.073 276.844,205.554C274.294,206.883 274.969,212.452 276.476,212.952C280.618,214.326 309.585,214.077 328.19,211.508C346.161,209.028 350.133,216.366 366.039,210.868C369.038,209.831 369.02,201.205 367.127,195.465C364.928,188.799 367.086,180.167 367.161,173.406C367.161,173.406 367.99,128.759 371.038,123.559C376.636,114.005 373.037,89.994 360.272,71.463C358.379,68.714 360.397,71.745 360.488,71.867C370.544,85.378 375.155,106.164 373.576,114.277C373.16,116.416 392.389,146.723 397.486,163.996" style="fill:rgb(246,185,133);stroke:black;stroke-width:1px;"/>
    </g>
</svg>
