<?xml version="1.0" encoding="UTF-8" standalone="no"?>
<!DOCTYPE svg PUBLIC "-//W3C//DTD SVG 1.1//EN" "http://www.w3.org/Graphics/SVG/1.1/DTD/svg11.dtd">
<svg width="100%" height="100%" viewBox="0 0 95 110" version="1.1" xmlns="http://www.w3.org/2000/svg" xmlns:xlink="http://www.w3.org/1999/xlink" xml:space="preserve" xmlns:serif="http://www.serif.com/" style="fill-rule:evenodd;clip-rule:evenodd;stroke-linecap:round;stroke-linejoin:round;stroke-miterlimit:1.5;">
    <g id="underwear-1" serif:id="underwear 1" transform="matrix(1,0,0,1,-413.425,-124.427)">
        <path d="M500.683,149.774C499.656,174.362 507.633,227.762 507.633,227.762C507.633,227.762 481.289,230.484 446.285,233.906C449.276,221.603 451.828,188.28 421.683,178.721C422.561,178.819 418.737,178.08 414.188,178.116C414.164,177.596 413.883,177.221 413.93,176.854C429.476,172.679 443.13,158.052 453.596,145.819C462.005,135.991 469.136,128.196 467.642,124.927C482.644,147.57 493.223,143.741 500.421,142.08C500.42,142.099 500.425,142.129 500.425,142.171C500.427,144.722 500.483,148.828 500.683,149.774Z" style="fill:rgb(255,0,255);"/>
        <clipPath id="_clip1">
            <path d="M500.683,149.774C499.656,174.362 507.633,227.762 507.633,227.762C507.633,227.762 481.289,230.484 446.285,233.906C449.276,221.603 451.828,188.28 421.683,178.721C422.561,178.819 418.737,178.08 414.188,178.116C414.164,177.596 413.883,177.221 413.93,176.854C429.476,172.679 443.13,158.052 453.596,145.819C462.005,135.991 469.136,128.196 467.642,124.927C482.644,147.57 493.223,143.741 500.421,142.08C500.42,142.099 500.425,142.129 500.425,142.171C500.427,144.722 500.483,148.828 500.683,149.774Z"/>
        </clipPath>
        <g clip-path="url(#_clip1)">
            <g id="dots" transform="matrix(0.98228,0.187417,-0.160596,0.841706,423.018,126.902)">
                <g transform="matrix(1,0,0,1,-3.5039,-8.64713)">
                    <circle cx="75.741" cy="16.03" r="7.517" style="fill:rgb(0,255,255);"/>
                </g>
                <g transform="matrix(1,0,0,1,4.54709,20.5905)">
                    <circle cx="75.741" cy="16.03" r="7.517" style="fill:rgb(0,255,255);"/>
                </g>
                <g transform="matrix(1,0,0,1,-19.2223,13.7302)">
                    <circle cx="75.741" cy="16.03" r="7.517" style="fill:rgb(0,255,255);"/>
                </g>
                <g transform="matrix(0.921494,0.453258,-0.332809,0.921494,-18.2604,-46.3423)">
                    <circle cx="75.741" cy="16.03" r="7.517" style="fill:rgb(0,255,255);"/>
                </g>
                <g transform="matrix(0.970025,0.283589,-0.208228,0.970025,-38.0864,-12.4155)">
                    <circle cx="75.741" cy="16.03" r="7.517" style="fill:rgb(0,255,255);"/>
                </g>
                <g transform="matrix(0.862259,-0.591054,0.433987,0.862259,-28.2258,79.6975)">
                    <circle cx="75.741" cy="16.03" r="7.517" style="fill:rgb(0,255,255);"/>
                </g>
                <g transform="matrix(0.982324,0.218451,-0.1604,0.982324,-4.35281,26.7286)">
                    <circle cx="75.741" cy="16.03" r="7.517" style="fill:rgb(0,255,255);"/>
                </g>
                <g transform="matrix(0.937207,0.407023,-0.298861,0.937207,-18.6236,33.8569)">
                    <circle cx="75.741" cy="16.03" r="7.517" style="fill:rgb(0,255,255);"/>
                </g>
                <g transform="matrix(1.06663,8.32667e-17,5.55112e-17,1.04739,-4.80081,67.4352)">
                    <circle cx="75.741" cy="16.03" r="7.517" style="fill:rgb(0,255,255);"/>
                </g>
                <g transform="matrix(1.11278,0,4.8289e-17,0.869898,-35.0187,93.694)">
                    <circle cx="75.741" cy="16.03" r="7.517" style="fill:rgb(0,255,255);"/>
                </g>
                <g transform="matrix(1,0,0,1,-1.23572,93.0907)">
                    <circle cx="75.741" cy="16.03" r="7.517" style="fill:rgb(0,255,255);"/>
                </g>
                <g transform="matrix(1,0,0,1,-55.303,37.9826)">
                    <circle cx="75.741" cy="16.03" r="7.517" style="fill:rgb(0,255,255);"/>
                </g>
            </g>
            <path id="bolge" d="M413.248,178.215C413.248,178.215 451.374,181.752 468.441,196.172" style="fill:none;stroke:black;stroke-opacity:0.5;stroke-width:1px;"/>
            <g id="midi" transform="matrix(1,0,0,1,-2.0983,0.227866)">
                <path d="M495.839,140.588C492.108,160.984 495.989,193.686 500.734,230.681L515.816,230.284L507.349,135.561L495.839,140.588Z" style="fill:rgb(0,255,255);stroke:black;stroke-width:1px;"/>
            </g>
            <g transform="matrix(1,0,0,1,413.425,124.427)">
                <rect x="-9.072" y="-4.834" width="122.885" height="124.773" style="fill:rgb(123,123,123);fill-opacity:0.5;"/>
            </g>
        </g>
        <path d="M500.683,149.774C499.656,174.362 507.633,227.762 507.633,227.762C507.633,227.762 481.289,230.484 446.285,233.906C449.276,221.603 451.828,188.28 421.683,178.721C422.561,178.819 418.737,178.08 414.188,178.116C414.164,177.596 413.883,177.221 413.93,176.854C429.476,172.679 443.13,158.052 453.596,145.819C462.005,135.991 469.136,128.196 467.642,124.927C482.644,147.57 493.223,143.741 500.421,142.08C500.42,142.099 500.425,142.129 500.425,142.171C500.427,144.722 500.483,148.828 500.683,149.774Z" style="fill:none;stroke:black;stroke-width:1px;"/>
    </g>
</svg>
